<svg xmlns="http://www.w3.org/2000/svg" viewBox="0 0 142.05 283.71"><g xmlns="http://www.w3.org/2000/svg" transform="rotate(90 71.025 71.025)"><defs><style>.cls-1{stroke-miterlimit:10}.cls-1,.cls-11,.cls-12,.cls-13,.cls-14,.cls-16,.cls-5,.cls-6,.cls-7{stroke-width:.25px}.cls-1,.cls-11,.cls-13,.cls-5,.cls-6,.cls-7{stroke:#1d1d1b}.cls-1,.cls-12,.cls-6{fill:none}.cls-11,.cls-12,.cls-13,.cls-14,.cls-16,.cls-5,.cls-6,.cls-7{stroke-linecap:round;stroke-linejoin:round}.cls-16{fill:#237d23}.cls-5{fill:#a5a0a3}.cls-14,.cls-7{fill:#91ef97}.cls-14,.cls-16{stroke:#000}.cls-12{stroke:#646464}.cls-11{fill:#bcb9bb}.cls-13{fill:#f1f0f1}</style></defs><rect x=".55" y=".2" width="283.04" height="141.73" rx="70.87" ry="70.87" style="fill:#deff00;stroke-linecap:round;stroke-linejoin:round;stroke:#1d1d1b;stroke-width:.25px"/><path class="cls-6" d="m162.36 71.22-.02 2.67h-.75l.03-5.67h.75l-.01 2.33 2.95.02v-2.33h.76l-.03 5.67h-.75l.02-2.68-2.95-.02zm-3.41-2.35-.03 5h-.75l.03-5h-1.87v-.68l4.49.03v.67l-1.88-.01zm-3.25 4.31v.67l-4.23-.02.03-5.67 4.1.02v.67l-3.35-.02v1.74l3.13.02v.67l-3.14-.02v1.93l3.47.02zm50.87 24.29h0l-.48-.29-.45-.34v1.74h-.42v-2.29h.34l.46.36.5.31h0l.6.29.63.22h0l.48.11.49.06v.45h0l-.51-.05-.5-.11h0l-.58-.19-.56-.26zm-7.83 6.54h0l.05.28v.29l.01 1.28h-3.54v-1.22h0v-.32l.05-.31h0l.1-.28.16-.24h0l.13-.13.14-.12.16-.09.17-.08h0l.41-.11.43-.03h0l.36.02.35.07h0l.27.1.25.14h0l.18.15.15.18h0l.11.2.07.22zm-.12-2.38h0l-.13.18-.15.16-.18.13-.19.12h0l-.21.09-.22.07-.22.03-.23.02h0l-.38-.03-.18-.03-.18-.05-.17-.07-.16-.09-.31-.21h0l-.22-.27-.09-.14-.07-.15-.05-.16-.03-.17-.04-.34h0l.02-.23.04-.23.08-.22.1-.21h0l.13-.18.15-.17.18-.13.19-.12h0l.23-.09.23-.07.24-.03h.5l.25.04.24.07.23.09h0l.19.12.18.14.15.17.13.19h0l.09.21.07.21.04.22.02.22h0l-.02.24-.04.23-.08.22-.1.21zm-9.68-4.16h0l-.02.22-.04.21-.09.19-.12.18h0l-.16.14-.17.11-.19.07-.2.04-.04-.46h0l.27-.07.12-.07.11-.09h0l.07-.1.06-.11.03-.12v-.12h.01l-.02-.15-.04-.14-.08-.12-.1-.12h0l-.14-.1-.15-.07-.16-.03h-.33l-.15.03-.14.07-.13.09h0l-.09.12-.07.13-.04.14v.15h-.01l.02.2.07.18h0l.11.15.14.12-.05.41-1.82-.34v-1.76h.42v1.41l.95.19h0l-.09-.16-.07-.16-.04-.17-.02-.18h0l.02-.22.05-.21.11-.19.14-.17h0l.18-.14.2-.11.22-.05.23-.02h0l.22.02.22.05.2.09.19.12h0l.19.2.08.1.06.11.04.12.03.13.03.27zm-10.04 6.54h0l.05.28v.29l.01 1.28h-3.54v-1.22h0v-.32l.05-.31h0l.1-.28.16-.24h0l.13-.13.14-.12.16-.09.17-.08h0l.41-.11.43-.03h0l.36.02.35.07h0l.27.1.25.14h0l.18.15.15.18h0l.11.2.07.22zm-.12-2.38h0l-.13.18-.15.16-.18.13-.19.12h0l-.21.09-.22.07-.22.03-.23.02h0l-.38-.03-.18-.03-.18-.05-.17-.07-.16-.09-.31-.21h0l-.22-.27-.09-.14-.07-.15-.05-.16-.03-.17-.04-.34h0l.02-.23.04-.23.08-.22.1-.21h0l.13-.18.15-.17.18-.13.19-.12h0l.23-.09.23-.07.24-.03h.5l.25.04.24.07.23.09h0l.19.12.18.14.15.17.13.19h0l.09.21.07.21.04.22.02.22h0l-.02.24-.04.23-.08.22-.1.21zm-9.68-4.15h0l-.02.21-.05.2-.09.19-.12.17h0l-.16.14-.17.11-.19.07-.2.04-.06-.44h0l.29-.09.13-.08.12-.09h0l.07-.1.05-.1.04-.24h0l-.02-.14-.04-.14-.07-.12-.09-.11h0l-.12-.09-.12-.07-.14-.04-.15-.02h-.14l-.13.05-.12.06-.11.08h0l-.08.11-.06.12-.03.13v.14h-.01v.15l.05.15-.38-.05h0v-.07h0l-.04-.26-.11-.24h0l-.09-.1-.1-.07-.12-.04h-.13l-.22.02-.09.05-.09.07h0l-.07.09-.05.1-.04.23h0l.04.23.05.1.07.09h0l.11.08.11.07.26.07-.08.44h0l-.19-.05-.18-.07-.16-.11-.15-.13h0l-.1-.16-.08-.17-.04-.18-.02-.19h0l.03-.27.09-.26h0l.14-.21.2-.16h0l.22-.1.24-.03h0l.22.03.2.09h0l.18.16.12.2h0l.05-.14.06-.13.09-.11.11-.1h0l.13-.08.14-.06.15-.03h.15l.22.02.21.06.19.11.17.14h0l.14.19.11.2.05.22.02.24zm-10.04 6.53h0l.05.28v.29l.01 1.28h-3.54v-1.22h0v-.32l.05-.31h0l.1-.28.16-.24h0l.13-.13.14-.12.16-.09.17-.08h0l.41-.11.43-.03h0l.36.02.35.07h0l.27.1.25.14h0l.18.15.15.18h0l.11.2.07.22zm-.12-2.38h0l-.13.18-.15.16-.18.13-.19.12h0l-.21.09-.22.07-.22.03-.23.02h0l-.38-.03-.18-.03-.18-.05-.17-.07-.16-.09-.31-.21h0l-.22-.27-.09-.14-.07-.15-.05-.16-.03-.17-.04-.34h0l.02-.23.04-.23.08-.22.1-.21h0l.13-.18.15-.17.18-.13.19-.12h0l.23-.09.23-.07.24-.03h.5l.25.04.24.07.23.09h0l.19.12.18.14.15.17.13.19h0l.09.21.07.21.04.22.02.22h0l-.02.24-.04.23-.08.22-.1.21zm-13.3-4.38v-.28h3.56v.44h-2.77l.16.2.14.21h0l.12.22.1.23h-.42l-.18-.33-.23-.3h0l-.22-.22-.25-.17zm-6.42 6.76h0l.05.28v.29l.01 1.28h-3.54v-1.22h0v-.32l.05-.31h0l.1-.28.16-.24h0l.13-.13.14-.12.16-.09.17-.08h0l.41-.11.43-.03h0l.36.02.35.07h0l.27.1.25.14h0l.18.15.15.18h0l.11.2.07.22zm-.12-2.38h0l-.13.18-.15.16-.18.13-.19.12h0l-.21.09-.22.07-.22.03-.23.02h0l-.38-.03-.18-.03-.18-.05-.17-.07-.16-.09-.31-.21h0l-.22-.27-.09-.14-.07-.15-.05-.16-.03-.17-.04-.34h0l.02-.23.04-.23.08-.22.1-.21h0l.13-.18.15-.17.18-.13.19-.12h0l.23-.09.23-.07.24-.03h.5l.25.04.24.07.23.09h0l.19.12.18.14.15.17.13.19h0l.09.21.07.21.04.22.02.22h0l-.02.24-.04.23-.08.22-.1.21zm.24-4.18h0l-.03.23-.06.22-.12.19-.16.17h0l-.34.17-.17.07-.18.05-.37.05h-.38l-.51-.01-.5-.1h0l-.17-.07-.16-.08-.14-.11-.13-.13h0l-.09-.15-.07-.15-.03-.17v-.17h-.01l.03-.26.09-.24h0l.14-.2.19-.16h0l.25-.13.27-.09h0l.42-.06h.93l.5.1h0l.17.07.16.08.14.11.13.13h0l.09.15.07.16.03.17v.17zm9.68 4.18h0l-.13.18-.15.16-.18.13-.19.12h0l-.21.09-.22.07-.22.03-.23.02h0l-.38-.03-.18-.03-.18-.05-.17-.07-.16-.09-.31-.21h0l-.22-.27-.09-.14-.07-.15-.05-.16-.03-.17-.04-.34h0l.02-.23.04-.23.08-.22.1-.21h0l.13-.18.15-.17.18-.13.19-.12h0l.23-.09.23-.07.24-.03h.5l.25.04.24.07.23.09h0l.19.12.18.14.15.17.13.19h0l.09.21.07.21.04.22.02.22h0l-.02.24-.04.23-.08.22-.1.21zm.12 2.38h0l.05.28v.29l.01 1.28h-3.54v-1.22h0v-.32l.05-.31h0l.1-.28.16-.24h0l.13-.13.14-.12.16-.09.17-.08h0l.41-.11.43-.03h0l.36.02.35.07h0l.27.1.25.14h0l.18.15.15.18h0l.11.2.07.22zm9.33-6.13h0l.24.18v-1.74h.42v2.34h-.15l-.15-.05h0l-.25-.12-.22-.16h0l-.28-.27-.26-.3h0l-.35-.41-.4-.37h0l-.25-.14-.14-.04-.14-.02h-.12l-.12.05-.1.06-.1.08h0l-.08.11-.06.12-.03.13v.13h-.01v.14l.04.13.06.12.08.11h0l.12.08.12.06.14.03h.14l-.05.46h0l-.21-.04-.2-.06-.18-.11-.17-.14h0l-.12-.18-.09-.19-.04-.21-.02-.22h0l.02-.22.05-.21.09-.19.13-.18h0l.15-.13.17-.1.19-.05.2-.02h0l.21.02.2.06h0l.23.13.2.16h0l.32.33.3.35h0l.45.5zm10.39 3.75h0l-.13.18-.15.16-.18.13-.19.12h0l-.21.09-.22.07-.22.03-.23.02h0l-.38-.03-.18-.03-.18-.05-.17-.07-.16-.09-.31-.21h0l-.22-.27-.09-.14-.07-.15-.05-.16-.03-.17-.04-.34h0l.02-.23.04-.23.08-.22.1-.21h0l.13-.18.15-.17.18-.13.19-.12h0l.23-.09.23-.07.24-.03h.5l.25.04.24.07.23.09h0l.19.12.18.14.15.17.13.19h0l.09.21.07.21.04.22.02.22h0l-.02.24-.04.23-.08.22-.1.21zm.12 2.38h0l.05.28v.29l.01 1.28h-3.54v-1.22h0v-.32l.05-.31h0l.1-.28.16-.24h0l.13-.13.14-.12.16-.09.17-.08h0l.41-.11.43-.03h0l.36.02.35.07h0l.27.1.25.14h0l.18.15.15.18h0l.11.2.07.22zm9.13-7.23h.85v.44h-.85v1.54h-.4l-2.3-1.62v-.36h2.3v-.48h.4v.48zm10.59 4.85h0l-.13.18-.15.16-.18.13-.19.12h0l-.21.09-.22.07-.22.03-.23.02h0l-.38-.03-.18-.03-.18-.05-.17-.07-.16-.09-.31-.21h0l-.22-.27-.09-.14-.07-.15-.05-.16-.03-.17-.04-.34h0l.02-.23.04-.23.08-.22.1-.21h0l.13-.18.15-.17.18-.13.19-.12h0l.23-.09.23-.07.24-.03h.5l.25.04.24.07.23.09h0l.19.12.18.14.15.17.13.19h0l.09.21.07.21.04.22.02.22h0l-.02.24-.04.23-.08.22-.1.21zm.12 2.38h0l.05.28v.29l.01 1.28h-3.54v-1.22h0v-.32l.05-.31h0l.1-.28.16-.24h0l.13-.13.14-.12.16-.09.17-.08h0l.41-.11.43-.03h0l.36.02.35.07h0l.27.1.25.14h0l.18.15.15.18h0l.11.2.07.22zm6.43-6.65h0l.02-.19.04-.18.08-.16.1-.16h0l.14-.12.15-.1.17-.06.18-.04.03.43h0l-.2.06-.18.11h0l-.08.09-.06.1-.03.12v.12h-.01l.03.19.09.17h0l.2.19.24.13h0l.4.1.42.02h0l-.2-.17-.15-.22h0l-.09-.23-.03-.25h0l.03-.21.06-.2.1-.17.13-.16h0l.19-.13.2-.1.22-.05.23-.02h0l.32.04.3.11h0l.25.17.19.23h0l.12.27.04.3h0l-.03.25-.07.24-.13.21-.17.19h0l-.31.17-.16.07-.16.05-.34.05h-.75l-.38-.05-.18-.05-.18-.07-.35-.18h0l-.17-.19-.13-.21-.07-.24-.03-.26zm13.3 4.27h0l-.13.18-.15.16-.18.13-.19.12h0l-.21.09-.22.07-.22.03-.23.02h0l-.38-.03-.18-.03-.18-.05-.17-.07-.16-.09-.31-.21h0l-.22-.27-.09-.14-.07-.15-.05-.16-.03-.17-.04-.34h0l.02-.23.04-.23.08-.22.1-.21h0l.13-.18.15-.17.18-.13.19-.12h0l.23-.09.23-.07.24-.03h.5l.25.04.24.07.23.09h0l.19.12.18.14.15.17.13.19h0l.09.21.07.21.04.22.02.22h0l-.02.24-.04.23-.08.22-.1.21zm.12 2.38h0l.05.28v.29l.01 1.28h-3.54v-1.22h0v-.32l.05-.31h0l.1-.28.16-.24h0l.13-.13.14-.12.16-.09.17-.08h0l.41-.11.43-.03h0l.36.02.35.07h0l.27.1.25.14h0l.18.15.15.18h0l.11.2.07.22zM159.46 2.91v3.12h-.41V2.91h.41zm4.29 1.85v1.27h-.41V2.91h1.41l.24.03h0l.2.05.18.09h0l.14.13.11.17h0l.07.21.02.22h0l-.02.19-.04.18-.08.16-.11.15h0l-.21.14-.22.09-.24.04h-1.05zm6.84-1.48v2.75h-.41V3.28h-1.03v-.37h2.47v.37h-1.03zm-30.78 5.17v2.45h-.4V7.78h.42l1.64 2.45V7.78h.4v3.12h-.42l-1.64-2.45zm7.59 2.08v.37h-1.95V7.78h.41v2.75h1.54zm1.07.21h0l-.16-.12-.14-.13-.12-.16-.1-.17h0l-.08-.19-.06-.19-.03-.2v-.2h-.01l.02-.33.07-.32.06-.15.08-.14.19-.27h0l.24-.19.12-.08.13-.06.14-.04.15-.03.3-.03h0l.2.02.2.03.19.07.18.09h0l.16.12.15.13.12.16.1.17h0l.08.2.06.21.03.21v.22h.01v.22l-.04.22-.06.21-.08.2h0l-.11.17-.12.15-.15.13-.17.11h0l-.18.08-.19.06-.19.03h-.41l-.2-.04-.19-.07-.19-.09zm40.5.1h0l-.25.04h-.25l-1.13.01V7.77h1.35l.28.04h0l.24.08.21.14h0l.22.24.15.29h0l.09.36.03.38h0l-.02.32-.06.31h0l-.09.24-.13.22h0l-.13.15-.15.13h0l-.18.09-.19.06zm5.1-.59v-.58h-.92V9.3h1.32v1.15h0l-.3.21-.33.16h0l-.33.09-.34.03h-.22l-.21-.05-.2-.06-.2-.08h0l-.17-.11-.16-.13-.13-.16-.11-.17h0l-.08-.2-.06-.2-.03-.21v-.22h-.01v-.22l.05-.22.06-.21.08-.2h0l.1-.18.12-.16.15-.13.17-.12h0l.2-.08.2-.06.21-.03h.21l.31.01.3.08h0l.23.12.19.18h0l.14.24.09.27-.37.1h0l-.07-.2-.1-.18h0l-.13-.13-.16-.09h0l-.21-.06-.22-.02h0l-.25.02-.24.07h0l-.18.09-.15.13h0l-.11.15-.09.16h0l-.09.31-.03.32h0l.03.36.05.17.06.17h0l.08.13.09.12.12.09.13.08h0l.28.1.3.03h0l.27-.03.26-.08h0l.2-.09.18-.13zm3.43-2.1v2.75h-.41V8.15h-1.03v-.37h2.47v.37h-1.03zm-118.44.99h0l.18-.02.17-.04.16-.08.15-.1h0l.13-.15.11-.16.07-.18.05-.19.47.12h0l-.08.25-.11.23-.15.21-.18.19h0l-.22.13-.23.1-.24.05-.25.02h-.24l-.24-.05-.23-.08-.22-.11h0l-.17-.14-.15-.16-.12-.18-.1-.2h0l-.08-.23-.06-.23-.03-.24v-.24h-.01v-.25l.05-.25.07-.24.09-.23h0l.12-.19.14-.17.17-.14.18-.12h0l.21-.09.21-.07.22-.04.22-.02h0l.24.02.23.04.22.09.21.12h0l.17.16.15.18.11.2.08.22-.46.11h0l-.06-.16-.08-.15-.1-.13-.12-.12h0l-.14-.08-.14-.06-.15-.03h-.34l-.18.03-.17.07-.16.09h0l-.13.11-.11.12-.08.14-.07.15h0l-.08.34-.03.34h0l.03.4.1.39h0l.07.15.09.14.12.12.13.1h0l.29.13.31.04zm5.83-2.45v2.78h-.45V5.93h.48l1.86 2.78V5.93h.45v3.54h-.48l-1.86-2.78zm-3.25 1.72-.39 1.07h-.5l1.36-3.54h.51l1.45 3.54h-.53l-.41-1.07h-1.48zm117.43 1.54-.34.94h-.44l1.2-3.12h.44l1.28 3.12h-.47l-.36-.94h-1.3zm-3.5-2.17v3.12h-.41V7.78h.41zm-4.6 0v3.12h-.41V7.78h.41zm-37.32 2.47v-.58h-.92V9.3h1.32v1.15h0l-.3.21-.33.16h0l-.33.09-.34.03h-.22l-.21-.05-.2-.07-.2-.08h0l-.17-.11-.16-.13-.13-.16-.11-.17h0l-.08-.2-.06-.2-.03-.21v-.22h-.01v-.22l.05-.22.06-.21.08-.2h0l.1-.18.12-.16.15-.13.17-.12h0l.2-.08.2-.06.21-.03h.21l.31.01.3.08h0l.23.12.19.18h0l.14.24.09.27-.37.1h0l-.07-.2-.1-.18h0l-.13-.13-.16-.09h0l-.21-.06-.22-.02h0l-.25.02-.24.07h0l-.18.09-.15.13h0l-.11.15-.09.16h0l-.09.31-.03.32h0l.03.36.05.17.06.17h0l.08.13.09.12.12.09.13.08h0l.28.1.3.03h0l.27-.03.26-.08h0l.2-.09.18-.13zm49.82.28v.37h-1.95V7.78h.41v2.75h1.54zM143 9.95l-.34.94h-.44l1.2-3.12h.44l1.28 3.12h-.47l-.36-.94h-1.3zm-6.05 0-.34.94h-.44l1.2-3.12h.44l1.28 3.12h-.47l-.36-.94h-1.3zM168.1 5.5h0l.1-.18.07-.19.03-.2V2.92h.41v1.8h0l-.02.38-.09.37h0l-.07.13-.08.12-.11.1-.12.09h0l-.17.08-.18.06-.19.03h-.19l-.37-.02-.18-.05-.17-.07h0l-.13-.09-.11-.1-.09-.12-.07-.13h0l-.1-.38-.02-.4v-1.8h.41v1.8h0v.3l.08.3h0l.1.17.16.13h0l.22.08.23.02h.18l.17-.04.16-.07.15-.1zm-7.52-1.92v2.45h-.4V2.91h.42l1.64 2.45V2.91h.4v3.12h-.42l-1.64-2.45zm95.67 96.22h1.87l.02.22v.23l.01.23v.23l-.02.22-.02.22-.03.22-.04.22-.04.22-.05.22-.06.21-.07.21-.07.21-.08.21-.09.2-.09.2-.1.2-.11.19-.11.19-.12.19-.13.18-.13.18-.14.17-.15.17-.15.16-.16.16-.16.15-.17.15-.18.14-.18.14-.19.13-.19.12-.2.12-.2.11-.2.1-.2.09-.21.09-.21.08-.21.07-.21.06-.21.06-.21.05-.22.04-.22.03-.22.03-.21.02h-.21l-.21.01h-.21l-.21-.01-.21-.02-.22-.03-.22-.03-.22-.04-.21-.05-.21-.06-.21-.06-.21-.07-.21-.08-.21-.09-.2-.09-.2-.1-.2-.11-.2-.12-.19-.12-.19-.13-.18-.14-.18-.14-.17-.15-.16-.15-.16-.16-.15-.16-.15-.17-.14-.17-.13-.18-.13-.18-.12-.19-.11-.19-.11-.19-.1-.2-.09-.2-.09-.2-.08-.21-.07-.21-.07-.21-.06-.21-.05-.22-.04-.22-.04-.22-.03-.22-.02-.22v-.22l-.02-.23v-.23l.01-.23.02-.22h1.87l-.03.21-.02.22v.43l.02.21.03.21.03.21.04.2.05.2.06.2.07.19.08.19.09.19.1.18.11.18.11.17.12.17.13.16.14.16.14.15.15.14.16.14.16.13.17.12.18.11.18.11.19.1.19.09.2.08.2.07.21.06.21.05h.06v-3.74h1.85v3.74h.06l.21-.05.21-.06.2-.07.2-.08.19-.09.19-.1.18-.11.18-.11.17-.12.16-.13.16-.14.15-.14.14-.15.14-.16.13-.16.12-.17.11-.17.11-.18.1-.18.09-.19.08-.19.07-.19.06-.2.05-.2.04-.2.03-.21.03-.21.02-.21v-.43l-.02-.22-.03-.21zm.16-68.25h1.84v7.53h-1.84v-7.53zm-.16 79.16h1.87l.02.22v.23l.01.23v.23l-.02.22-.02.22-.03.22-.04.22-.04.22-.05.22-.06.21-.07.21-.07.21-.08.21-.09.2-.09.2-.1.2-.11.19-.11.19-.12.19-.13.18-.13.18-.14.17-.15.17-.15.16-.16.16-.16.15-.17.15-.18.14-.18.14-.19.13-.19.12-.2.12-.2.11-.2.1-.2.09-.21.09-.21.08-.21.07-.21.06-.21.06-.21.05-.22.04-.22.03-.22.03-.21.02h-.21l-.21.01h-.21l-.21-.01-.21-.02-.22-.03-.22-.03-.22-.04-.21-.05-.21-.06-.21-.06-.21-.07-.21-.08-.21-.09-.2-.09-.2-.1-.2-.11-.2-.12-.19-.12-.19-.13-.18-.14-.18-.14-.17-.15-.16-.15-.16-.16-.15-.16-.15-.17-.14-.17-.13-.18-.13-.18-.12-.19-.11-.19-.11-.19-.1-.2-.09-.2-.09-.2-.08-.21-.07-.21-.07-.21-.06-.21-.05-.22-.04-.22-.04-.22-.03-.22-.02-.22v-.22l-.02-.23v-.23l.01-.23.02-.22h1.87l-.02.16v.16l-.02.16v.48l.02.16.02.16.03.16.03.16.04.15.04.15.05.15.05.15.06.15.06.15.07.14.07.14.08.14.08.14.09.13.09.13.1.13.1.12.11.12.11.12.12.11.12.11.12.1.13.1.13.1.14.09.14.09.14.08.14.08.15.07.15.06.15.06.15.05.15.05.15.04.16.04.16.03.16.03.16.02h.16l.17.02h.51l.16-.02.16-.02.16-.03.16-.03.16-.04.15-.04.15-.05.15-.05.15-.06.15-.06.15-.07.14-.08.14-.08.14-.09.14-.09.13-.1.13-.1.12-.1.12-.11.12-.11.11-.12.11-.12.1-.12.1-.13.09-.13.09-.13.08-.14.08-.14.07-.14.07-.14.06-.15.06-.15.05-.15.05-.15.04-.15.04-.15.03-.16.03-.16.02-.16v-.16l.02-.16v-.48l-.02-.16-.02-.16zm-10.93-79.98h.34l2.01 1.98v-.03h.87v.6l3.38.3 2.47-2.35.16.17-1.7 1.62h.24l.14.04.13.07.11.09.09.11.07.13.04.14.02.15h0l-.03.2-.08.18-.12.15-.15.12v1.84h.36v.47h-.37l-.04.07-.07.03-1.25.11 2.63 2.6-.16.17-2.78-2.74-3.2.27-2.71 2.58h-.34l2.68-2.55-.83.07v.35h-.24v-.3h0l-.17-.07-.14-.12-.12-.16-.09-.17h-.17v-.44h.05l-.06-.35-.03-.36h-.08v-1.23h.11l.03-.35.09-.33h0l.06-.14.07-.14.09-.12.11-.11h0l-.06-.05-.04-.07-.03-.08V33h-.01l.03-.13.07-.11.11-.07.13-.03h0l.13.03.11.07.07.11.03.13h0v.08l-.04.08.42.04v-.16l-2.35-2.32zM57.69 26.14h0l-.03.29-.07.28-.06.13-.08.12-.18.23h0l-.27.18-.14.08-.15.06-.31.06-.33.02h0l-.35-.02-.17-.03-.16-.05-.15-.07-.15-.09-.28-.22h0l-.15-.22-.11-.23-.06-.25-.02-.26h0l.03-.29.07-.27.06-.13.08-.12.18-.23h0l.26-.18.13-.08.14-.06.3-.06.32-.02h.24l.24.03.23.06.23.08h0l.16.1.14.12.12.14.11.16h0l.08.18.06.18.03.19v.19zm0-3.31h0l-.03.29-.07.28-.06.13-.08.12-.18.23h0l-.27.18-.14.08-.15.06-.31.06-.33.02h0l-.35-.02-.17-.03-.16-.05-.15-.07-.15-.09-.28-.22h0l-.15-.22-.11-.23-.06-.25-.02-.26h0l.03-.29.07-.27.06-.13.08-.12.18-.23h0l.26-.18.13-.08.14-.06.3-.06.32-.02h.24l.24.03.23.06.23.08h0l.16.1.14.12.12.14.11.16h0l.08.18.06.18.03.19v.19zM45.1 25.8h0l-.04-.26-.12-.23h0l-.1-.11-.11-.09-.26-.13.07-.54h0l.21.08.2.1.17.14.16.16h0l.12.2.09.21.04.23.02.24h0l-.03.3-.07.28-.06.13-.08.12-.18.24h0l-.26.18-.14.08-.14.06-.31.06-.32.02h0l-.33-.02-.31-.06-.15-.06-.14-.08-.27-.18h0l-.19-.23-.08-.12-.06-.13-.07-.27-.03-.29h0l.03-.28.07-.27.06-.12.08-.12.18-.22h0l.27-.18.14-.07.15-.06.31-.06.32-.02h.14v2.3h0l.21-.02.2-.05.19-.09.18-.12h0l.11-.14.09-.15.05-.17.02-.18zm.43-3.12h0v.24l-.05.24-.08.22-.12.21h0l-.16.15-.17.12-.2.08-.21.05-.08-.52h0l.13-.03.13-.05.11-.07.1-.09h0l.08-.13.06-.13.03-.14v-.15h0l-.03-.28-.05-.13-.07-.12h0l-.15-.13-.09-.03-.1-.02h0l-.16.04-.12.11h0l-.1.26-.07.27h0l-.11.4-.14.39h0l-.12.19-.17.15h0l-.2.09-.21.03h0l-.2-.02-.18-.07h0l-.16-.11-.13-.15h0l-.09-.16-.06-.17h0l-.05-.22v-.23h-.01l.02-.32.08-.31h0l.11-.22.17-.18h0l.23-.12.25-.06.07.51h0l-.21.06-.17.14h0l-.06.11-.05.11-.03.25h0l.02.27.04.13.06.12h0l.12.11.16.04h0l.1-.02.09-.05h0l.08-.09.06-.11h0l.13-.46h0l.11-.39.13-.38h0l.11-.19.16-.15h0l.21-.1.23-.03h0l.26.04.23.11h0l.21.19.15.25h0l.1.32.03.33zm-.43-3.16h0l-.04-.26-.12-.23h0l-.1-.11-.11-.09-.26-.13.07-.54h0l.21.08.2.1.17.14.16.16h0l.12.2.09.21.04.23.02.24h0l-.03.3-.07.28-.06.13-.08.12-.18.24h0l-.26.18-.14.08-.14.06-.31.06-.32.02h0l-.33-.02-.31-.06-.15-.06-.14-.08-.27-.18h0l-.19-.23-.08-.12-.06-.13-.07-.27-.03-.29h0l.03-.28.07-.27.06-.12.08-.12.18-.22h0l.27-.18.14-.07.15-.06.31-.06.32-.02h.14v2.3h0l.21-.02.2-.05.19-.09.18-.12h0l.11-.14.09-.15.05-.17.02-.18zm-.12-2.74h0l.03-.09v-.09h0l-.02-.23.46-.08h0l.03.2v.2h.01l-.02.23-.07.21h0l-.1.13-.14.09h0l-.31.06h-2.08v.38h-.41v-.38h-.76l-.31-.52h1.08v-.52h.41v.52h1.95l.14-.03h0l.06-.04.04-.05zm-1.41 13.96h1.89v.56h-4.25v-1.89h0l.02-.44.09-.43h0l.07-.14.09-.13.11-.11.13-.09h0l.15-.08.16-.06.16-.03h.38l.2.05.18.1.17.13h0l.15.2.12.22.07.24.05.25h0l.09-.18.12-.16h0l.27-.25.3-.22 1.16-.74v.71l-.88.56h0l-.59.41h0l-.15.13-.13.15h0l-.07.12-.05.13h0l-.02.31v.65zm13.57-10.69h0l.03-.09v-.09h0l-.02-.23.46-.08h0l.03.2v.2h.01l-.02.23-.07.21h0l-.1.13-.14.09h0l-.31.06h-2.08v.38h-.41v-.38h-.76l-.31-.52h1.08v-.52h.41v.52h1.95l.14-.03h0l.06-.04.04-.05zm.41 8.95h0l.06.34v.35l.01 1.62h-4.25v-1.6h0l.03-.4.1-.38h0l.07-.14.09-.12.11-.11.12-.09h0l.27-.12.29-.04h0l.27.04.25.11h0l.23.2.16.25h0l.06-.17.08-.16.11-.14.13-.13h0l.15-.09.16-.07.17-.03h.17l.29.02.27.1h0l.22.13.18.18h0l.13.22.08.24z"/><path d="M53.27 35.56c0 1.17.95 2.13 2.13 2.13s2.13-.95 2.13-2.13h0c0-1.17-.95-2.13-2.13-2.13s-2.13.95-2.13 2.13zm-12.04 0c0 1.17.95 2.13 2.13 2.13s2.13-.95 2.13-2.13h0c0-1.17-.95-2.13-2.13-2.13s-2.13.95-2.13 2.13z" style="fill:#1d1d1b;stroke-linecap:round;stroke-linejoin:round;stroke:#1d1d1b;stroke-width:.25px"/><path class="cls-6" d="M5.79 70.99c0 4.7 3.8 8.51 8.5 8.51s8.51-3.8 8.51-8.5h0c0-4.71-3.8-8.52-8.5-8.52s-8.51 3.8-8.51 8.5h0zm255.12 0c0 4.7 3.8 8.51 8.5 8.51s8.51-3.8 8.51-8.5h0c0-4.71-3.8-8.52-8.5-8.52s-8.51 3.8-8.51 8.5h0z"/><path d="M175.02 12.31v-5.1h.57v5.1h39.4c.78 0 1.42.63 1.42 1.42h0v18.14c0 .78-.63 1.42-1.42 1.42h-99.78c-.78 0-1.42-.63-1.42-1.42h0V13.73c0-.78.63-1.42 1.42-1.42h59.81zM67.16 33.29c-.78 0-1.42-.63-1.42-1.42h0V13.73c0-.78.63-1.42 1.42-1.42h30.33c.78 0 1.42.63 1.42 1.42h0v18.14c0 .78-.63 1.42-1.42 1.42H67.16zm0 96.37c-.78 0-1.42-.63-1.42-1.42V110.1c0-.78.63-1.42 1.42-1.42h30.33c.78 0 1.42.63 1.42 1.42v18.14c0 .78-.63 1.42-1.42 1.42H67.16zm145.14-20.97c.78 0 1.42.63 1.42 1.42h0v18.14c0 .78-.63 1.42-1.42 1.42h-79.94c-.78 0-1.42-.63-1.42-1.42v-18.14c0-.78.63-1.42 1.42-1.42h79.94z" style="stroke:#000;stroke-linecap:round;stroke-linejoin:round;fill:none;stroke-width:.25px"/><path d="M174.31 49.16c0-.78.63-1.42 1.42-1.42h39.97c.78 0 1.42.63 1.42 1.42v43.65c0 .78-.63 1.42-1.42 1.42h-39.97c-.78 0-1.42-.63-1.42-1.42h0V49.16z" style="fill:#c2c3c0;stroke:#969696;stroke-linecap:round;stroke-linejoin:round;stroke-width:.25px"/><path d="M156.74 64.61h4.25c1.17 0 2.13-.95 2.13-2.13s-.95-2.13-2.13-2.13h-4.25c-1.17 0-2.13.95-2.13 2.13s.95 2.13 2.13 2.13z" style="fill:#fdc540;stroke-linecap:round;stroke-linejoin:round;stroke:#1d1d1b;stroke-width:.25px"/><path class="cls-7" d="M156.74 81.62h4.25c1.17 0 2.13-.95 2.13-2.13s-.95-2.13-2.13-2.13h-4.25c-1.17 0-2.13.95-2.13 2.13s.95 2.13 2.13 2.13z"/><path class="cls-6" d="M70.99.98C32.32.98.98 32.33.98 71c0 38.66 31.35 70.01 70.01 70.01h141.73c38.67 0 70.01-31.35 70.01-70.02 0-38.66-31.35-70.01-70.01-70.01H70.99z"/><path class="cls-6" d="M52.69 60.01c.35.68.53 1.44.53 2.21v17.54c0 .77-.18 1.52-.53 2.21a4.106 4.106 0 0 1-3.67 2.26H47.6c-1.55 0-2.97-.87-3.67-2.26-.35-.68-.53-1.44-.53-2.21V62.22c0-.77.18-1.52.53-2.21.7-1.39 2.12-2.26 3.67-2.26h1.42c1.55 0 2.97.87 3.67 2.26z"/><path class="cls-7" d="M68.87 81.62h4.25c1.17 0 2.13-.95 2.13-2.13s-.95-2.13-2.13-2.13h-4.25c-1.17 0-2.13.95-2.13 2.13s.95 2.13 2.13 2.13h0zm0-17.01h4.25c1.17 0 2.13-.95 2.13-2.13s-.95-2.13-2.13-2.13h-4.25c-1.17 0-2.13.95-2.13 2.13s.95 2.13 2.13 2.13h0z"/><path class="cls-6" d="M93.53 103.78h.42v2.64h-3.54v-2.56h.42v2.09h1.09v-1.96h.42v1.96h1.21v-2.18zm-10.23-.17h-.66v1.04h-.42v-1.5h1.31l.24.34.18.37h0l.1.37.04.38h0l-.02.25-.04.24-.07.23-.1.23h0l-.13.2-.15.18-.18.15-.2.13h0l-.23.09-.23.07-.24.04-.25.02h0l-.25-.02-.25-.04-.24-.07-.23-.09h0l-.2-.12-.18-.14-.15-.17-.13-.19h0l-.09-.22-.07-.23-.04-.24v-.24h-.01l.03-.35.1-.34h0l.14-.27.21-.22h0l.28-.16.3-.1.12.42h0l-.22.08-.2.12h0l-.15.15-.1.19h0l-.07.24-.02.25h0l.02.28.08.27h0l.11.2.15.17h0l.17.13.18.1h0l.35.1.36.03h0l.41-.03.2-.05.19-.07h0l.15-.09.13-.11.11-.13.09-.15h0l.12-.32.04-.34h0l-.03-.3-.09-.29h0l-.11-.23-.14-.21zm.67-6.58h0l.05.28v.29l.01 1.28h-3.54v-1.22h0v-.32l.05-.31h0l.1-.28.16-.24h0l.13-.13.14-.12.16-.09.17-.08h0l.41-.11.43-.03h0l.36.02.35.07h0l.27.1.25.14h0l.18.15.15.18h0l.11.2.07.22zm-9.92-2.33h0l.05.28v.29l.01 1.28h-3.54v-1.22h0v-.32l.05-.31h0l.1-.28.16-.24h0l.13-.13.14-.12.16-.09.17-.08h0l.41-.11.43-.03h0l.36.02.35.07h0l.27.1.25.14h0l.18.15.15.18h0l.11.2.07.22zm-3.48 5.85 3.54 1.39v.48l-3.54 1.37v-.51l2.57-.92h0l.58-.19h0l-.58-.19-2.57-.96v-.48z"/><path class="cls-1" d="m89.7 62.17-.76 3.01h-.69l-1.23-3.88h.68l.64 2.24.24.84.19-.81.6-2.29h.68l.61 2.25.2.74.22-.76.65-2.26h.64l-1.18 3.91h-.69l-.64-2.32-.16-.66z"/><path class="cls-6" d="M89.33 81.53h.17l.16-.05.15-.06.14-.08h0l.13-.13.11-.14.09-.16.07-.17.68.08h0l-.09.27-.12.25-.17.22-.2.2h0l-.26.15-.27.11-.29.06-.3.02h0l-.38-.03-.18-.03-.18-.05-.17-.08-.16-.1-.3-.23h0l-.23-.33-.1-.17-.07-.18-.05-.19-.03-.2-.03-.4h0l.02-.42.03-.2.05-.2.07-.19.09-.18.23-.35h0l.29-.24.15-.1.16-.08.17-.06.18-.04.37-.04h0l.36.03.17.03.17.05.16.08.15.1.28.23h0l.23.34.1.18.07.18.05.19.03.2.03.41h0v.18l-2.91.03h0l.03.27.06.26.12.23.16.22h0l.18.14.19.11.22.06.23.02zm3.18-1.62.02 2.04h-.66l-.04-3.89h.6v.59h0l.18-.3.24-.25h0l.2-.1.22-.04h0l.18.02.17.04.17.07.16.08-.22.62h0l-.23-.1-.25-.04h0l-.21.03-.18.1h0l-.15.16-.09.2h0l-.08.38-.02.39z"/><path class="cls-1" d="M94.6 64.67h.17l.16-.05.15-.06.14-.08.13-.13.11-.14.09-.16.07-.17.68.08-.09.27-.12.25-.17.22-.2.2-.26.15-.27.11-.29.06-.3.02-.38-.03-.18-.03-.18-.05-.17-.08-.16-.1-.3-.23-.23-.33-.1-.17-.07-.18-.05-.19-.03-.2-.03-.4.02-.42.03-.2.05-.2.07-.19.09-.18.23-.35.29-.24.15-.1.16-.08.17-.06.18-.04.37-.04.36.03.17.03.17.05.16.08.15.1.28.23.23.34.1.18.07.18.05.19.03.2.03.41v.18l-2.91.03.03.27.06.26.12.23.16.22.18.14.19.11.22.06.23.02z"/><path class="cls-6" d="M93.61 47.1h0l-.02-.18-.04-.17-.08-.16-.1-.15h0l-.15-.13-.16-.11-.18-.07-.19-.05.12-.47h0l.25.08.23.11.21.15.19.18h0l.13.22.1.23.05.24.02.25h0v.24l-.05.24-.08.23-.11.22h0l-.14.17-.16.15-.18.12-.2.1h0l-.23.08-.23.06-.24.03h-.49l-.25-.03-.24-.07-.23-.09h0l-.19-.12-.17-.14-.14-.17-.12-.18h0l-.09-.21-.07-.21-.04-.22-.02-.22h0l.02-.24.04-.23.09-.22.12-.21h0l.16-.17.18-.15.2-.11.22-.08.11.46h0l-.16.06-.15.08-.13.1-.12.12h0l-.08.14-.06.14-.03.15v.16h-.01v.18l.04.18.07.17.09.16h0l.11.13.12.11.14.08.15.07h0l.34.08.34.03h0l.4-.03.39-.1h0l.15-.07.14-.09.12-.12.1-.13h0l.13-.29.04-.31zm-2.44-5.83h2.78v.45h-3.54v-.48l2.78-1.86h-2.78v-.45h3.54v.48l-2.78 1.86zm-7.48 6.43h0l-.02-.18-.04-.17-.08-.16-.1-.15h0l-.15-.13-.16-.11-.18-.07-.19-.05.12-.47h0l.25.08.23.11.21.15.19.18h0l.13.22.1.23.05.24.02.25h0v.24l-.05.24-.08.23-.11.22h0l-.14.17-.16.15-.18.12-.2.1h0l-.23.08-.23.06-.24.03h-.49l-.25-.03-.24-.07-.23-.09h0l-.19-.12-.17-.14-.14-.17-.12-.18h0l-.09-.21-.07-.21-.04-.22-.02-.22h0l.02-.24.04-.23.09-.22.12-.21h0l.16-.17.18-.15.2-.11.22-.08.11.46h0l-.16.06-.15.08-.13.1-.12.12h0l-.08.14-.06.14-.03.15v.16h-.01v.18l.04.18.07.17.09.16h0l.11.13.12.11.14.08.15.07h0l.34.08.34.03h0l.4-.03.39-.1h0l.15-.07.14-.09.12-.12.1-.13h0l.13-.29.04-.31zm-2.44-5.83h2.78v.45h-3.54v-.48l2.78-1.86h-2.78v-.45h3.54v.48l-2.78 1.86zm-7.87 1.73h-.66v1.04h-.42v-1.5h1.31l.24.34.18.37h0l.1.37.04.38h0l-.02.25-.04.24-.07.23-.1.23h0l-.13.2-.15.18-.18.15-.2.13h0l-.23.09-.23.07-.24.04-.25.02h0l-.25-.02-.25-.04-.24-.07-.23-.09h0l-.2-.12-.18-.14-.15-.17-.13-.19h0l-.09-.22-.07-.23-.04-.24v-.24h-.01l.03-.35.1-.34h0l.14-.27.21-.22h0l.28-.16.3-.1.12.42h0l-.22.08-.2.12h0l-.15.15-.1.19h0l-.07.24-.02.25h0l.02.28.08.27h0l.11.2.15.17h0l.17.13.18.1h0l.35.1.36.03h0l.41-.03.2-.05.19-.07h0l.15-.09.13-.11.11-.13.09-.15h0l.12-.32.04-.34h0l-.03-.3-.09-.29h0l-.11-.23-.14-.21zm.67-6.58h0l.05.28v.29l.01 1.28h-3.54v-1.22h0v-.32l.05-.31h0l.1-.28.16-.24h0l.13-.13.14-.12.16-.09.17-.08h0l.41-.11.43-.03h0l.36.02.35.07h0l.27.1.25.14h0l.18.15.15.18h0l.11.2.07.22zM71.32 42h2.78v.45h-3.54v-.48l2.78-1.86h-2.78v-.45h3.54v.48L71.32 42zm11.64 3.11 1.07.39v.5l-3.54-1.36v-.51l3.54-1.45v.53l-1.07.41v1.48zm-.6-6.86h1.67v.47h-3.54v-.47h1.46v-1.84h-1.46v-.47h3.54v.47h-1.67v1.84zm10.52 6.27 1.07.39v.5l-3.54-1.36v-.51l3.54-1.45v.53l-1.07.41v1.48zm.65-8.58h.42v2.21h-3.54v-.47h3.13v-1.75z"/><path class="cls-1" d="m84.93 65.31-.37-.03-.18-.03-.17-.05-.16-.08-.15-.1-.29-.23-.23-.34-.1-.18-.08-.18-.05-.19-.03-.2-.03-.41.03-.45.03-.22.06-.21.09-.2.11-.19.27-.35.28-.19.14-.08.15-.06.32-.08.33-.03.37.03.18.03.17.05.16.08.15.1.29.22.23.32.1.17.08.18.05.19.03.19.03.4v.31l-.04.3-.07.29-.1.29-.13.2-.15.18-.18.15-.2.14-.22.1-.23.08-.24.04-.25.02z"/><path class="cls-6" d="M85.33 82.12h-.31l-.3-.06-.28-.1-.27-.14h0l-.19-.2-.16-.22-.1-.25-.07-.27.65-.11h0l.04.17.06.16.1.14.12.13h0l.16.09.17.07.18.03h.37l.17-.03.16-.06.16-.09h0l.09-.09.07-.1.04-.12.02-.13h0l-.02-.11-.03-.1-.06-.08-.08-.07h0l-.33-.13-.35-.09h0l-.51-.13-.5-.18h0l-.24-.15-.19-.22h0l-.11-.25-.04-.27h0l.03-.25.09-.23h0l.14-.2.18-.17h0l.2-.12.22-.08h0l.28-.06.29-.02h0l.41.03.4.1h0l.28.14.12.1.11.11h0l.15.29.08.31-.65.09h0l-.03-.13-.05-.13-.08-.11-.1-.1h0l-.14-.08-.15-.06-.15-.02h-.33l-.17.02-.16.05-.15.08h0l-.08.07-.06.08-.03.1-.02.1h0l.02.12.06.11h0l.12.1.14.07h0l.59.16h0l.5.13.49.16h0l.24.14.19.2h0l.07.13.05.14.04.3h0V81l-.05.16-.06.15-.08.15h0l-.11.14-.13.13-.15.1-.16.09h0l-.2.07-.2.06-.42.04zm-3.56-.96h0l.17-.32.07-.16.05-.17.04-.35v-.36l-.03-3.11h.71l.03 3.1h0v.33l-.03.33-.06.32-.08.32h0l-.12.23-.14.21-.18.18-.21.16h0l-.3.14-.31.1-.32.05-.33.02h-.32l-.32-.05-.31-.08-.3-.12h0l-.22-.14-.19-.17-.15-.21-.13-.23h0l-.1-.33-.07-.33-.03-.34v-.34l-.04-3.11h.71l.03 3.1h0l.03.52.05.26.07.25h0l.08.15.1.14.13.11.14.1h0l.19.08.19.06.2.03h.51l.29-.05.14-.05.13-.07.25-.17z"/><path class="cls-1" d="m97.78 63.05.02 2.04h-.66l-.04-3.89h.6v.59l.18-.3.24-.25.2-.1.22-.04.18.02.17.04.17.07.16.08-.22.62-.23-.1-.25-.04-.21.03-.18.1-.15.16-.09.2-.08.38-.02.39zm-18.68.04.02 2.19h-.71l-.05-5.38 2.03-.02h.41l.41.04.35.09.32.16.13.11.12.12.19.29.13.36.04.38-.03.32-.07.3-.06.14-.08.14-.18.26-.35.24-.18.1-.19.07-.2.04-.21.03-.43.02h-1.38z"/><path class="cls-6" d="M74.05 98.28h0l.05.28v.29l.01 1.28h-3.54v-1.22h0v-.32l.05-.31h0l.1-.28.16-.24h0l.13-.13.14-.12.16-.09.17-.08h0l.41-.11.43-.03h0l.36.02.35.07h0l.27.1.25.14h0l.18.15.15.18h0l.11.2.07.22zm-1.49 6.77h.97v.41h-.97v.96h-.41v-.96h-.96v-.41h.96v-.96h.41v.96zm8.69-3.04h2.78v.45h-3.54v-.48l2.78-1.86h-2.78v-.45h3.54v.48l-2.78 1.86zm9.58-.25h3.13v.47h-3.13v1.17h-.42v-2.81h.42v1.17zM40.14 74.19h0l-.25-.13-.26-.09-.28-.03h-2.74v-.56h2.46l.52.03.25.05.25.07h0l.18.1.17.12.14.15.12.17h0l.11.24.08.24.04.25v.26h.01v.25l-.04.25-.07.24-.09.23h0l-.12.17-.13.15-.16.12-.18.1h0l-.26.08-.26.06-.27.02h-2.73v-.56h2.45l.41-.02.4-.09h0l.12-.06.11-.08.09-.1.08-.11h0l.11-.3.03-.32h0v-.24l-.05-.23-.1-.21-.13-.2zm.62-2.42h0l-.1.18-.11.16-.14.14-.16.13h0l-.18.1-.19.08-.2.04-.2.02-.05-.53h0l.27-.06.25-.12h0l.2-.19.13-.24h0l.1-.32.03-.33h0l-.02-.29-.07-.28h0l-.1-.2-.16-.16h0l-.17-.09-.19-.03h0l-.18.03-.16.09h0l-.15.17-.1.21h0l-.11.38-.09.38h0l-.11.42-.16.4h0l-.17.25-.23.2h0l-.25.11-.28.04h-.16l-.15-.05-.15-.06-.14-.08h0l-.13-.11-.12-.12-.09-.14-.08-.16h0l-.11-.38-.03-.4h0l.03-.42.12-.41h0l.08-.16.1-.15.12-.13.14-.12h0l.16-.08.16-.07.17-.04.18-.02.04.54h0l-.17.03-.16.05-.14.09-.13.12h0l-.1.17-.07.18-.03.19v.2h0v.2l.03.19.06.18.09.17h0l.09.1.1.08.12.04.13.02h.11l.1-.04.09-.05.08-.07h0l.11-.2.09-.21.11-.44h0l.12-.48.16-.46h0l.18-.3.12-.13.13-.12h0l.14-.08.15-.06.16-.03h.33l.16.03.16.06.15.08h0l.14.12.13.13.1.15.09.16h0l.07.2.06.2.04.42h0v.25l-.04.24-.06.24-.08.24zm.03-5.59h0l.06.34v.35l.01 1.62h-4.25v-1.6h0l.03-.4.1-.38h0l.07-.14.09-.12.11-.11.12-.09h0l.27-.12.29-.04h0l.27.04.25.11h0l.23.2.16.25h0l.06-.17.08-.16.11-.14.13-.13h0l.15-.09.16-.07.17-.03h.17l.29.02.27.1h0l.22.13.18.18h0l.13.22.08.24zM229.32 98.1h0l-.02-.22-.05-.21-.1-.2-.13-.18h0l-.21-.17-.23-.14-.25-.1-.26-.07.37-1.15h0l.41.14.2.08.19.1.17.12.16.14.31.3h0l.21.36.09.19.07.19.05.2.03.2.03.42h0l-.06.54-.05.26-.08.25-.12.23-.15.22-.34.42h0l-.49.34-.26.14-.27.11-.28.07-.29.05-.6.04h0l-.62-.04-.3-.04-.29-.07-.28-.11-.27-.14-.52-.34h0l-.35-.44-.15-.23-.12-.24-.08-.26-.05-.27-.06-.56h0l.04-.48.04-.23.06-.23.09-.21.12-.2.28-.39h0l.24-.2.26-.17.28-.13.3-.1.28 1.18h0l-.21.07-.19.09-.17.13-.15.15h0l-.12.19-.09.19-.04.21-.02.22h0l.03.3.03.15.05.14.07.13.09.12.2.23h0l.35.2.18.08.19.06.19.04.2.02h.83l.21-.02.2-.04.2-.06.19-.08.37-.2h0l.2-.22.09-.12.07-.13.05-.14.03-.14.04-.3zm-2.93-11h3.84v1.1h-5.89v-1.16l3.93-2.41h-3.93v-1.1h5.89v1.19l-3.84 2.37zm1.39-11.04h2.46v1.19h-5.89v-2.5h0v-.35l.02-.35.05-.34.08-.34h0l.1-.2.12-.19.16-.16.18-.14h0l.22-.11.23-.08.24-.04.24-.02h0l.3.03.29.06.26.13.25.17h0l.21.26.09.13.08.14.1.31.07.32h0l.22-.34.27-.3h0l.46-.36.49-.32 1.15-.72v1.42l-1.28.86h0l-.44.3-.42.33h0l-.14.16-.1.19h0l-.06.3v.3l-.01.24zm1.46-15.33h.99v4.15h-5.84v-1.19h4.85v-2.96zm10.02 2.9h0l-.15.24-.17.22-.21.18-.24.16h0l-.3.12-.31.09-.32.04-.32.02h0l-.28-.02-.28-.05-.27-.09-.26-.12h0l-.24-.15-.22-.18-.18-.22-.16-.24h0l-.12-.27-.09-.28-.05-.29-.02-.3h0l.04-.44.04-.21.06-.2.09-.19.12-.18.27-.35h0l.35-.27.18-.11.19-.09.2-.06.21-.04.44-.04h0l.45.04.22.04.21.06.2.09.19.12.36.27h0l.27.35.12.18.09.19.07.2.04.21.05.44h0l-.02.29-.05.28-.09.27-.11.27zm-12.87-12.18h3.84v1.1h-5.89v-1.16l3.93-2.41h-3.93v-1.1h5.89v1.19l-3.84 2.37zm8.4 28.83h4.64v1.1h-5.89V79.6l4.02-1.07-4.02-1.06v-1.78h5.89v1.1h-4.64l4.64 1.17v1.15l-4.64 1.17zm.37-6.89h4.27v1.13h-4.27v-1.13zm1.52-6.91h0l.36.05.36.03h2.04v1.13h-4.27v-1.05h.61l-.31-.21-.13-.13-.12-.14h0l-.1-.23-.03-.25h0l.02-.2.04-.19.07-.18.09-.18.98.35h0l-.13.25-.05.28h0l.03.21.1.19h0l.1.09.11.07.26.09zm-15.31-54.31h.57v117.64h-.57V12.17zm13.69 58.24h0l.02-.33.05-.32.11-.3.15-.29h0l.22-.22.24-.19.27-.14.29-.11.2 1.11h0l-.14.03-.13.05-.12.08-.11.1h0l-.07.12-.06.12-.03.13v.14h-.01l.02.19.05.18.1.16.13.14h0l.23.12.24.09.25.03h.54l.28-.03.26-.09.25-.13h0l.13-.15.1-.16.05-.18.02-.2h0v-.14l-.04-.14-.06-.13-.08-.12h0l-.14-.11-.15-.09-.17-.06-.17-.04.19-1.11h0l.33.1.31.13.14.09.13.11.25.24h0l.18.3.07.16.06.16.06.34.02.35h0l-.04.42-.04.2-.06.19-.09.18-.11.17-.26.33h0l-.37.25-.19.11-.2.08-.21.05-.22.03-.45.03h0l-.45-.03-.22-.03-.21-.05-.2-.08-.19-.11-.37-.25h0l-.26-.33-.11-.17-.09-.18-.06-.19-.04-.2-.04-.42zm-1.52 2.98h1.04v1.13h-1.04v-1.13zM230.34 44h0l-.05.58-.05.28-.08.27-.12.25-.15.24-.35.46h0l-.5.35-.26.15-.27.11-.28.08-.29.05-.61.05h-.39l-.38-.06-.37-.09-.37-.12h0l-.43-.24-.38-.31h0l-.16-.17-.14-.18-.12-.2-.11-.21h0l-.1-.31-.08-.31-.04-.32v-.33h-.01l.05-.58.05-.28.08-.27.12-.25.15-.24.35-.46h0l.5-.35.26-.15.27-.11.29-.08.3-.05.62-.04h0l.61.04.3.05.29.08.27.11.26.15.5.35h0l.35.46.15.24.12.25.08.27.05.28.05.58zm-5.99 9.7h5.89v1.19h-5.89V53.7zm4.89 2h.99v4.15h-5.84v-1.19h4.85V55.7zm1.1 12.98h0l-.05.58-.05.28-.08.27-.12.25-.15.24-.35.46h0l-.5.35-.26.15-.27.11-.28.08-.29.05-.61.05h-.39l-.38-.06-.37-.09-.37-.12h0l-.43-.24-.38-.31h0l-.16-.17-.14-.18-.12-.2-.11-.21h0l-.1-.31-.08-.31-.04-.32v-.33h-.01l.05-.58.05-.28.08-.27.12-.25.15-.24.35-.46h0l.5-.35.26-.15.27-.11.29-.08.3-.05.62-.04h0l.61.04.3.05.29.08.27.11.26.15.5.35h0l.35.46.15.24.12.25.08.27.05.28.05.58zm-5 11.08h4.89v1.19h-4.89v1.75h-1v-4.68h1v1.74zm5 12.23h0l-.05.58-.05.28-.08.27-.12.25-.15.24-.35.46h0l-.5.35-.26.15-.27.11-.28.08-.29.05-.61.05h-.39l-.38-.06-.37-.09-.37-.12h0l-.43-.24-.38-.31h0l-.16-.17-.14-.18-.12-.2-.11-.21h0l-.1-.31-.08-.31-.04-.32v-.33h-.01l.05-.58.05-.28.08-.27.12-.25.15-.24.35-.46h0l.5-.35.26-.15.27-.11.29-.08.3-.05.62-.04h0l.61.04.3.05.29.08.27.11.26.15.5.35h0l.35.46.15.24.12.25.08.27.05.28.05.58zm-67.22 43.87h0l-.18-.13-.16-.15-.13-.18-.12-.19h0l-.09-.21-.07-.22-.03-.22-.02-.23h0l.03-.38.03-.18.05-.18.07-.17.09-.16.21-.31h0l.27-.22.14-.09.15-.07.16-.05.17-.03.34-.04h0l.23.02.23.04.22.08.21.1h0l.18.13.17.15.13.18.12.19h0l.09.23.07.23.03.24v.25h.01v.25l-.05.25-.07.24-.09.23h0l-.12.19-.14.18-.17.15-.19.13h0l-.21.09-.21.07-.22.04-.22.02h0l-.24-.02-.23-.04-.22-.08-.21-.1zm8.14-2.94v3.13h-.47v-3.13h-1.17v-.42h2.81v.42h-1.17zm2.12 1.69v1.44h-.47v-3.54h1.61l.27.03h0l.23.06.21.11h0l.16.15.12.19h0l.08.24.03.25h0l-.02.21-.05.2-.09.18-.12.17h0l-.23.15-.12.06-.13.04-.27.04h-1.19zM69.69 136.1h-.18l-.18-.05-.16-.08-.15-.1h0l-.12-.14-.1-.15-.06-.17-.04-.18.42-.04h0l.07.23.14.2h0l.18.1.2.03h0l.18-.02.17-.07h0l.14-.11.11-.14h0l.1-.2.07-.21h0l.05-.26.02-.27h0v-.09h0l-.16.19-.2.15h0l-.24.1-.25.03h0l-.21-.02-.2-.05-.18-.1-.16-.13h0l-.13-.19-.1-.2-.05-.22-.02-.23h0l.02-.24.05-.23.11-.21.14-.19h0l.17-.14.19-.11.21-.06.22-.02h.17l.16.05.15.06.15.08h0l.14.11.12.12.1.14.08.16h0l.07.24.05.25.03.51h0l-.03.55-.05.27-.07.27h0l-.08.18-.09.16-.12.14-.14.13h0l-.16.09-.17.07-.18.04h-.18zm7.66-1.56v.44h-1.34v-.44h1.34zm17.16 1.16h0l.18-.02.17-.04.16-.08.15-.1h0l.13-.15.11-.16.07-.18.05-.19.47.12h0l-.08.25-.11.23-.15.21-.18.19h0l-.22.13-.23.1-.24.05-.25.02h-.24l-.24-.05-.23-.08-.22-.11h0l-.17-.14-.15-.16-.12-.18-.1-.2h0l-.08-.23-.06-.23-.03-.24v-.24h-.01v-.25l.05-.25.07-.24.09-.23h0l.12-.19.14-.17.17-.14.18-.12h0l.21-.09.21-.07.22-.04.22-.02h0l.24.02.23.04.22.09.21.12h0l.17.16.15.18.11.2.08.22-.46.11h0l-.06-.16-.08-.15-.1-.13-.12-.12h0l-.14-.08-.14-.06-.15-.03h-.34l-.18.03-.17.07-.16.09h0l-.13.11-.11.12-.08.14-.07.15h0l-.08.34-.03.34h0l.03.4.1.39h0l.07.15.09.14.12.12.13.1h0l.29.13.31.04zm-6.86-3.2-1.39 3.54h-.48l-1.37-3.54h.51l.92 2.57h0l.19.58h0l.19-.58.96-2.57h.48zm3.64 3.48h0l-.28.05h-.29l-1.28.01v-3.54h1.54l.31.05h0l.28.1.24.16h0l.13.13.12.14.09.16.08.17h0l.11.41.03.43h0l-.02.36-.07.35h0l-.1.27-.14.25h0l-.15.18-.18.15h0l-.2.11-.22.07zm-8.2-3.5h0l.19.02.18.04.16.08.16.1h0l.12.14.1.15.06.17.04.18-.43.03h0l-.06-.2-.11-.18h0l-.09-.08-.1-.06-.12-.03h-.12l-.19.01-.17.09h0l-.19.2-.13.24h0l-.1.4-.02.42h0l.17-.2.22-.15h0l.23-.09.25-.03h0l.21.03.2.06.17.1.16.13h0l.13.19.1.2.05.22.02.23h0l-.04.32-.11.3h0l-.17.25-.23.19h0l-.27.12-.3.04h0l-.25-.03-.24-.07-.21-.13-.19-.17h0l-.17-.31-.07-.16-.05-.16-.05-.34v-.35h-.01v-.4l.07-.38.05-.18.07-.18.18-.35h0l.19-.17.21-.13.24-.07.26-.03zm-2.88 3.63h0l-.21-.02-.2-.05-.19-.09-.17-.12h0l-.14-.16-.11-.17-.07-.19-.04-.2.44-.06h0l.09.29.08.13.09.12h0l.1.07.1.05.24.04h0l.14-.02.14-.04.12-.07.11-.09h0l.09-.12.07-.12.04-.14.02-.15h0v-.14l-.05-.13-.06-.12-.08-.11h0l-.11-.08-.12-.06-.13-.03h-.29l-.15.03.05-.38h.07l.26-.03.24-.11h0l.1-.09.07-.1.04-.12v-.13h.01l-.04-.22-.05-.09-.07-.09h0l-.09-.07-.1-.05-.23-.04h0l-.23.04-.1.05-.09.07h0l-.08.11-.07.11-.07.26-.44-.08h0l.05-.19.07-.18.11-.16.13-.15h0l.16-.1.17-.08.18-.04.19-.02h0l.27.03.26.09h0l.21.14.16.2h0l.1.22.03.24h0l-.03.22-.09.2h0l-.16.18-.2.12h0l.14.05.13.06.11.09.1.11h0l.08.13.06.14.03.15v.15h.01l-.03.22-.06.21-.11.19-.14.17h0l-.19.14-.2.11-.22.05-.24.02zm-5.77-3.61-1.39 3.54h-.48l-1.37-3.54h.51l.92 2.57h0l.19.58h0l.19-.58.96-2.57h.48zm103.88 2.95h0l.11-.21.08-.22.03-.23v-2.28h.47v2.05h0l-.02.43-.1.42h0l-.08.15-.1.14-.12.12-.14.1h0l-.2.09-.2.07-.21.03h-.43l-.21-.03-.2-.06-.2-.08h0l-.14-.1-.13-.11-.1-.14-.08-.15h0l-.06-.22-.05-.22-.03-.45v-2.05h.47v2.04h0v.34l.09.34h0l.12.19.18.14h0l.25.09.26.03h.2l.19-.04.18-.08.17-.11zm2.84-2.53v3.13h-.47v-3.13h-1.17v-.42h2.81v.42h-1.17zm-12.74 2.53h0l.11-.21.08-.22.03-.23v-2.28h.47v2.05h0l-.02.43-.1.42h0l-.08.15-.1.14-.12.12-.14.1h0l-.2.09-.2.07-.21.03h-.43l-.21-.03-.2-.06-.2-.08h0l-.14-.1-.13-.11-.1-.14-.08-.15h0l-.06-.22-.05-.22-.03-.45v-2.05h.47v2.04h0v.34l.09.34h0l.12.19.18.14h0l.25.09.26.03h.2l.19-.04.18-.08.17-.11zm42.94-94.08h0l.05.28v.29l.01 1.28h-3.54V42h0v-.32l.05-.31h0l.1-.28.16-.24h0l.13-.13.14-.12.16-.09.17-.08h0l.41-.11.43-.03h0l.36.02.35.07h0l.27.1.25.14h0l.18.15.15.18h0l.11.2.07.22zm-3.48-2.27h3.54v.47h-3.54v-.47zm-7.04-1.42h0l.24.18v-1.74h.42v2.34h-.15l-.15-.05h0l-.25-.12-.22-.16h0l-.28-.27-.26-.3h0l-.35-.41-.4-.37h0l-.25-.14-.14-.04-.14-.02h-.12l-.12.05-.1.06-.1.08h0l-.08.11-.06.12-.03.13v.13h-.01v.14l.04.13.06.12.08.11h0l.12.08.12.06.14.03h.14l-.05.46h0l-.21-.04-.2-.06-.18-.11-.17-.14h0l-.12-.18-.09-.19-.04-.21-.02-.22h0l.02-.22.05-.21.09-.19.13-.18h0l.15-.13.17-.1.19-.05.2-.02h0l.21.02.2.06h0l.23.13.2.16h0l.32.33.3.35h0l.45.5zm-9.32 3.01h0l.05.28v.29l.01 1.28h-3.54v-1.22h0V41l.05-.31h0l.1-.28.16-.24h0l.13-.13.14-.12.16-.09.17-.08h0l.41-.11.43-.03h0l.36.02.35.07h0l.27.1.25.14h0l.18.15.15.18h0l.11.2.07.22zm-3.49-2.28h3.54v.47h-3.54v-.47zm-6.31-1.13h0l-.03.23-.06.22-.12.19-.16.17h0l-.34.17-.17.07-.18.05-.37.05h-.38l-.51-.01-.5-.1h0l-.17-.07-.16-.08-.14-.11-.13-.13h0l-.09-.15-.07-.15-.03-.17v-.17h-.01l.03-.26.09-.24h0l.14-.2.19-.16h0l.25-.13.27-.09h0l.42-.06h.93l.5.1h0l.17.07.16.08.14.11.13.13h0l.09.15.07.16.03.17v.17zm-11.06 5.2 1.07.39v.5l-3.54-1.36v-.51l3.54-1.45v.53l-1.07.41v1.48zm-2.47-3.36h3.54v.47h-3.54v-.47zm-7.23-2.52h.85v.44h-.85v1.54h-.4l-2.3-1.62v-.36h2.3v-.48h.4v.48zm-10.14 5.85 1.07.39v.5l-3.54-1.36v-.51l3.54-1.45v.53l-1.07.41v1.48zm-2.47-3.35h3.54v.47h-3.54v-.47zm-7.03-1.42h0l.24.18v-1.74h.42v2.34h-.15l-.15-.05h0l-.25-.12-.22-.16h0l-.28-.27-.26-.3h0l-.35-.41-.4-.37h0l-.25-.14-.14-.04-.14-.02h-.12l-.12.05-.1.06-.1.08h0l-.08.11-.06.12-.03.13v.13h-.01v.14l.04.13.06.12.08.11h0l.12.08.12.06.14.03h.14l-.05.46h0l-.21-.04-.2-.06-.18-.11-.17-.14h0l-.12-.18-.09-.19-.04-.21-.02-.22h0l.02-.22.05-.21.09-.19.13-.18h0l.15-.13.17-.1.19-.05.2-.02h0l.21.02.2.06h0l.23.13.2.16h0l.32.33.3.35h0l.45.5zm-10.34 4.09 1.07.39v.5l-3.54-1.36v-.51l3.54-1.45v.53l-1.07.41v1.48zm-2.47-3.36h3.54v.47h-3.54v-.47zm-6.32-1.13h0l-.03.23-.06.22-.12.19-.16.17h0l-.34.17-.17.07-.18.05-.37.05h-.38l-.51-.01-.5-.1h0l-.17-.07-.16-.08-.14-.11-.13-.13h0l-.09-.15-.07-.15-.03-.17v-.17h-.01l.03-.26.09-.24h0l.14-.2.19-.16h0l.25-.13.27-.09h0l.42-.06h.93l.5.1h0l.17.07.16.08.14.11.13.13h0l.09.15.07.16.03.17v.17zm-3.61 1.81h3.54v.47h-3.54v-.47zm2.47 3.35 1.07.39v.5l-3.54-1.36v-.51l3.54-1.45v.53l-1.07.41v1.48zm7.44-6.03v-.28h3.56v.44h-2.77l.16.2.14.21h0l.12.22.1.23h-.42l-.18-.33-.23-.3h0l-.22-.22-.25-.17zm9.94 2.65h3.54v.47h-3.54v-.47zm2.47 3.35 1.07.39v.5l-3.54-1.36v-.51l3.54-1.45v.53l-1.07.41v1.48zm11.05-5.09h0l-.02.21-.05.2-.09.19-.12.17h0l-.16.14-.17.11-.19.07-.2.04-.06-.44h0l.29-.09.13-.08.12-.09h0l.07-.1.05-.1.04-.24h0l-.02-.14-.04-.14-.07-.12-.09-.11h0l-.12-.09-.12-.07-.14-.04-.15-.02h-.14l-.13.05-.12.06-.11.08h0l-.08.11-.06.12-.03.13v.14h-.01v.15l.05.15-.38-.05h0v-.07h0l-.04-.26-.11-.24h0l-.09-.1-.1-.07-.12-.04h-.13l-.22.02-.09.05-.09.07h0l-.07.09-.05.1-.04.23h0l.04.23.05.1.07.09h0l.11.08.11.07.26.07-.08.44h0l-.19-.05-.18-.07-.16-.11-.15-.13h0l-.1-.16-.08-.17-.04-.18-.02-.19h0l.03-.27.09-.26h0l.14-.21.2-.16h0l.22-.1.24-.03h0l.22.03.2.09h0l.18.16.12.2h0l.05-.14.06-.13.09-.11.11-.1h0l.13-.08.14-.06.15-.03h.15l.22.02.21.06.19.11.17.14h0l.14.19.11.2.05.22.02.24zm6.32 1.76h3.54v.47h-3.54v-.47zm2.47 3.36 1.07.39v.5l-3.54-1.36v-.51l3.54-1.45v.53l-1.07.41v1.48zm11.05-5.1h0l-.02.22-.04.21-.09.19-.12.18h0l-.16.14-.17.11-.19.07-.2.04-.04-.46h0l.27-.07.12-.07.11-.09h0l.07-.1.06-.11.03-.12v-.12h.01l-.02-.15-.04-.14-.08-.12-.1-.12h0l-.14-.1-.15-.07-.16-.03h-.33l-.15.03-.14.07-.13.09h0l-.09.12-.07.13-.04.14v.15h-.01l.02.2.07.18h0l.11.15.14.12-.05.41-1.82-.34v-1.76h.42v1.41l.95.19h0l-.09-.16-.07-.16-.04-.17-.02-.18h0l.02-.22.05-.21.11-.19.14-.17h0l.18-.14.2-.11.22-.05.23-.02h0l.22.02.22.05.2.09.19.12h0l.19.2.08.1.06.11.04.12.03.13.03.27zm6.32 1.75h3.54v.47h-3.54v-.47zm3.49 2.27h0l.05.28v.29l.01 1.28h-3.54v-1.22h0v-.32l.05-.31h0l.1-.28.16-.24h0l.13-.13.14-.12.16-.09.17-.08h0l.41-.11.43-.03h0l.36.02.35.07h0l.27.1.25.14h0l.18.15.15.18h0l.11.2.07.22zm6.42-4.95v-.28h3.56v.44h-2.77l.16.2.14.21h0l.12.22.1.23h-.42l-.18-.33-.23-.3h0l-.22-.22-.25-.17zm9.93 2.65h3.54v.47h-3.54v-.47zm3.49 2.28h0l.05.28v.29l.01 1.28h-3.54v-1.22h0v-.32l.05-.31h0l.1-.28.16-.24h0l.13-.13.14-.12.16-.09.17-.08h0l.41-.11.43-.03h0l.36.02.35.07h0l.27.1.25.14h0l.18.15.15.18h0l.11.2.07.22zm10.04-4.02h0l-.02.21-.05.2-.09.19-.12.17h0l-.16.14-.17.11-.19.07-.2.04-.06-.44h0l.29-.09.13-.08.12-.09h0l.07-.1.05-.1.04-.24h0l-.02-.14-.04-.14-.07-.12-.09-.11h0l-.12-.09-.12-.07-.14-.04-.15-.02h-.14l-.13.05-.12.06-.11.08h0l-.08.11-.06.12-.03.13v.14h-.01v.15l.05.15-.38-.05h0v-.07h0l-.04-.26-.11-.24h0l-.09-.1-.1-.07-.12-.04h-.13l-.22.02-.09.05-.09.07h0l-.07.09-.05.1-.04.23h0l.04.23.05.1.07.09h0l.11.08.11.07.26.07-.08.44h0l-.19-.05-.18-.07-.16-.11-.15-.13h0l-.1-.16-.08-.17-.04-.18-.02-.19h0l.03-.27.09-.26h0l.14-.21.2-.16h0l.22-.1.24-.03h0l.22.03.2.09h0l.18.16.12.2h0l.05-.14.06-.13.09-.11.11-.1h0l.13-.08.14-.06.15-.03h.15l.22.02.21.06.19.11.17.14h0l.14.19.11.2.05.22.02.24z"/><path class="cls-6" d="M37.11 67.07v.85h1.28V67h0v-.27l-.05-.27h0l-.08-.18-.13-.14h0l-.18-.08-.19-.02h0l-.19.02-.18.08h0l-.14.12-.08.17h0l-.05.32v.33zm1.79-.13v.98h1.46v-1.06h0l-.02-.38h0l-.04-.17-.07-.16h0l-.1-.12-.13-.09h0l-.17-.06-.18-.02h0l-.22.03-.2.09h0l-.15.15-.1.19h0l-.06.31v.31zm2.78-37.54v1.35h1.41v-1.21h0v-.31l-.08-.3h0l-.1-.19-.16-.14h0l-.18-.08-.2-.03h0l-.14.02-.13.04-.12.07-.11.09h0l-.09.16-.07.17-.03.18v.19zm1.06-3.58h0l.02.17.04.16.08.14.1.13h0l.14.11.15.09.17.05.18.03v-1.72h0l-.31.06-.14.06-.13.08h0l-.13.14-.1.15-.05.17-.02.19zm0-6.27h0l.02.17.04.16.08.14.1.13h0l.14.11.15.09.17.05.18.03v-1.72h0l-.31.06-.14.06-.13.08h0l-.13.14-.1.15-.05.17-.02.19zm11.13 10.34v.85h1.28v-.92h0v-.27l-.05-.27h0l-.08-.18-.13-.14h0l-.18-.08-.19-.02h0l-.19.02-.18.08h0l-.14.12-.08.17h0l-.05.32v.33zm1.79-.13v.98h1.46v-1.06h0l-.02-.38h0l-.04-.17-.07-.16h0l-.1-.12-.13-.09h0l-.17-.06-.18-.02h0l-.22.03-.2.09h0l-.15.15-.1.19h0l-.06.31v.31zm-.76-3.62h0l.02.19.05.17.1.15.12.14h0l.2.12.21.09.23.04h.48l.23-.04.21-.09.2-.12h0l.12-.14.1-.15.05-.17.02-.19h0l-.02-.18-.05-.17-.1-.15-.12-.14h0l-.21-.12-.22-.09-.23-.04h-.47l-.22.04-.21.09-.2.12h0l-.12.14-.1.15-.05.17-.02.18zm0-3.31h0l.02.19.05.17.1.15.12.14h0l.2.12.21.09.23.04h.48l.23-.04.21-.09.2-.12h0l.12-.14.1-.15.05-.17.02-.19h0l-.02-.18-.05-.17-.1-.15-.12-.14h0l-.21-.12-.22-.09-.23-.04h-.47l-.22.04-.21.09-.2.12h0l-.12.14-.1.15-.05.17-.02.18zM70.98 38.4h2.71v-.76h0v-.28l-.07-.27h0l-.07-.17-.11-.15h0l-.21-.16-.24-.1h0l-.34-.07-.35-.02h-.22l-.22.03-.21.06-.2.09h0l-.13.09-.11.1-.09.12-.07.13h0l-.06.3v.31l-.01.74zm10.56 6.19 1.04.39v-1.2l-.98.37h0l-.73.25h0l.34.08.33.11zm9.92-.6 1.04.39v-1.2l-.98.37h0l-.73.25h0l.34.08.33.11z"/><path class="cls-1" d="m79.08 60.53.02 1.92h1.39l.26-.02.25-.04.24-.09.23-.13.13-.16.1-.17.04-.19.02-.2v-.15l-.04-.15-.06-.14-.08-.13-.09-.11-.1-.09-.12-.07-.13-.05-.33-.04h-.33l-1.38.01zm4.99 1.63-.15.26-.11.27-.05.29v.3h-.01l.02.3.05.29.11.27.16.26.18.16.19.12.22.06.24.03.23-.03.22-.07.19-.12.17-.16.15-.26.11-.28.05-.3v-.31h.01l-.02-.3-.05-.28-.11-.26-.16-.25-.18-.15-.19-.12-.22-.06-.23-.03-.23.03-.22.07-.19.12-.18.16z"/><path class="cls-6" d="M82.35 6.31h0l-.08.34-.11.33-.39 1.04h1.2l-.37-.98h0l-.25-.73zm36.58 30.98h0l.02.14.04.13.08.11.11.1h0l.29.12.29.08.31.03h.61l.3-.02.29-.07.28-.11h0l.12-.1.09-.11.05-.14.03-.15h0l-.03-.15-.05-.14-.09-.11-.12-.1h0l-.28-.11-.29-.07-.3-.02h-.6l-.3.02-.29.07-.28.11h0l-.12.1-.09.12-.05.14-.03.15zm.03 4.43h0l.34.08.33.11 1.04.39v-1.2l-.98.37h0l-.73.25zm9.92-.67h0l.34.08.33.11 1.04.39v-1.2l-.98.37h0l-.73.25zm9.92.65h0l.34.08.33.11 1.04.39v-1.2l-.98.37h0l-.73.25zm9.92.03h0l.34.08.33.11 1.04.39v-1.2l-.98.37h0l-.73.25zm9.92-.01h0l.34.08.33.11 1.04.39v-1.2l-.98.37h0l-.73.25zm.33-4.68 1.6 1.11v-1.11h-1.6zm9.59 4.72h0l.34.08.33.11 1.04.39v-1.2l-.98.37h0l-.73.25zm9.9-4.47h0l.02.14.04.13.08.11.11.1h0l.29.12.29.08.31.03h.61l.3-.02.29-.07.28-.11h0l.12-.1.09-.11.05-.14.03-.15h0l-.03-.15-.05-.14-.09-.11-.12-.1h0l-.28-.11-.29-.07-.3-.02h-.6l-.3.02-.29.07-.28.11h0l-.12.1-.09.12-.05.14-.03.15zm.07 4.71v.74h2.71v-.76h0v-.28l-.07-.27h0l-.07-.17-.11-.15h0l-.21-.16-.24-.1h0l-.34-.07-.35-.02h-.22l-.22.03-.21.06-.2.09h0l-.13.09-.11.1-.09.12-.07.13h0l-.06.3v.31zm9.92-.68v.74h2.71v-.76h0v-.28l-.07-.27h0l-.07-.17-.11-.15h0l-.21-.16-.24-.1h0l-.34-.07-.35-.02h-.22l-.22.03-.21.06-.2.09h0l-.13.09-.11.1-.09.12-.07.13h0l-.06.3v.31zm9.92.65v.74h2.71v-.76h0v-.28l-.07-.27h0l-.07-.17-.11-.15h0l-.21-.16-.24-.1h0l-.34-.07-.35-.02h-.22l-.22.03-.21.06-.2.09h0l-.13.09-.11.1-.09.12-.07.13h0l-.06.3v.31zm9.92.04v.74H211v-.76h0v-.28l-.07-.27h0l-.07-.17-.11-.15h0l-.21-.16-.24-.1h0l-.34-.07-.35-.02h-.22l-.22.03-.21.06-.2.09h0l-.13.09-.11.1-.09.12-.07.13h0l-.06.3V42zm-70.71-33.9h0l-.07.3-.1.29-.34.91h1.06l-.33-.86h0l-.22-.65zm6.05 0h0l-.07.3-.1.29-.34.91h1.06l-.33-.86h0l-.22-.65zm5.63-.03h0l-.21.02-.2.05-.18.1-.17.13h0l-.15.23-.06.12-.05.12-.05.26v.27h-.01l.02.24.05.23.1.21.14.2h0l.17.14.18.11.2.06.21.02h0l.22-.02.2-.06.18-.11.17-.14h0l.14-.21.1-.22.05-.24.02-.25h0L150.3 9l-.1-.33h0l-.16-.25-.22-.19h0l-.27-.12-.29-.04zm15.29-4.8h-.8v1.11h.81l.3-.03.14-.05.13-.07h0l.07-.09.06-.1.03-.11v-.12h.01l-.02-.18-.08-.16h0l-.11-.12-.15-.07h0l-.19-.02h-.19zm23.86 4.87h-.66v2.38h.91l.24-.06h0l.15-.06.13-.1h0l.14-.18.09-.21h0l.06-.3.02-.3h0v-.2l-.03-.19-.05-.18-.08-.18h0l-.17-.21-.11-.08-.12-.07h0l-.26-.05h-.27zm11.29-.04h0l-.07.3-.1.29-.34.91h1.06l-.33-.86h0l-.22-.65zM225.26 44h0l.04.34.03.16.05.15.07.14.09.14.22.26h0l.35.21.18.09.19.07.19.04.2.02.41.02h0l.41-.02.2-.03.19-.04.19-.07.18-.09.35-.21h0l.22-.25.09-.13.08-.14.05-.15.03-.16.04-.33h0l-.04-.33-.03-.16-.05-.15-.08-.14-.09-.13-.22-.25h0l-.35-.21-.18-.09-.19-.07-.2-.04-.2-.03-.41-.02h0l-.41.02-.2.02-.19.04-.19.06-.18.09-.35.21h0l-.22.26-.09.13-.07.14-.05.15-.03.16-.03.33zm24.78-8.62-.97-.96v1.34h-.5v-1.59h.24l-.63-.62h-.51v-.1l-.44-.04v3.69l1.1-.09 1.7-1.62zm.17.17-1.49 1.42 2.71-.23-1.21-1.19zm.17-.17 1.35 1.33 1.35-.11v-2.09h-.27l-.13-.04-.12-.06-.11-.08-.09-.1-.07-.11-.05-.13-.03-.14-.19-.02-1.63 1.55zm-.17-.16 1.49-1.41-3.15-.28v.03h-.03l1.69 1.67zm2.34-1.45h0l.03.16.09.13.13.09.16.03h0l.16-.03.13-.09.09-.13.03-.16h0l-.03-.16-.09-.13-.13-.09-.16-.03h0l-.16.03-.13.09-.09.13-.03.16zm-4.68-.86.35.35h.13v-.38h-.48v.03zm-1.15 2.8h-.22l.04.36.07.35h.4v-3.03h0l-.12.1-.1.12-.08.13-.06.15h0l-.07.29-.03.31h.19v1.23z"/><path class="cls-6" d="M246.37 35.52h.15v-.84h-.15v.84zm.37 1.35h0l.11.17.07.06.08.04v-.27h-.25zm-10.75 25.64h0l.03.21.06.2.11.17.14.16h0l.22.14.23.1.25.05.26.02h0l.26-.02.25-.05.23-.1.22-.14h0l.14-.16.11-.17.06-.2.03-.21h0l-.03-.21-.06-.2-.11-.17-.14-.16h0l-.22-.14-.24-.1-.25-.05h-.52l-.25.05-.23.1-.22.14h0l-.14.16-.11.17-.06.2-.03.21zm-10.73 6.18h0l.04.34.03.16.05.15.07.14.09.14.22.26h0l.35.21.18.09.19.07.19.04.2.02.41.02h0l.41-.02.2-.03.19-.04.19-.07.18-.09.35-.21h0l.22-.25.09-.13.08-.14.05-.15.03-.16.04-.33h0l-.04-.33-.03-.16-.05-.15-.08-.14-.09-.13-.22-.25h0l-.35-.21-.18-.09-.19-.07-.2-.04-.2-.03-.41-.02h0l-.41.02-.2.02-.19.04-.19.06-.18.09-.35.21h0l-.22.26-.09.13-.07.14-.05.15-.03.16-.03.33zm.08 6.44v.93h1.49v-.88h0v-.54l-.07-.53h0l-.1-.19-.15-.15h0l-.21-.09-.23-.03h0l-.26.04-.12.05-.11.07h0l-.09.1-.07.11-.08.24h0l-.02.43v.43zM225.26 92h0l.04.34.03.16.05.15.07.14.09.14.22.26h0l.35.21.18.09.19.07.19.04.2.02.41.02h0l.41-.02.2-.03.19-.04.19-.07.18-.09.35-.21h0l.22-.25.09-.13.08-.14.05-.15.03-.16.04-.33h0l-.04-.33-.03-.16-.05-.15-.08-.14-.09-.13-.22-.25h0l-.35-.21-.18-.09-.19-.07-.2-.04-.2-.03-.41-.02h0l-.41.02-.2.02-.19.04-.19.06-.18.09-.35.21h0l-.22.26-.09.13-.07.14-.05.15-.03.16-.03.33zm-19.74 8.73h0l.03.24.06.22.11.2.14.19h0l.26.17.13.07.14.05.3.05h.59l.26-.05.24-.12.23-.15h0l.16-.19.12-.2.06-.23.03-.24h0l-.03-.25-.06-.23-.12-.21-.16-.19h0l-.24-.16-.25-.12-.28-.05-.29-.02h0l-.39.03-.37.11h0l-.15.08-.14.1-.12.12-.1.13h0l-.08.15-.06.15-.03.16v.17zm.08 3.91v.74h2.71v-.76h0v-.28l-.07-.27h0l-.07-.17-.11-.15h0l-.21-.16-.24-.1h0l-.34-.07-.35-.02h-.22l-.22.03-.21.06-.2.09h0l-.13.09-.11.1-.09.12-.07.13h0l-.06.3v.31zm-9.92 0v.74h2.71v-.76h0v-.28l-.07-.27h0l-.07-.17-.11-.15h0l-.21-.16-.24-.1h0l-.34-.07-.35-.02h-.22l-.22.03-.21.06-.2.09h0l-.13.09-.11.1-.09.12-.07.13h0l-.06.3v.31zm-.08-3.91h0l.03.24.06.22.11.2.14.19h0l.26.17.13.07.14.05.3.05h.59l.26-.05.24-.12.23-.15h0l.16-.19.12-.2.06-.23.03-.24h0l-.03-.25-.06-.23-.12-.21-.16-.19h0l-.24-.16-.25-.12-.28-.05-.29-.02h0l-.39.03-.37.11h0l-.15.08-.14.1-.12.12-.1.13h0l-.08.15-.06.15-.03.16v.17zm1.29-3.31h0l.02.14.04.13.07.12.09.11h0l.12.09.13.07.15.03h.15l.22-.01.21-.07h0l.18-.11.14-.16h0l.08-.17.03-.19h0l-.02-.14-.04-.13-.07-.11-.09-.1h0l-.14-.09-.15-.07-.16-.03h-.32l-.15.03-.14.07-.13.09h0l-.09.11-.07.12-.04.13-.02.14zm-11.21 3.31h0l.03.24.06.22.11.2.14.19h0l.26.17.13.07.14.05.3.05h.59l.26-.05.24-.12.23-.15h0l.16-.19.12-.2.06-.23.03-.24h0l-.03-.25-.06-.23-.12-.21-.16-.19h0l-.24-.16-.25-.12-.28-.05-.29-.02h0l-.39.03-.37.11h0l-.15.08-.14.1-.12.12-.1.13h0l-.08.15-.06.15-.03.16v.17zm.08 3.91v.74h2.71v-.76h0v-.28l-.07-.27h0l-.07-.17-.11-.15h0l-.21-.16-.24-.1h0l-.34-.07-.35-.02h-.22l-.22.03-.21.06-.2.09h0l-.13.09-.11.1-.09.12-.07.13h0l-.06.3v.31zm-9.64-7.43 1.6 1.11v-1.11h-1.6zm-.36 3.52h0l.03.24.06.22.11.2.14.19h0l.26.17.13.07.14.05.3.05h.59l.26-.05.24-.12.23-.15h0l.16-.19.12-.2.06-.23.03-.24h0l-.03-.25-.06-.23-.12-.21-.16-.19h0l-.24-.16-.25-.12-.28-.05-.29-.02h0l-.39.03-.37.11h0l-.15.08-.14.1-.12.12-.1.13h0l-.08.15-.06.15-.03.16v.17zm.08 3.91v.74h2.71v-.76h0v-.28l-.07-.27h0l-.07-.17-.11-.15h0l-.21-.16-.24-.1h0l-.34-.07-.35-.02h-.22l-.22.03-.21.06-.2.09h0l-.13.09-.11.1-.09.12-.07.13h0l-.06.3v.31zm-9.92 0v.74h2.71v-.76h0v-.28l-.07-.27h0l-.07-.17-.11-.15h0l-.21-.16-.24-.1h0l-.34-.07-.35-.02h-.22l-.22.03-.21.06-.2.09h0l-.13.09-.11.1-.09.12-.07.13h0l-.06.3v.31zm-.08-3.91h0l.03.24.06.22.11.2.14.19h0l.26.17.13.07.14.05.3.05h.59l.26-.05.24-.12.23-.15h0l.16-.19.12-.2.06-.23.03-.24h0l-.03-.25-.06-.23-.12-.21-.16-.19h0l-.24-.16-.25-.12-.28-.05-.29-.02h0l-.39.03-.37.11h0l-.15.08-.14.1-.12.12-.1.13h0l-.08.15-.06.15-.03.16v.17zm-9.92 0h0l.03.24.06.22.11.2.14.19h0l.26.17.13.07.14.05.3.05h.59l.26-.05.24-.12.23-.15h0l.16-.19.12-.2.06-.23.03-.24h0l-.03-.25-.06-.23-.12-.21-.16-.19h0l-.24-.16-.25-.12-.28-.05-.29-.02h0l-.39.03-.37.11h0l-.15.08-.14.1-.12.12-.1.13h0l-.08.15-.06.15-.03.16v.17zm.08 3.91v.74h2.71v-.76h0v-.28l-.07-.27h0l-.07-.17-.11-.15h0l-.21-.16-.24-.1h0l-.34-.07-.35-.02h-.22l-.22.03-.21.06-.2.09h0l-.13.09-.11.1-.09.12-.07.13h0l-.06.3v.31zm-9.93 0v.74h2.71v-.76h0v-.28l-.07-.27h0l-.07-.17-.11-.15h0l-.21-.16-.24-.1h0l-.34-.07-.35-.02h-.22l-.22.03-.21.06-.2.09h0l-.13.09-.11.1-.09.12-.07.13h0l-.06.3v.31zm-.07-3.91h0l.03.24.06.22.11.2.14.19h0l.26.17.13.07.14.05.3.05h.59l.26-.05.24-.12.23-.15h0l.16-.19.12-.2.06-.23.03-.24h0l-.03-.25-.06-.23-.12-.21-.16-.19h0l-.24-.16-.25-.12-.28-.05-.29-.02h0l-.39.03-.37.11h0l-.15.08-.14.1-.12.12-.1.13h0l-.08.15-.06.15-.03.16v.17zm-9.92-3.27h0l.02.14.04.13.08.11.11.1h0l.29.12.29.08.31.03h.61l.3-.02.29-.07.28-.11h0l.12-.1.09-.11.05-.14.03-.15h0l-.03-.15-.05-.14-.09-.11-.12-.1h0l-.28-.11-.29-.07-.3-.02h-.6l-.3.02-.29.07-.28.11h0l-.12.1-.09.12-.05.14-.03.15zm0 3.27h0l.03.24.06.22.11.2.14.19h0l.26.17.13.07.14.05.3.05h.59l.26-.05.24-.12.23-.15h0l.16-.19.12-.2.06-.23.03-.24h0l-.03-.25-.06-.23-.12-.21-.16-.19h0l-.24-.16-.25-.12-.28-.05-.29-.02h0l-.39.03-.37.11h0l-.15.08-.14.1-.12.12-.1.13h0l-.08.15-.06.15-.03.16v.17zm.07 3.91v.74h2.71v-.76h0v-.28l-.07-.27h0l-.07-.17-.11-.15h0l-.21-.16-.24-.1h0l-.34-.07-.35-.02h-.22l-.22.03-.21.06-.2.09h0l-.13.09-.11.1-.09.12-.07.13h0l-.06.3v.31zm27.87 28.2h0l-.24.03-.22.06-.2.11-.19.14h0l-.17.26-.07.13-.05.14-.05.3v.31h-.01l.02.28.05.26.12.24.15.23h0l.19.16.2.12.23.06.24.03h0l.25-.03.23-.06.21-.12.19-.16h0l.16-.24.12-.25.05-.28.02-.29h0l-.03-.39-.11-.37h0l-.08-.15-.1-.14-.12-.12-.13-.1h0l-.15-.08-.15-.06-.16-.03h-.17zm10.27.08h-.91v1.27h1.09l.17-.03.16-.06.15-.08h0l.08-.1.06-.11.03-.13v-.13h.01l-.03-.2-.09-.18h0l-.13-.13-.17-.08h0l-.22-.03h-.22zM70.98 96.08h2.71v-.76h0v-.28l-.07-.27h0l-.07-.17-.11-.15h0l-.21-.16-.24-.1h0l-.34-.07-.35-.02h-.22l-.22.03-.21.06-.2.09h0l-.13.09-.11.1-.09.12-.07.13h0l-.06.3v.31l-.01.74zm0 3.58h2.71v-.76h0v-.28l-.07-.27h0l-.07-.17-.11-.15h0l-.21-.16-.24-.1h0l-.34-.07-.35-.02h-.22l-.22.03-.21.06-.2.09h0l-.13.09-.11.1-.09.12-.07.13h0l-.06.3v.31l-.01.74zm9.93-1.25h2.71v-.76h0v-.28l-.07-.27h0l-.07-.17-.11-.15h0l-.21-.16-.24-.1h0l-.34-.07-.35-.02h-.22l-.22.03-.21.06-.2.09h0l-.13.09-.11.1-.09.12-.07.13h0l-.06.3v.31l-.01.74zm9.75 34.51h-.74v2.71h1.03l.27-.07h0l.17-.07.15-.11h0l.16-.21.1-.24h0l.07-.34.02-.35h0v-.22l-.03-.22-.06-.21-.09-.2h0l-.09-.13-.1-.11-.12-.09-.13-.07h0l-.3-.06h-.31zm-7.64 1.21h0l-.14.02-.13.04-.12.07-.11.09h0l-.09.12-.07.13-.03.15v.15h-.01l.02.22.07.21h0l.11.18.16.14h0l.17.08.19.03h0l.14-.02.13-.04.11-.07.1-.09h0l.09-.14.07-.15.03-.16v-.16h.01v-.16l-.04-.15-.07-.14-.09-.13h0l-.11-.09-.12-.07-.13-.04-.14-.02zm-13.23.33h0l.14-.02.13-.04.12-.07.11-.09h0l.09-.13.07-.14.03-.15v-.16h.01v-.16l-.04-.16-.07-.14-.09-.13h0l-.1-.09-.11-.07-.13-.04-.14-.02h0l-.14.02-.13.04-.12.08-.11.1h0l-.09.14-.07.15-.03.16v.17h-.01v.15l.05.14.07.13.09.12h0l.11.09.12.07.13.04.14.02zM88.5 78.85h0l-.14.18-.11.19-.06.22-.03.23 2.18-.02h0l-.03-.2-.05-.19-.08-.18-.1-.17h0l-.18-.16-.19-.12-.22-.06-.24-.03h0l-.21.02-.2.05-.18.1-.17.13z"/><path class="cls-1" d="m93.77 61.99-.14.18-.11.19-.06.22-.03.23 2.18-.02-.03-.2-.05-.19-.08-.18-.1-.17-.18-.16-.19-.12-.22-.06-.24-.03-.21.02-.2.05-.18.1-.17.13z"/><path class="cls-14" d="M66.31 32.72h32.03V12.88H66.31v19.84z"/><path d="m95.23 28.75.99 2.55h-7.94l.99-2.55h.85v-1.28h-2.27V14.01h2.35a3.986 3.986 0 0 0 4.09 0h2.35v5.95h.71v5.1h-.71v2.41h-2.27v1.28h.85zm-27.22-8.78v-5.95h2.35c1.26.76 2.83.76 4.09 0h2.35v13.46h-2.27v1.28h.85l.99 2.55h-7.94l.99-2.55h.85v-1.28H68v-2.41h-.71v-5.1H68zm18.71-5.96v13.46h-2.27v1.28h.85l.99 2.55h-7.94l.99-2.55h.85v-1.28h-2.27V14.01h2.35c1.26.76 2.83.76 4.09 0h2.35z" style="fill:#237d23;stroke-linecap:round;stroke-linejoin:round;stroke:#1d1d1b;stroke-width:.25px"/><path class="cls-14" d="M114.36 32.72h101.48V12.88H114.36v19.84z"/><path class="cls-16" d="M174.46 14.01v13.46h-2.27v1.28h.85l.99 2.55h-7.94l.99-2.55h.85v-1.28h-2.27V14.01h2.35c1.26.76 2.83.76 4.09 0h2.35zm-9.93 0v13.46h-2.27v1.28h.85l.99 2.55h-7.94l.99-2.55h.85v-1.28h-2.27V14.01h2.35c1.26.76 2.83.76 4.09 0h2.35zm-9.92 0v13.46h-2.27v1.28h.85l.99 2.55h-7.94l.99-2.55h.85v-1.28h-2.27V14.01h2.35c1.26.76 2.83.76 4.09 0h2.35zm-9.92 0v13.46h-2.27v1.28h.85l.99 2.55h-7.94l.99-2.55h.85v-1.28h-2.27V14.01h2.35c1.26.76 2.83.76 4.09 0h2.35zm68.03 14.74.99 2.55h-7.94l.99-2.55h.85v-1.28h-2.27V14.01h2.35c1.26.76 2.83.76 4.09 0h2.35v5.95h.71v5.1h-.71v2.41h-2.27v1.28h.85zm-96.66-8.78v-5.95h2.35c1.26.76 2.83.76 4.09 0h2.35v13.46h-2.27v1.28h.85l.99 2.55h-7.94l.99-2.55h.85v-1.28h-2.27v-2.41h-.71v-5.1h.71zm18.71-5.96v13.46h-2.27v1.28h.85l.99 2.55h-7.94l.99-2.55h.85v-1.28h-2.27V14.01h2.35c1.26.76 2.83.76 4.09 0h2.35zm49.61 0v13.46h-2.27v1.28h.85l.99 2.55h-7.94l.99-2.55h.85v-1.28h-2.27V14.01h2.35c1.26.76 2.83.76 4.09 0h2.35zm9.92 0v13.46h-2.27v1.28h.85l.99 2.55h-7.94l.99-2.55h.85v-1.28h-2.27V14.01h2.35c1.26.76 2.83.76 4.09 0h2.35zm9.92 0v13.46h-2.27v1.28h.85l.99 2.55h-7.94l.99-2.55h.85v-1.28h-2.27V14.01h2.35c1.26.76 2.83.76 4.09 0h2.35z"/><path class="cls-14" d="M213.15 109.26h-81.64v19.84h81.64v-19.84z"/><path class="cls-16" d="M153.05 127.97v-13.46h2.27v-1.28h-.85l-.99-2.55h7.94l-.99 2.55h-.85v1.28h2.27v13.46h-2.35a3.953 3.953 0 0 0-4.09 0h-2.35zm9.93 0v-13.46h2.27v-1.28h-.85l-.99-2.55h7.94l-.99 2.55h-.85v1.28h2.27v13.46h-2.35a3.953 3.953 0 0 0-4.09 0h-2.35zm9.92 0v-13.46h2.27v-1.28h-.85l-.99-2.55h7.94l-.99 2.55h-.85v1.28h2.27v13.46h-2.35a3.953 3.953 0 0 0-4.09 0h-2.35zm9.92 0v-13.46h2.27v-1.28h-.85l-.99-2.55h7.94l-.99 2.55h-.85v1.28h2.27v13.46h-2.35a3.953 3.953 0 0 0-4.09 0h-2.35zm-48.19-14.74-.99-2.55h7.94l-.99 2.55h-.85v1.28h2.27v13.46h-2.35a3.953 3.953 0 0 0-4.09 0h-2.35v-5.95h-.71v-5.1h.71v-2.41h2.27v-1.28h-.85zm76.82 8.78v5.95h-2.35a3.953 3.953 0 0 0-4.09 0h-2.35V114.5h2.27v-1.28h-.85l-.99-2.55h7.94l-.99 2.55h-.85v1.28h2.27v2.41h.71v5.1h-.71zm-18.71 5.96v-13.46h2.27v-1.28h-.85l-.99-2.55h7.94l-.99 2.55h-.85v1.28h2.27v13.46h-2.35a3.953 3.953 0 0 0-4.09 0h-2.35zm-49.61 0v-13.46h2.27v-1.28h-.85l-.99-2.55h7.94l-.99 2.55h-.85v1.28h2.27v13.46h-2.35a3.953 3.953 0 0 0-4.09 0h-2.35z"/><path class="cls-14" d="M98.34 109.26H66.31v19.84h32.03v-19.84z"/><path class="cls-16" d="m69.43 113.22-.99-2.55h7.94l-.99 2.55h-.85v1.28h2.27v13.46h-2.35a3.986 3.986 0 0 0-4.09 0h-2.35v-5.95h-.71v-5.1h.71v-2.41h2.27v-1.28h-.85zm27.21 8.79v5.95h-2.35a3.953 3.953 0 0 0-4.09 0h-2.35V114.5h2.27v-1.28h-.85l-.99-2.55h7.94l-.99 2.55h-.85v1.28h2.27v2.41h.71v5.1h-.71zm-18.71 5.95V114.5h2.27v-1.28h-.85l-.99-2.55h7.94l-.99 2.55h-.85v1.28h2.27v13.46h-2.35a3.953 3.953 0 0 0-4.09 0h-2.35z"/><path class="cls-12" d="m71.91 21.88-.64.64h2.27l-.64-.64h-.99zm1.63-1.63-.64.64v.99l.64.64v-2.27zm-2.27 0 .64.64h.99l.64-.64h-2.27z"/><path class="cls-12" d="m71.91 20.89-.64-.64v2.27l.64-.64v-.99zm9.92 0-.64-.64v2.27l.64-.64v-.99zm-.63-.64.64.64h.99l.64-.64H81.2z"/><path class="cls-12" d="m83.46 20.25-.64.64v.99l.64.64v-2.27z"/><path class="cls-12" d="m81.83 21.88-.64.64h2.27l-.64-.64h-.99zm9.92-.99-.64-.64v2.27l.64-.64v-.99zm-.63-.64.64.64h.99l.64-.64h-2.27z"/><path class="cls-12" d="m93.38 20.25-.64.64v.99l.64.64v-2.27z"/><path class="cls-12" d="m91.75 21.88-.64.64h2.27l-.64-.64h-.99z"/><path class="cls-6" d="M7.78 70.99a6.521 6.521 0 0 0 13.04 0 6.521 6.521 0 0 0-13.04 0z"/><path class="cls-11" d="M6.08 70.99a8.22 8.22 0 0 0 8.22 8.22 8.22 8.22 0 0 0 8.22-8.22h0a8.22 8.22 0 1 0-16.44-.01h0z"/><path class="cls-13" d="M8.35 70.99c0 3.29 2.67 5.95 5.95 5.95s5.95-2.67 5.95-5.95-2.67-5.95-5.95-5.95-5.95 2.67-5.95 5.95z"/><path class="cls-6" d="M7.78 70.99a6.521 6.521 0 0 0 13.04 0 6.521 6.521 0 0 0-13.04 0zm255.12 0a6.521 6.521 0 0 0 13.04 0 6.521 6.521 0 0 0-13.04 0z"/><path class="cls-5" d="M261.2 70.99a8.22 8.22 0 0 0 8.22 8.22 8.22 8.22 0 0 0 8.22-8.22h0a8.22 8.22 0 1 0-16.44-.01h0z"/><path class="cls-13" d="M263.46 70.99c0 3.29 2.67 5.95 5.95 5.95s5.95-2.67 5.95-5.95-2.67-5.95-5.95-5.95-5.95 2.67-5.95 5.95z"/><path class="cls-6" d="M262.9 70.99a6.521 6.521 0 0 0 13.04 0 6.521 6.521 0 0 0-13.04 0z"/><path class="cls-11" d="M212.72.12v.85c38.67 0 70.01 31.35 70.01 70.02 0 38.66-31.35 70.01-70.01 70.01v.85c39.14 0 70.87-31.73 70.87-70.87S251.86.12 212.72.12zm0 141.74v-.85H70.99v.85h141.73z"/><path class="cls-11" d="M70.99 141.86v-.85C32.32 141.01.98 109.66.98 70.99.98 32.32 32.33.98 70.99.98V.12C31.85.12.12 31.85.12 70.99s31.73 70.87 70.87 70.87z"/><path class="cls-11" d="M70.99.12v.85h141.73V.12H70.99z"/><path class="cls-12" d="m209.25 21.88-.64.64h2.27l-.64-.64h-.99z"/><path class="cls-12" d="m210.88 20.25-.64.64v.99l.64.64v-2.27zm-2.27 0 .64.64h.99l.64-.64h-2.27z"/><path class="cls-12" d="m209.25 20.89-.64-.64v2.27l.64-.64v-.99zm-9.92.99-.64.64h2.27l-.64-.64h-.99z"/><path class="cls-12" d="m200.96 20.25-.64.64v.99l.64.64v-2.27zm-2.27 0 .64.64h.99l.64-.64h-2.27z"/><path class="cls-12" d="m199.33 20.89-.64-.64v2.27l.64-.64v-.99zm-9.92.99-.64.64h2.27l-.64-.64h-.99z"/><path class="cls-12" d="m191.04 20.25-.64.64v.99l.64.64v-2.27z"/><path class="cls-12" d="m188.77 20.25.64.64h.99l.64-.64h-2.27z"/><path class="cls-12" d="m189.41 20.89-.64-.64v2.27l.64-.64v-.99zm-9.92.99-.64.64h2.27l-.64-.64h-.99z"/><path class="cls-12" d="m181.12 20.25-.64.64v.99l.64.64v-2.27zm-2.27 0 .64.64h.99l.64-.64h-2.27z"/><path class="cls-12" d="m179.49 20.89-.64-.64v2.27l.64-.64v-.99zm-8.29-.64-.64.64v.99l.64.64v-2.27z"/><path class="cls-12" d="m168.93 20.25.64.64h.99l.64-.64h-2.27zm.64 1.63-.64.64h2.27l-.64-.64h-.99z"/><path class="cls-12" d="m169.57 20.89-.64-.64v2.27l.64-.64v-.99zm-8.3-.64-.64.64v.99l.64.64v-2.27z"/><path class="cls-12" d="m159.01 20.25.64.64h.99l.64-.64h-2.27zm.63 1.63-.64.64h2.27l-.64-.64h-.99z"/><path class="cls-12" d="m159.64 20.89-.64-.64v2.27l.64-.64v-.99zm-9.92.99-.64.64h2.27l-.64-.64h-.99z"/><path class="cls-12" d="m149.72 20.89-.64-.64v2.27l.64-.64v-.99zm-.63-.64.64.64h.99l.64-.64h-2.27z"/><path class="cls-12" d="m151.35 20.25-.64.64v.99l.64.64v-2.27zm-9.92 0-.64.64v.99l.64.64v-2.27zm-2.27 0 .64.64h.99l.64-.64h-2.27z"/><path class="cls-12" d="m139.8 21.88-.64.64h2.27l-.64-.64h-.99z"/><path class="cls-12" d="m139.8 20.89-.64-.64v2.27l.64-.64v-.99zm-9.92.99-.64.64h2.27l-.64-.64h-.99z"/><path class="cls-12" d="m131.51 20.25-.64.64v.99l.64.64v-2.27zm-2.27 0 .64.64h.99l.64-.64h-2.27z"/><path class="cls-12" d="m129.88 20.89-.64-.64v2.27l.64-.64v-.99zm-9.92.99-.64.64h2.27l-.64-.64h-.99zm1.63-1.63-.64.64v.99l.64.64v-2.27zm-2.27 0 .64.64h.99l.64-.64h-2.27z"/><path class="cls-12" d="m119.96 20.89-.64-.64v2.27l.64-.64v-.99zm87.59 100.2.64.64v-2.27l-.64.64v.99zm0-.99.64-.64h-2.27l.64.64h.99z"/><path class="cls-12" d="m208.19 121.73-.64-.64h-.99l-.64.64h2.27zm-2.27 0 .64-.64v-.99l-.64-.64v2.27zm-8.29-.64.64.64v-2.27l-.64.64v.99zm0-.99.64-.64H196l.64.64h.99zm-1.63 1.63.64-.64v-.99l-.64-.64v2.27z"/><path class="cls-12" d="m198.27 121.73-.64-.64h-.99l-.64.64h2.27zm-9.92 0-.64-.64h-.99l-.64.64h2.27z"/><path class="cls-12" d="m187.71 121.09.64.64v-2.27l-.64.64v.99zm0-.99.64-.64h-2.27l.64.64h.99z"/><path class="cls-12" d="m186.08 121.73.64-.64v-.99l-.64-.64v2.27zm-8.29-.64.64.64v-2.27l-.64.64v.99zm0-.99.64-.64h-2.27l.64.64h.99z"/><path class="cls-12" d="m176.16 121.73.64-.64v-.99l-.64-.64v2.27z"/><path class="cls-12" d="m178.42 121.73-.64-.64h-.99l-.64.64h2.27zm-9.92 0-.64-.64h-.99l-.64.64h2.27zm-.63-.64.64.64v-2.27l-.64.64v.99zm0-.99.64-.64h-2.27l.64.64h.99z"/><path class="cls-12" d="m166.24 121.73.64-.64v-.99l-.64-.64v2.27zm-8.3-1.63.64-.64h-2.27l.64.64h.99zm0 .99.64.64v-2.27l-.64.64v.99z"/><path class="cls-12" d="m158.58 121.73-.64-.64h-.99l-.64.64h2.27zm-2.27 0 .64-.64v-.99l-.64-.64v2.27zm-8.29-.64.64.64v-2.27l-.64.64v.99zm0-.99.64-.64h-2.27l.64.64h.99zm-1.63 1.63.64-.64v-.99l-.64-.64v2.27z"/><path class="cls-12" d="m148.66 121.73-.64-.64h-.99l-.64.64h2.27zm-9.92 0-.64-.64h-.99l-.64.64h2.27zm-2.27 0 .64-.64v-.99l-.64-.64v2.27z"/><path class="cls-12" d="m138.1 120.1.64-.64h-2.27l.64.64h.99zm0 .99.64.64v-2.27l-.64.64v.99zm-45.36 0 .64.64v-2.27l-.64.64v.99zm0-.99.64-.64h-2.27l.64.64h.99zM93.38 121.73l-.64-.64h-.99l-.64.64h2.27z"/><path class="cls-12" d="m91.11 121.73.64-.64v-.99l-.64-.64v2.27zm-8.29-.64.64.64v-2.27l-.64.64v.99zm0-.99.64-.64h-2.27l.64.64h.99zm-1.63 1.63.64-.64v-.99l-.64-.64v2.27z"/><path class="cls-12" d="m83.46 121.73-.64-.64h-.99l-.64.64h2.27zm-10.56-.64.64.64v-2.27l-.64.64v.99zm0-.99.64-.64h-2.27l.64.64h.99zm-1.63 1.63.64-.64v-.99l-.64-.64v2.27z"/><path class="cls-12" d="m73.54 121.73-.64-.64h-.99l-.64.64h2.27zm102.08-28.8h40.2V49.05h-40.2v43.88z"/><path d="M214.14 77.72h-2.69v3.53h-5.98v7.46h-6.94v1.33h-7.37v-1.33h-6.94V53.28h6.94v-1.33h7.37v1.33h6.94v7.46h5.98v3.53h2.69v13.46z" style="stroke:#646464;fill:#0d0812;stroke-linecap:round;stroke-linejoin:round;stroke-width:.25px"/><path class="cls-12" d="M216.53 49.05h-.72v43.88h.72l.13.04.09.04.06.04.02.04V48.87h0l-.02.04-.06.04-.09.04-.13.04zm-.72 0v-1.02h-40.2v1.02h40.2z"/><path class="cls-12" d="M216.83 49.05c0-.56-.46-1.02-1.02-1.02h0c.27 0 .53.11.72.3h0l.13.15.09.18.06.19.02.2zm-.3 44.6a1.022 1.022 0 0 1 .3-.72h0l-.02.2-.06.19-.09.18-.13.15zm-40.91.3h40.2v-1.02h-40.2v1.02zm-1.02-1.02c0 .56.46 1.02 1.02 1.02h0c-.27 0-.53-.11-.72-.3h0l-.13-.15-.09-.18-.06-.19-.02-.2z"/><path class="cls-12" d="M174.9 92.93h.72V49.05h-.72l-.13-.04-.09-.04-.06-.04-.02-.04v44.22h0l.02-.04.06-.04.09-.04.13-.04z"/><path class="cls-12" d="M174.9 48.33a1.022 1.022 0 0 1-.3.72h0l.02-.2.06-.19.09-.18.13-.15z"/><path class="cls-11" d="M52.31 60.2a3.698 3.698 0 0 0-3.29-2.03H47.6c-1.39 0-2.66.78-3.29 2.03-.32.63-.48 1.32-.48 2.02v17.54c0 .7.16 1.39.48 2.02.63 1.24 1.9 2.03 3.29 2.03h1.42c1.39 0 2.66-.78 3.29-2.03.32-.63.48-1.32.48-2.02v-5.95h-.85v5.95c0 .57-.13 1.13-.39 1.63-.48.96-1.46 1.56-2.53 1.56H47.6c-1.07 0-2.05-.6-2.53-1.56a3.59 3.59 0 0 1-.39-1.63V62.22c0-.57.13-1.13.39-1.63.48-.96 1.46-1.56 2.53-1.56h1.42c1.07 0 2.05.6 2.53 1.56.26.51.39 1.07.39 1.63v11.56h.85V62.22c0-.7-.16-1.39-.48-2.02z"/><path class="cls-5" d="M49.31 62.5v-.07h-1.98v17.12h1.98V62.5zm-.93-.99v.74h-.14v-.74c-.49.04-.89.43-.92.92h1.98a.981.981 0 0 0-.92-.92zm-1.06 18.04c.03.49.42.89.92.92v-.74h.14v.74c.49-.04.89-.43.92-.92h-1.98z"/></g></svg>