<svg xmlns="http://www.w3.org/2000/svg" viewBox="0 0 142.05 283.71"><g xmlns="http://www.w3.org/2000/svg" transform="matrix(0 1 -1 0 142.05 -0)"><defs><style>.cls-1{stroke-miterlimit:10;}.cls-1,.cls-2,.cls-3,.cls-4,.cls-5,.cls-6,.cls-7,.cls-8,.cls-9,.cls-10,.cls-11,.cls-12,.cls-13,.cls-14,.cls-15,.cls-16{stroke-width:.25px;}.cls-1,.cls-2,.cls-4,.cls-5,.cls-6,.cls-7,.cls-9,.cls-11,.cls-13,.cls-15{stroke:#1d1d1b;}.cls-1,.cls-6,.cls-8,.cls-12{fill:none;}.cls-2,.cls-3,.cls-4,.cls-5,.cls-6,.cls-7,.cls-8,.cls-9,.cls-10,.cls-11,.cls-12,.cls-13,.cls-14,.cls-15,.cls-16{stroke-linecap:round;stroke-linejoin:round;}.cls-2,.cls-16{fill:#237d23;}.cls-3{fill:#c2c3c0;stroke:#969696;}.cls-4{fill:#fdc540;}.cls-5{fill:#a5a0a3;}.cls-7,.cls-14{fill:#91ef97;}.cls-8,.cls-14,.cls-16{stroke:#000;}.cls-9{fill:#deff00;}.cls-10{fill:#0d0812;}.cls-10,.cls-12{stroke:#646464;}.cls-11{fill:#bcb9bb;}.cls-13{fill:#f1f0f1;}.cls-15{fill:#1d1d1b;}</style></defs><rect class="cls-9" x=".55" y=".2" width="283.04" height="141.73" rx="70.87" ry="70.87" /><path class="cls-6" d="m162.36,71.22l-.02,2.67h-.75s.03-5.67.03-5.67h.75s-.01,2.33-.01,2.33l2.95.02v-2.33s.76,0,.76,0l-.03,5.67h-.75s.02-2.68.02-2.68l-2.95-.02Z" /><path class="cls-6" d="m158.95,68.87l-.03,5h-.75s.03-5,.03-5h-1.87s0-.68,0-.68l4.49.03v.67s-1.88-.01-1.88-.01Z" /><path class="cls-6" d="m155.7,73.18v.67s-4.23-.02-4.23-.02l.03-5.67,4.1.02v.67s-3.35-.02-3.35-.02v1.74s3.13.02,3.13.02v.67s-3.14-.02-3.14-.02v1.93s3.47.02,3.47.02Z" /><path class="cls-6" d="m206.57,97.47h0l-.48-.29-.45-.34v1.74h-.42v-2.29h.34l.46.36.5.31h0l.6.29.63.22h0l.48.11.49.06v.45h0l-.51-.05-.5-.11h0l-.58-.19-.56-.26Z" /><path class="cls-6" d="m198.74,104.01h0l.05.28v.29s.01,1.28.01,1.28h-3.54v-1.22h0v-.32s.05-.31.05-.31h0l.1-.28.16-.24h0l.13-.13.14-.12.16-.09.17-.08h0l.41-.11.43-.03h0l.36.02.35.07h0l.27.1.25.14h0l.18.15.15.18h0l.11.2.07.22Z" /><path class="cls-6" d="m198.62,101.63h0l-.13.18-.15.16-.18.13-.19.12h0l-.21.09-.22.07-.22.03-.23.02h0l-.38-.03-.18-.03-.18-.05-.17-.07-.16-.09-.31-.21h0l-.22-.27-.09-.14-.07-.15-.05-.16-.03-.17-.04-.34h0l.02-.23.04-.23.08-.22.1-.21h0l.13-.18.15-.17.18-.13.19-.12h0l.23-.09.23-.07.24-.03h.25s.25,0,.25,0l.25.04.24.07.23.09h0l.19.12.18.14.15.17.13.19h0l.09.21.07.21.04.22.02.22h0l-.02.24-.04.23-.08.22-.1.21Z" /><path class="cls-6" d="m188.94,97.47h0l-.02.22-.04.21-.09.19-.12.18h0l-.16.14-.17.11-.19.07-.2.04-.04-.46h0l.27-.07.12-.07.11-.09h0l.07-.1.06-.11.03-.12v-.12h.01l-.02-.15-.04-.14-.08-.12-.1-.12h0l-.14-.1-.15-.07-.16-.03h-.17s-.16,0-.16,0l-.15.03-.14.07-.13.09h0l-.09.12-.07.13-.04.14v.15h-.01l.02.2.07.18h0l.11.15.14.12-.05.41-1.82-.34v-1.76h.42v1.41l.95.19h0l-.09-.16-.07-.16-.04-.17-.02-.18h0l.02-.22.05-.21.11-.19.14-.17h0l.18-.14.2-.11.22-.05.23-.02h0l.22.02.22.05.2.09.19.12h0l.19.2.08.1.06.11.04.12.03.13.03.27Z" /><path class="cls-6" d="m178.9,104.01h0l.05.28v.29s.01,1.28.01,1.28h-3.54v-1.22h0v-.32s.05-.31.05-.31h0l.1-.28.16-.24h0l.13-.13.14-.12.16-.09.17-.08h0l.41-.11.43-.03h0l.36.02.35.07h0l.27.1.25.14h0l.18.15.15.18h0l.11.2.07.22Z" /><path class="cls-6" d="m178.78,101.63h0l-.13.18-.15.16-.18.13-.19.12h0l-.21.09-.22.07-.22.03-.23.02h0l-.38-.03-.18-.03-.18-.05-.17-.07-.16-.09-.31-.21h0l-.22-.27-.09-.14-.07-.15-.05-.16-.03-.17-.04-.34h0l.02-.23.04-.23.08-.22.1-.21h0l.13-.18.15-.17.18-.13.19-.12h0l.23-.09.23-.07.24-.03h.25s.25,0,.25,0l.25.04.24.07.23.09h0l.19.12.18.14.15.17.13.19h0l.09.21.07.21.04.22.02.22h0l-.02.24-.04.23-.08.22-.1.21Z" /><path class="cls-6" d="m169.1,97.48h0l-.02.21-.05.2-.09.19-.12.17h0l-.16.14-.17.11-.19.07-.2.04-.06-.44h0l.29-.09.13-.08.12-.09h0l.07-.1.05-.1.04-.24h0l-.02-.14-.04-.14-.07-.12-.09-.11h0l-.12-.09-.12-.07-.14-.04-.15-.02h-.14s-.13.05-.13.05l-.12.06-.11.08h0l-.08.11-.06.12-.03.13v.14h-.01v.15s.05.15.05.15l-.38-.05h0v-.07h0l-.04-.26-.11-.24h0l-.09-.1-.1-.07-.12-.04h-.13s-.22.02-.22.02l-.09.05-.09.07h0l-.07.09-.05.1-.04.23h0l.04.23.05.1.07.09h0l.11.08.11.07.26.07-.08.44h0l-.19-.05-.18-.07-.16-.11-.15-.13h0l-.1-.16-.08-.17-.04-.18-.02-.19h0l.03-.27.09-.26h0l.14-.21.2-.16h0l.22-.1.24-.03h0l.22.03.2.09h0l.18.16.12.2h0l.05-.14.06-.13.09-.11.11-.1h0l.13-.08.14-.06.15-.03h.15s.22.02.22.02l.21.06.19.11.17.14h0l.14.19.11.2.05.22.02.24Z" /><path class="cls-6" d="m159.06,104.01h0l.05.28v.29s.01,1.28.01,1.28h-3.54v-1.22h0v-.32s.05-.31.05-.31h0l.1-.28.16-.24h0l.13-.13.14-.12.16-.09.17-.08h0l.41-.11.43-.03h0l.36.02.35.07h0l.27.1.25.14h0l.18.15.15.18h0l.11.2.07.22Z" /><path class="cls-6" d="m158.94,101.63h0l-.13.18-.15.16-.18.13-.19.12h0l-.21.09-.22.07-.22.03-.23.02h0l-.38-.03-.18-.03-.18-.05-.17-.07-.16-.09-.31-.21h0l-.22-.27-.09-.14-.07-.15-.05-.16-.03-.17-.04-.34h0l.02-.23.04-.23.08-.22.1-.21h0l.13-.18.15-.17.18-.13.19-.12h0l.23-.09.23-.07.24-.03h.25s.25,0,.25,0l.25.04.24.07.23.09h0l.19.12.18.14.15.17.13.19h0l.09.21.07.21.04.22.02.22h0l-.02.24-.04.23-.08.22-.1.21Z" /><path class="cls-6" d="m145.64,97.25v-.28h3.56v.44h-2.77l.16.2.14.21h0l.12.22.1.23h-.42l-.18-.33-.23-.3h0l-.22-.22-.25-.17Z" /><path class="cls-6" d="m139.22,104.01h0l.05.28v.29s.01,1.28.01,1.28h-3.54v-1.22h0v-.32s.05-.31.05-.31h0l.1-.28.16-.24h0l.13-.13.14-.12.16-.09.17-.08h0l.41-.11.43-.03h0l.36.02.35.07h0l.27.1.25.14h0l.18.15.15.18h0l.11.2.07.22Z" /><path class="cls-6" d="m139.1,101.63h0l-.13.18-.15.16-.18.13-.19.12h0l-.21.09-.22.07-.22.03-.23.02h0l-.38-.03-.18-.03-.18-.05-.17-.07-.16-.09-.31-.21h0l-.22-.27-.09-.14-.07-.15-.05-.16-.03-.17-.04-.34h0l.02-.23.04-.23.08-.22.1-.21h0l.13-.18.15-.17.18-.13.19-.12h0l.23-.09.23-.07.24-.03h.25s.25,0,.25,0l.25.04.24.07.23.09h0l.19.12.18.14.15.17.13.19h0l.09.21.07.21.04.22.02.22h0l-.02.24-.04.23-.08.22-.1.21Z" /><path class="cls-6" d="m139.34,97.45h0l-.03.23-.06.22-.12.19-.16.17h0l-.34.17-.17.07-.18.05-.37.05h-.38s-.51-.01-.51-.01l-.5-.1h0l-.17-.07-.16-.08-.14-.11-.13-.13h0l-.09-.15-.07-.15-.03-.17v-.17h-.01l.03-.26.09-.24h0l.14-.2.19-.16h0l.25-.13.27-.09h0l.42-.06h.42s.51,0,.51,0l.5.1h0l.17.07.16.08.14.11.13.13h0l.09.15.07.16.03.17v.17Z" /><path class="cls-6" d="m149.02,101.63h0l-.13.18-.15.16-.18.13-.19.12h0l-.21.09-.22.07-.22.03-.23.02h0l-.38-.03-.18-.03-.18-.05-.17-.07-.16-.09-.31-.21h0l-.22-.27-.09-.14-.07-.15-.05-.16-.03-.17-.04-.34h0l.02-.23.04-.23.08-.22.1-.21h0l.13-.18.15-.17.18-.13.19-.12h0l.23-.09.23-.07.24-.03h.25s.25,0,.25,0l.25.04.24.07.23.09h0l.19.12.18.14.15.17.13.19h0l.09.21.07.21.04.22.02.22h0l-.02.24-.04.23-.08.22-.1.21Z" /><path class="cls-6" d="m149.14,104.01h0l.05.28v.29s.01,1.28.01,1.28h-3.54v-1.22h0v-.32s.05-.31.05-.31h0l.1-.28.16-.24h0l.13-.13.14-.12.16-.09.17-.08h0l.41-.11.43-.03h0l.36.02.35.07h0l.27.1.25.14h0l.18.15.15.18h0l.11.2.07.22Z" /><path class="cls-6" d="m158.47,97.88h0l.24.18v-1.74h.42v2.34h-.15s-.15-.05-.15-.05h0l-.25-.12-.22-.16h0l-.28-.27-.26-.3h0l-.35-.41-.4-.37h0l-.25-.14-.14-.04-.14-.02h-.12s-.12.05-.12.05l-.1.06-.1.08h0l-.08.11-.06.12-.03.13v.13h-.01v.14s.04.13.04.13l.06.12.08.11h0l.12.08.12.06.14.03h.14s-.05.46-.05.46h0l-.21-.04-.2-.06-.18-.11-.17-.14h0l-.12-.18-.09-.19-.04-.21-.02-.22h0l.02-.22.05-.21.09-.19.13-.18h0l.15-.13.17-.1.19-.05.2-.02h0l.21.02.2.06h0l.23.13.2.16h0l.32.33.3.35h0l.45.5Z" /><path class="cls-6" d="m168.86,101.63h0l-.13.18-.15.16-.18.13-.19.12h0l-.21.09-.22.07-.22.03-.23.02h0l-.38-.03-.18-.03-.18-.05-.17-.07-.16-.09-.31-.21h0l-.22-.27-.09-.14-.07-.15-.05-.16-.03-.17-.04-.34h0l.02-.23.04-.23.08-.22.1-.21h0l.13-.18.15-.17.18-.13.19-.12h0l.23-.09.23-.07.24-.03h.25s.25,0,.25,0l.25.04.24.07.23.09h0l.19.12.18.14.15.17.13.19h0l.09.21.07.21.04.22.02.22h0l-.02.24-.04.23-.08.22-.1.21Z" /><path class="cls-6" d="m168.98,104.01h0l.05.28v.29s.01,1.28.01,1.28h-3.54v-1.22h0v-.32s.05-.31.05-.31h0l.1-.28.16-.24h0l.13-.13.14-.12.16-.09.17-.08h0l.41-.11.43-.03h0l.36.02.35.07h0l.27.1.25.14h0l.18.15.15.18h0l.11.2.07.22Z" /><path class="cls-6" d="m178.11,96.78h.85v.44h-.85v1.54h-.4l-2.3-1.62v-.36h2.3v-.48h.4v.48Z" /><path class="cls-6" d="m188.7,101.63h0l-.13.18-.15.16-.18.13-.19.12h0l-.21.09-.22.07-.22.03-.23.02h0l-.38-.03-.18-.03-.18-.05-.17-.07-.16-.09-.31-.21h0l-.22-.27-.09-.14-.07-.15-.05-.16-.03-.17-.04-.34h0l.02-.23.04-.23.08-.22.1-.21h0l.13-.18.15-.17.18-.13.19-.12h0l.23-.09.23-.07.24-.03h.25s.25,0,.25,0l.25.04.24.07.23.09h0l.19.12.18.14.15.17.13.19h0l.09.21.07.21.04.22.02.22h0l-.02.24-.04.23-.08.22-.1.21Z" /><path class="cls-6" d="m188.82,104.01h0l.05.28v.29s.01,1.28.01,1.28h-3.54v-1.22h0v-.32s.05-.31.05-.31h0l.1-.28.16-.24h0l.13-.13.14-.12.16-.09.17-.08h0l.41-.11.43-.03h0l.36.02.35.07h0l.27.1.25.14h0l.18.15.15.18h0l.11.2.07.22Z" /><path class="cls-6" d="m195.25,97.36h0l.02-.19.04-.18.08-.16.1-.16h0l.14-.12.15-.1.17-.06.18-.04.03.43h0l-.2.06-.18.11h0l-.08.09-.06.1-.03.12v.12h-.01l.03.19.09.17h0l.2.19.24.13h0l.4.1.42.02h0l-.2-.17-.15-.22h0l-.09-.23-.03-.25h0l.03-.21.06-.2.1-.17.13-.16h0l.19-.13.2-.1.22-.05.23-.02h0l.32.04.3.11h0l.25.17.19.23h0l.12.27.04.3h0l-.03.25-.07.24-.13.21-.17.19h0l-.31.17-.16.07-.16.05-.34.05h-.35s-.4,0-.4,0l-.38-.05-.18-.05-.18-.07-.35-.18h0l-.17-.19-.13-.21-.07-.24-.03-.26Z" /><path class="cls-6" d="m208.55,101.63h0l-.13.18-.15.16-.18.13-.19.12h0l-.21.09-.22.07-.22.03-.23.02h0l-.38-.03-.18-.03-.18-.05-.17-.07-.16-.09-.31-.21h0l-.22-.27-.09-.14-.07-.15-.05-.16-.03-.17-.04-.34h0l.02-.23.04-.23.08-.22.1-.21h0l.13-.18.15-.17.18-.13.19-.12h0l.23-.09.23-.07.24-.03h.25s.25,0,.25,0l.25.04.24.07.23.09h0l.19.12.18.14.15.17.13.19h0l.09.21.07.21.04.22.02.22h0l-.02.24-.04.23-.08.22-.1.21Z" /><path class="cls-6" d="m208.67,104.01h0l.05.28v.29s.01,1.28.01,1.28h-3.54v-1.22h0v-.32s.05-.31.05-.31h0l.1-.28.16-.24h0l.13-.13.14-.12.16-.09.17-.08h0l.41-.11.43-.03h0l.36.02.35.07h0l.27.1.25.14h0l.18.15.15.18h0l.11.2.07.22Z" /><path class="cls-6" d="m159.46,2.91v3.12h-.41v-3.12h.41Z" /><path class="cls-6" d="m163.75,4.76v1.27h-.41v-3.12h1.41s.24.03.24.03h0l.2.05.18.09h0l.14.13.11.17h0l.07.21.02.22h0l-.02.19-.04.18-.08.16-.11.15h0l-.21.14-.22.09-.24.04h-.25s-.8,0-.8,0Z" /><path class="cls-6" d="m170.59,3.28v2.75h-.41v-2.75h-1.03v-.37h2.47v.37h-1.03Z" /><path class="cls-6" d="m139.81,8.45v2.45h-.4v-3.12h.42l1.64,2.45v-2.45h.4v3.12h-.42l-1.64-2.45Z" /><path class="cls-6" d="m147.4,10.53v.37h-1.95v-3.12h.41v2.75h1.54Z" /><path class="cls-6" d="m148.47,10.74h0l-.16-.12-.14-.13-.12-.16-.1-.17h0l-.08-.19-.06-.19-.03-.2v-.2h-.01l.02-.33.07-.32.06-.15.08-.14.19-.27h0l.24-.19.12-.08.13-.06.14-.04.15-.03.3-.03h0l.2.02.2.03.19.07.18.09h0l.16.12.15.13.12.16.1.17h0l.08.2.06.21.03.21v.22h.01v.22s-.04.22-.04.22l-.06.21-.08.2h0l-.11.17-.12.15-.15.13-.17.11h0l-.18.08-.19.06-.19.03h-.2s-.21,0-.21,0l-.2-.04-.19-.07-.19-.09Z" /><path class="cls-6" d="m188.97,10.84h0l-.25.04h-.25s-1.13.01-1.13.01v-3.12h1.35s.28.04.28.04h0l.24.08.21.14h0l.22.24.15.29h0l.09.36.03.38h0l-.02.32-.06.31h0l-.09.24-.13.22h0l-.13.15-.15.13h0l-.18.09-.19.06Z" /><path class="cls-6" d="m194.07,10.25v-.58h-.92v-.37h1.32s0,1.15,0,1.15h0l-.3.21-.33.16h0l-.33.09-.34.03h-.22s-.21-.05-.21-.05l-.2-.06-.2-.08h0l-.17-.11-.16-.13-.13-.16-.11-.17h0l-.08-.2-.06-.2-.03-.21v-.22h-.01v-.22s.05-.22.05-.22l.06-.21.08-.2h0l.1-.18.12-.16.15-.13.17-.12h0l.2-.08.2-.06.21-.03h.21s.31.01.31.01l.3.08h0l.23.12.19.18h0l.14.24.09.27-.37.1h0l-.07-.2-.1-.18h0l-.13-.13-.16-.09h0l-.21-.06-.22-.02h0l-.25.02-.24.07h0l-.18.09-.15.13h0l-.11.15-.09.16h0l-.09.31-.03.32h0l.03.36.05.17.06.17h0l.08.13.09.12.12.09.13.08h0l.28.1.3.03h0l.27-.03.26-.08h0l.2-.09.18-.13Z" /><path class="cls-6" d="m197.5,8.15v2.75h-.41v-2.75h-1.03v-.37h2.47v.37h-1.03Z" /><path class="cls-6" d="m79.06,9.14h0l.18-.02.17-.04.16-.08.15-.1h0l.13-.15.11-.16.07-.18.05-.19.47.12h0l-.08.25-.11.23-.15.21-.18.19h0l-.22.13-.23.1-.24.05-.25.02h-.24s-.24-.05-.24-.05l-.23-.08-.22-.11h0l-.17-.14-.15-.16-.12-.18-.1-.2h0l-.08-.23-.06-.23-.03-.24v-.24h-.01v-.25s.05-.25.05-.25l.07-.24.09-.23h0l.12-.19.14-.17.17-.14.18-.12h0l.21-.09.21-.07.22-.04.22-.02h0l.24.02.23.04.22.09.21.12h0l.17.16.15.18.11.2.08.22-.46.11h0l-.06-.16-.08-.15-.1-.13-.12-.12h0l-.14-.08-.14-.06-.15-.03h-.16s-.18,0-.18,0l-.18.03-.17.07-.16.09h0l-.13.11-.11.12-.08.14-.07.15h0l-.08.34-.03.34h0l.03.4.1.39h0l.07.15.09.14.12.12.13.1h0l.29.13.31.04Z" /><path class="cls-6" d="m84.89,6.69v2.78h-.45v-3.54h.48l1.86,2.78v-2.78h.45v3.54h-.48l-1.86-2.78Z" /><path class="cls-6" d="m81.64,8.41l-.39,1.07h-.5l1.36-3.54h.51l1.45,3.54h-.53l-.41-1.07h-1.48Z" /><path class="cls-6" d="m199.07,9.95l-.34.94h-.44l1.2-3.12h.44l1.28,3.12h-.47l-.36-.94h-1.3Z" /><path class="cls-6" d="m195.57,7.78v3.12h-.41v-3.12h.41Z" /><path class="cls-6" d="m190.97,7.78v3.12h-.41v-3.12h.41Z" /><path class="cls-6" d="m153.65,10.25v-.58h-.92v-.37h1.32s0,1.15,0,1.15h0l-.3.21-.33.16h0l-.33.09-.34.03h-.22s-.21-.05-.21-.05l-.2-.07-.2-.08h0l-.17-.11-.16-.13-.13-.16-.11-.17h0l-.08-.2-.06-.2-.03-.21v-.22h-.01v-.22s.05-.22.05-.22l.06-.21.08-.2h0l.1-.18.12-.16.15-.13.17-.12h0l.2-.08.2-.06.21-.03h.21s.31.01.31.01l.3.08h0l.23.12.19.18h0l.14.24.09.27-.37.1h0l-.07-.2-.1-.18h0l-.13-.13-.16-.09h0l-.21-.06-.22-.02h0l-.25.02-.24.07h0l-.18.09-.15.13h0l-.11.15-.09.16h0l-.09.31-.03.32h0l.03.36.05.17.06.17h0l.08.13.09.12.12.09.13.08h0l.28.1.3.03h0l.27-.03.26-.08h0l.2-.09.18-.13Z" /><path class="cls-6" d="m203.47,10.53v.37h-1.95v-3.12h.41v2.75h1.54Z" /><path class="cls-6" d="m143,9.95l-.34.94h-.44l1.2-3.12h.44l1.28,3.12h-.47l-.36-.94h-1.3Z" /><path class="cls-6" d="m136.95,9.95l-.34.94h-.44l1.2-3.12h.44l1.28,3.12h-.47l-.36-.94h-1.3Z" /><path class="cls-6" d="m168.1,5.5h0l.1-.18.07-.19.03-.2v-.21s0-1.8,0-1.8h.41v1.8h0l-.02.38-.09.37h0l-.07.13-.08.12-.11.1-.12.09h0l-.17.08-.18.06-.19.03h-.19s-.37-.02-.37-.02l-.18-.05-.17-.07h0l-.13-.09-.11-.1-.09-.12-.07-.13h0l-.1-.38-.02-.4v-1.8h.41v1.8h0v.3s.08.3.08.3h0l.1.17.16.13h0l.22.08.23.02h.18s.17-.04.17-.04l.16-.07.15-.1Z" /><path class="cls-6" d="m160.58,3.58v2.45h-.4v-3.12h.42l1.64,2.45v-2.45h.4v3.12h-.42l-1.64-2.45Z" /><path class="cls-6" d="m256.25,99.8h1.87l.02.22v.23s.01.23.01.23v.23s-.02.22-.02.22l-.02.22-.03.22-.04.22-.04.22-.05.22-.06.21-.07.21-.07.21-.08.21-.09.2-.09.2-.1.2-.11.19-.11.19-.12.19-.13.18-.13.18-.14.17-.15.17-.15.16-.16.16-.16.15-.17.15-.18.14-.18.14-.19.13-.19.12-.2.12-.2.11-.2.1-.2.09-.21.09-.21.08-.21.07-.21.06-.21.06-.21.05-.22.04-.22.03-.22.03-.21.02h-.21s-.21.01-.21.01h-.21s-.21-.01-.21-.01l-.21-.02-.22-.03-.22-.03-.22-.04-.21-.05-.21-.06-.21-.06-.21-.07-.21-.08-.21-.09-.2-.09-.2-.1-.2-.11-.2-.12-.19-.12-.19-.13-.18-.14-.18-.14-.17-.15-.16-.15-.16-.16-.15-.16-.15-.17-.14-.17-.13-.18-.13-.18-.12-.19-.11-.19-.11-.19-.1-.2-.09-.2-.09-.2-.08-.21-.07-.21-.07-.21-.06-.21-.05-.22-.04-.22-.04-.22-.03-.22-.02-.22v-.22s-.02-.23-.02-.23v-.23s.01-.23.01-.23l.02-.22h1.87l-.03.21-.02.22v.22s0,.21,0,.21l.02.21.03.21.03.21.04.2.05.2.06.2.07.19.08.19.09.19.1.18.11.18.11.17.12.17.13.16.14.16.14.15.15.14.16.14.16.13.17.12.18.11.18.11.19.1.19.09.2.08.2.07.21.06.21.05h.06v-3.74h1.85v3.74h.06s.21-.05.21-.05l.21-.06.2-.07.2-.08.19-.09.19-.1.18-.11.18-.11.17-.12.16-.13.16-.14.15-.14.14-.15.14-.16.13-.16.12-.17.11-.17.11-.18.1-.18.09-.19.08-.19.07-.19.06-.2.05-.2.04-.2.03-.21.03-.21.02-.21v-.21s0-.22,0-.22l-.02-.22-.03-.21Z" /><path class="cls-6" d="m256.41,31.55h1.84v7.53h-1.84v-7.53Z" /><path class="cls-6" d="m256.25,110.71h1.87l.02.22v.23s.01.23.01.23v.23s-.02.22-.02.22l-.02.22-.03.22-.04.22-.04.22-.05.22-.06.21-.07.21-.07.21-.08.21-.09.2-.09.2-.1.2-.11.19-.11.19-.12.19-.13.18-.13.18-.14.17-.15.17-.15.16-.16.16-.16.15-.17.15-.18.14-.18.14-.19.13-.19.12-.2.12-.2.11-.2.1-.2.09-.21.09-.21.08-.21.07-.21.06-.21.06-.21.05-.22.04-.22.03-.22.03-.21.02h-.21s-.21.01-.21.01h-.21s-.21-.01-.21-.01l-.21-.02-.22-.03-.22-.03-.22-.04-.21-.05-.21-.06-.21-.06-.21-.07-.21-.08-.21-.09-.2-.09-.2-.1-.2-.11-.2-.12-.19-.12-.19-.13-.18-.14-.18-.14-.17-.15-.16-.15-.16-.16-.15-.16-.15-.17-.14-.17-.13-.18-.13-.18-.12-.19-.11-.19-.11-.19-.1-.2-.09-.2-.09-.2-.08-.21-.07-.21-.07-.21-.06-.21-.05-.22-.04-.22-.04-.22-.03-.22-.02-.22v-.22s-.02-.23-.02-.23v-.23s.01-.23.01-.23l.02-.22h1.87l-.02.16v.16s-.02.16-.02.16v.16s0,.16,0,.16v.16s.02.16.02.16l.02.16.03.16.03.16.04.15.04.15.05.15.05.15.06.15.06.15.07.14.07.14.08.14.08.14.09.13.09.13.1.13.1.12.11.12.11.12.12.11.12.11.12.1.13.1.13.1.14.09.14.09.14.08.14.08.15.07.15.06.15.06.15.05.15.05.15.04.16.04.16.03.16.03.16.02h.16s.17.02.17.02h.17s.17,0,.17,0h.17s.16-.02.16-.02l.16-.02.16-.03.16-.03.16-.04.15-.04.15-.05.15-.05.15-.06.15-.06.15-.07.14-.08.14-.08.14-.09.14-.09.13-.1.13-.1.12-.1.12-.11.12-.11.11-.12.11-.12.1-.12.1-.13.09-.13.09-.13.08-.14.08-.14.07-.14.07-.14.06-.15.06-.15.05-.15.05-.15.04-.15.04-.15.03-.16.03-.16.02-.16v-.16s.02-.16.02-.16v-.16s0-.16,0-.16v-.16s-.02-.16-.02-.16l-.02-.16Z" /><path class="cls-6" d="m245.32,30.73h.34l2.01,1.98v-.03h.87v.6l3.38.3,2.47-2.35.16.17-1.7,1.62h.09s.15,0,.15,0l.14.04.13.07.11.09.09.11.07.13.04.14.02.15h0l-.03.2-.08.18-.12.15-.15.12v1.84h.36v.47h-.37l-.04.07-.07.03-1.25.11,2.63,2.6-.16.17-2.78-2.74-3.2.27-2.71,2.58h-.34l2.68-2.55-.83.07v.35h-.24v-.3h0l-.17-.07-.14-.12-.12-.16-.09-.17h-.17v-.44h.05l-.06-.35-.03-.36h-.08v-1.23h.11l.03-.35.09-.33h0l.06-.14.07-.14.09-.12.11-.11h0l-.06-.05-.04-.07-.03-.08v-.08h-.01l.03-.13.07-.11.11-.07.13-.03h0l.13.03.11.07.07.11.03.13h0v.08s-.04.08-.04.08l.42.04v-.16l-2.35-2.32Z" /><path class="cls-6" d="m57.69,26.14h0l-.03.29-.07.28-.06.13-.08.12-.18.23h0l-.27.18-.14.08-.15.06-.31.06-.33.02h0l-.35-.02-.17-.03-.16-.05-.15-.07-.15-.09-.28-.22h0l-.15-.22-.11-.23-.06-.25-.02-.26h0l.03-.29.07-.27.06-.13.08-.12.18-.23h0l.26-.18.13-.08.14-.06.3-.06.32-.02h.24s.24.03.24.03l.23.06.23.08h0l.16.1.14.12.12.14.11.16h0l.08.18.06.18.03.19v.19Z" /><path class="cls-6" d="m57.69,22.83h0l-.03.29-.07.28-.06.13-.08.12-.18.23h0l-.27.18-.14.08-.15.06-.31.06-.33.02h0l-.35-.02-.17-.03-.16-.05-.15-.07-.15-.09-.28-.22h0l-.15-.22-.11-.23-.06-.25-.02-.26h0l.03-.29.07-.27.06-.13.08-.12.18-.23h0l.26-.18.13-.08.14-.06.3-.06.32-.02h.24s.24.03.24.03l.23.06.23.08h0l.16.1.14.12.12.14.11.16h0l.08.18.06.18.03.19v.19Z" /><path class="cls-6" d="m45.1,25.8h0l-.04-.26-.12-.23h0l-.1-.11-.11-.09-.26-.13.07-.54h0l.21.08.2.1.17.14.16.16h0l.12.2.09.21.04.23.02.24h0l-.03.3-.07.28-.06.13-.08.12-.18.24h0l-.26.18-.14.08-.14.06-.31.06-.32.02h0l-.33-.02-.31-.06-.15-.06-.14-.08-.27-.18h0l-.19-.23-.08-.12-.06-.13-.07-.27-.03-.29h0l.03-.28.07-.27.06-.12.08-.12.18-.22h0l.27-.18.14-.07.15-.06.31-.06.32-.02h.14v2.3h0l.21-.02.2-.05.19-.09.18-.12h0l.11-.14.09-.15.05-.17.02-.18Z" /><path class="cls-6" d="m45.53,22.68h0v.24s-.05.24-.05.24l-.08.22-.12.21h0l-.16.15-.17.12-.2.08-.21.05-.08-.52h0l.13-.03.13-.05.11-.07.1-.09h0l.08-.13.06-.13.03-.14v-.15h0l-.03-.28-.05-.13-.07-.12h0l-.15-.13-.09-.03-.1-.02h0l-.16.04-.12.11h0l-.1.26-.07.27h0l-.11.4-.14.39h0l-.12.19-.17.15h0l-.2.09-.21.03h0l-.2-.02-.18-.07h0l-.16-.11-.13-.15h0l-.09-.16-.06-.17h0l-.05-.22v-.23h-.01l.02-.32.08-.31h0l.11-.22.17-.18h0l.23-.12.25-.06.07.51h0l-.21.06-.17.14h0l-.06.11-.05.11-.03.25h0l.02.27.04.13.06.12h0l.12.11.16.04h0l.1-.02.09-.05h0l.08-.09.06-.11h0l.13-.46h0l.11-.39.13-.38h0l.11-.19.16-.15h0l.21-.1.23-.03h0l.26.04.23.11h0l.21.19.15.25h0l.1.32.03.33Z" /><path class="cls-6" d="m45.1,19.52h0l-.04-.26-.12-.23h0l-.1-.11-.11-.09-.26-.13.07-.54h0l.21.08.2.1.17.14.16.16h0l.12.2.09.21.04.23.02.24h0l-.03.3-.07.28-.06.13-.08.12-.18.24h0l-.26.18-.14.08-.14.06-.31.06-.32.02h0l-.33-.02-.31-.06-.15-.06-.14-.08-.27-.18h0l-.19-.23-.08-.12-.06-.13-.07-.27-.03-.29h0l.03-.28.07-.27.06-.12.08-.12.18-.22h0l.27-.18.14-.07.15-.06.31-.06.32-.02h.14v2.3h0l.21-.02.2-.05.19-.09.18-.12h0l.11-.14.09-.15.05-.17.02-.18Z" /><path class="cls-6" d="m44.98,16.78h0l.03-.09v-.09h0l-.02-.23.46-.08h0l.03.2v.2h.01l-.02.23-.07.21h0l-.1.13-.14.09h0l-.31.06h-.31s-1.77,0-1.77,0v.38h-.41v-.38h-.76l-.31-.52h1.08v-.52h.41v.52h1.95s.14-.03.14-.03h0l.06-.04.04-.05Z" /><path class="cls-6" d="m43.57,30.74h1.89v.56h-4.25v-1.89h0l.02-.44.09-.43h0l.07-.14.09-.13.11-.11.13-.09h0l.15-.08.16-.06.16-.03h.17s.21,0,.21,0l.2.05.18.1.17.13h0l.15.2.12.22.07.24.05.25h0l.09-.18.12-.16h0l.27-.25.3-.22,1.16-.74v.71l-.88.56h0l-.59.41h0l-.15.13-.13.15h0l-.07.12-.05.13h0l-.02.31v.65Z" /><path class="cls-6" d="m57.14,20.05h0l.03-.09v-.09h0l-.02-.23.46-.08h0l.03.2v.2h.01l-.02.23-.07.21h0l-.1.13-.14.09h0l-.31.06h-.31s-1.77,0-1.77,0v.38h-.41v-.38h-.76l-.31-.52h1.08v-.52h.41v.52h1.95s.14-.03.14-.03h0l.06-.04.04-.05Z" /><path class="cls-6" d="m57.55,29h0l.06.34v.35s.01,1.62.01,1.62h-4.25v-1.6h0l.03-.4.1-.38h0l.07-.14.09-.12.11-.11.12-.09h0l.27-.12.29-.04h0l.27.04.25.11h0l.23.2.16.25h0l.06-.17.08-.16.11-.14.13-.13h0l.15-.09.16-.07.17-.03h.17s.29.02.29.02l.27.1h0l.22.13.18.18h0l.13.22.08.24Z" /><path class="cls-15" d="m53.27,35.56c0,1.17.95,2.13,2.13,2.13s2.13-.95,2.13-2.13h0c0-1.17-.95-2.13-2.13-2.13s-2.13.95-2.13,2.13Z" /><path class="cls-15" d="m41.23,35.56c0,1.17.95,2.13,2.13,2.13s2.13-.95,2.13-2.13h0c0-1.17-.95-2.13-2.13-2.13s-2.13.95-2.13,2.13Z" /><path class="cls-6" d="m5.79,70.99c0,4.7,3.8,8.51,8.5,8.51,4.7,0,8.51-3.8,8.51-8.5h0c0-4.71-3.8-8.52-8.5-8.52-4.7,0-8.51,3.8-8.51,8.5h0Z" /><path class="cls-6" d="m260.91,70.99c0,4.7,3.8,8.51,8.5,8.51,4.7,0,8.51-3.8,8.51-8.5h0c0-4.71-3.8-8.52-8.5-8.52-4.7,0-8.51,3.8-8.51,8.5h0Z" /><path class="cls-8" d="m175.02,12.31v-5.1h.57v5.1h39.4c.78,0,1.42.63,1.42,1.42h0v18.14c0,.78-.63,1.42-1.42,1.42h-99.78c-.78,0-1.42-.63-1.42-1.42h0V13.73c0-.78.63-1.42,1.42-1.42h59.81Z" /><path class="cls-8" d="m67.16,33.29c-.78,0-1.42-.63-1.42-1.42h0V13.73c0-.78.63-1.42,1.42-1.42h30.33c.78,0,1.42.63,1.42,1.42h0v18.14c0,.78-.63,1.42-1.42,1.42h-30.33Z" /><path class="cls-8" d="m67.16,129.66c-.78,0-1.42-.63-1.42-1.42v-18.14c0-.78.63-1.42,1.42-1.42h30.33c.78,0,1.42.63,1.42,1.42v18.14c0,.78-.63,1.42-1.42,1.42h-30.33Z" /><path class="cls-8" d="m212.3,108.69c.78,0,1.42.63,1.42,1.42h0v18.14c0,.78-.63,1.42-1.42,1.42h-79.94c-.78,0-1.42-.63-1.42-1.42v-18.14c0-.78.63-1.42,1.42-1.42h79.94Z" /><path class="cls-3" d="m174.31,49.16c0-.78.63-1.42,1.42-1.42h39.97c.78,0,1.42.63,1.42,1.42v43.65c0,.78-.63,1.42-1.42,1.42h-39.97c-.78,0-1.42-.63-1.42-1.42h0v-43.65Z" /><path class="cls-4" d="m156.74,64.61h4.25c1.17,0,2.13-.95,2.13-2.13s-.95-2.13-2.13-2.13h-4.25c-1.17,0-2.13.95-2.13,2.13s.95,2.13,2.13,2.13Z" /><path class="cls-7" d="m156.74,81.62h4.25c1.17,0,2.13-.95,2.13-2.13s-.95-2.13-2.13-2.13h-4.25c-1.17,0-2.13.95-2.13,2.13s.95,2.13,2.13,2.13Z" /><path class="cls-6" d="m70.99.98C32.32.98.98,32.33.98,71c0,38.66,31.35,70.01,70.01,70.01h141.73c38.67,0,70.01-31.35,70.01-70.02,0-38.66-31.35-70.01-70.01-70.01H70.99Z" /><path class="cls-6" d="m52.69,60.01c.35.68.53,1.44.53,2.21v17.54c0,.77-.18,1.52-.53,2.21-.7,1.39-2.12,2.26-3.67,2.26h-1.42c-1.55,0-2.97-.87-3.67-2.26-.35-.68-.53-1.44-.53-2.21v-17.54c0-.77.18-1.52.53-2.21.7-1.39,2.12-2.26,3.67-2.26h1.42c1.55,0,2.97.87,3.67,2.26Z" /><path class="cls-7" d="m68.87,81.62h4.25c1.17,0,2.13-.95,2.13-2.13s-.95-2.13-2.13-2.13h-4.25c-1.17,0-2.13.95-2.13,2.13s.95,2.13,2.13,2.13h0Z" /><path class="cls-7" d="m68.87,64.61h4.25c1.17,0,2.13-.95,2.13-2.13s-.95-2.13-2.13-2.13h-4.25c-1.17,0-2.13.95-2.13,2.13s.95,2.13,2.13,2.13h0Z" /><path class="cls-6" d="m93.53,103.78h.42v2.64h-3.54v-2.56h.42v2.09h1.09v-1.96h.42v1.96h1.21v-2.18Z" /><path class="cls-6" d="m83.3,103.61h-.66v1.04h-.42v-1.5s1.31,0,1.31,0h0l.24.34.18.37h0l.1.37.04.38h0l-.02.25-.04.24-.07.23-.1.23h0l-.13.2-.15.18-.18.15-.2.13h0l-.23.09-.23.07-.24.04-.25.02h0l-.25-.02-.25-.04-.24-.07-.23-.09h0l-.2-.12-.18-.14-.15-.17-.13-.19h0l-.09-.22-.07-.23-.04-.24v-.24h-.01l.03-.35.1-.34h0l.14-.27.21-.22h0l.28-.16.3-.1.12.42h0l-.22.08-.2.12h0l-.15.15-.1.19h0l-.07.24-.02.25h0l.02.28.08.27h0l.11.2.15.17h0l.17.13.18.1h0l.35.1.36.03h0l.41-.03.2-.05.19-.07h0l.15-.09.13-.11.11-.13.09-.15h0l.12-.32.04-.34h0l-.03-.3-.09-.29h0l-.11-.23-.14-.21Z" /><path class="cls-6" d="m83.97,97.03h0l.05.28v.29s.01,1.28.01,1.28h-3.54v-1.22h0v-.32s.05-.31.05-.31h0l.1-.28.16-.24h0l.13-.13.14-.12.16-.09.17-.08h0l.41-.11.43-.03h0l.36.02.35.07h0l.27.1.25.14h0l.18.15.15.18h0l.11.2.07.22Z" /><path class="cls-6" d="m74.05,94.7h0l.05.28v.29s.01,1.28.01,1.28h-3.54v-1.22h0v-.32s.05-.31.05-.31h0l.1-.28.16-.24h0l.13-.13.14-.12.16-.09.17-.08h0l.41-.11.43-.03h0l.36.02.35.07h0l.27.1.25.14h0l.18.15.15.18h0l.11.2.07.22Z" /><path class="cls-6" d="m70.57,100.55l3.54,1.39v.48l-3.54,1.37v-.51l2.57-.92h0l.58-.19h0l-.58-.19-2.57-.96v-.48Z" /><path class="cls-1" d="m89.7,62.17l-.76,3.01h-.69s-1.23-3.88-1.23-3.88h.68s.64,2.24.64,2.24l.24.84h0l.19-.81.6-2.29h.68s.61,2.25.61,2.25l.2.74.22-.76.65-2.26h.64s-1.18,3.91-1.18,3.91h-.69s-.64-2.32-.64-2.32l-.16-.66Z" /><path class="cls-6" d="m89.33,81.53h.17s.16-.05.16-.05l.15-.06.14-.08h0l.13-.13.11-.14.09-.16.07-.17.68.08h0l-.09.27-.12.25-.17.22-.2.2h0l-.26.15-.27.11-.29.06-.3.02h0l-.38-.03-.18-.03-.18-.05-.17-.08-.16-.1-.3-.23h0l-.23-.33-.1-.17-.07-.18-.05-.19-.03-.2-.03-.4h0l.02-.42.03-.2.05-.2.07-.19.09-.18.23-.35h0l.29-.24.15-.1.16-.08.17-.06.18-.04.37-.04h0l.36.03.17.03.17.05.16.08.15.1.28.23h0l.23.34.1.18.07.18.05.19.03.2.03.41h0v.18s-2.91.03-2.91.03h0l.03.27.06.26.12.23.16.22h0l.18.14.19.11.22.06.23.02Z" /><path class="cls-6" d="m92.51,79.91l.02,2.04h-.66s-.04-3.89-.04-3.89h.6s0,.59,0,.59h0l.18-.3.24-.25h0l.2-.1.22-.04h0l.18.02.17.04.17.07.16.08-.22.62h0l-.23-.1-.25-.04h0l-.21.03-.18.1h0l-.15.16-.09.2h0l-.08.38-.02.39Z" /><path class="cls-1" d="m94.6,64.67h.17s.16-.05.16-.05l.15-.06.14-.08h0l.13-.13.11-.14.09-.16.07-.17.68.08h0l-.09.27-.12.25-.17.22-.2.2h0l-.26.15-.27.11-.29.06-.3.02h0l-.38-.03-.18-.03-.18-.05-.17-.08-.16-.1-.3-.23h0l-.23-.33-.1-.17-.07-.18-.05-.19-.03-.2-.03-.4h0l.02-.42.03-.2.05-.2.07-.19.09-.18.23-.35h0l.29-.24.15-.1.16-.08.17-.06.18-.04.37-.04h0l.36.03.17.03.17.05.16.08.15.1.28.23h0l.23.34.1.18.07.18.05.19.03.2.03.41h0v.18s-2.91.03-2.91.03h0l.03.27.06.26.12.23.16.22h0l.18.14.19.11.22.06.23.02Z" /><path class="cls-6" d="m93.61,47.1h0l-.02-.18-.04-.17-.08-.16-.1-.15h0l-.15-.13-.16-.11-.18-.07-.19-.05.12-.47h0l.25.08.23.11.21.15.19.18h0l.13.22.1.23.05.24.02.25h0v.24s-.05.24-.05.24l-.08.23-.11.22h0l-.14.17-.16.15-.18.12-.2.1h0l-.23.08-.23.06-.24.03h-.24s-.25,0-.25,0l-.25-.03-.24-.07-.23-.09h0l-.19-.12-.17-.14-.14-.17-.12-.18h0l-.09-.21-.07-.21-.04-.22-.02-.22h0l.02-.24.04-.23.09-.22.12-.21h0l.16-.17.18-.15.2-.11.22-.08.11.46h0l-.16.06-.15.08-.13.1-.12.12h0l-.08.14-.06.14-.03.15v.16h-.01v.18s.04.18.04.18l.07.17.09.16h0l.11.13.12.11.14.08.15.07h0l.34.08.34.03h0l.4-.03.39-.1h0l.15-.07.14-.09.12-.12.1-.13h0l.13-.29.04-.31Z" /><path class="cls-6" d="m91.17,41.27h2.78v.45h-3.54v-.48l2.78-1.86h-2.78v-.45h3.54v.48l-2.78,1.86Z" /><path class="cls-6" d="m83.69,47.7h0l-.02-.18-.04-.17-.08-.16-.1-.15h0l-.15-.13-.16-.11-.18-.07-.19-.05.12-.47h0l.25.08.23.11.21.15.19.18h0l.13.22.1.23.05.24.02.25h0v.24s-.05.24-.05.24l-.08.23-.11.22h0l-.14.17-.16.15-.18.12-.2.1h0l-.23.08-.23.06-.24.03h-.24s-.25,0-.25,0l-.25-.03-.24-.07-.23-.09h0l-.19-.12-.17-.14-.14-.17-.12-.18h0l-.09-.21-.07-.21-.04-.22-.02-.22h0l.02-.24.04-.23.09-.22.12-.21h0l.16-.17.18-.15.2-.11.22-.08.11.46h0l-.16.06-.15.08-.13.1-.12.12h0l-.08.14-.06.14-.03.15v.16h-.01v.18s.04.18.04.18l.07.17.09.16h0l.11.13.12.11.14.08.15.07h0l.34.08.34.03h0l.4-.03.39-.1h0l.15-.07.14-.09.12-.12.1-.13h0l.13-.29.04-.31Z" /><path class="cls-6" d="m81.25,41.87h2.78v.45h-3.54v-.48l2.78-1.86h-2.78v-.45h3.54v.48l-2.78,1.86Z" /><path class="cls-6" d="m73.38,43.6h-.66v1.04h-.42v-1.5s1.31,0,1.31,0h0l.24.34.18.37h0l.1.37.04.38h0l-.02.25-.04.24-.07.23-.1.23h0l-.13.2-.15.18-.18.15-.2.13h0l-.23.09-.23.07-.24.04-.25.02h0l-.25-.02-.25-.04-.24-.07-.23-.09h0l-.2-.12-.18-.14-.15-.17-.13-.19h0l-.09-.22-.07-.23-.04-.24v-.24h-.01l.03-.35.1-.34h0l.14-.27.21-.22h0l.28-.16.3-.1.12.42h0l-.22.08-.2.12h0l-.15.15-.1.19h0l-.07.24-.02.25h0l.02.28.08.27h0l.11.2.15.17h0l.17.13.18.1h0l.35.1.36.03h0l.41-.03.2-.05.19-.07h0l.15-.09.13-.11.11-.13.09-.15h0l.12-.32.04-.34h0l-.03-.3-.09-.29h0l-.11-.23-.14-.21Z" /><path class="cls-6" d="m74.05,37.02h0l.05.28v.29s.01,1.28.01,1.28h-3.54v-1.22h0v-.32s.05-.31.05-.31h0l.1-.28.16-.24h0l.13-.13.14-.12.16-.09.17-.08h0l.41-.11.43-.03h0l.36.02.35.07h0l.27.1.25.14h0l.18.15.15.18h0l.11.2.07.22Z" /><path class="cls-6" d="m71.32,42h2.78v.45h-3.54v-.48l2.78-1.86h-2.78v-.45h3.54v.48l-2.78,1.86Z" /><path class="cls-6" d="m82.96,45.11l1.07.39v.5l-3.54-1.36v-.51l3.54-1.45v.53l-1.07.41v1.48Z" /><path class="cls-6" d="m82.36,38.25h1.67v.47h-3.54v-.47h1.46v-1.84h-1.46v-.47h3.54v.47h-1.67v1.84Z" /><path class="cls-6" d="m92.88,44.52l1.07.39v.5l-3.54-1.36v-.51l3.54-1.45v.53l-1.07.41v1.48Z" /><path class="cls-6" d="m93.53,35.94h.42v2.21h-3.54v-.47h3.13v-1.75Z" /><path class="cls-1" d="m84.93,65.31h0l-.37-.03-.18-.03-.17-.05-.16-.08-.15-.1-.29-.23h0l-.23-.34-.1-.18-.08-.18-.05-.19-.03-.2-.03-.41h0l.03-.45.03-.22.06-.21.09-.2.11-.19.27-.35h0l.28-.19.14-.08.15-.06.32-.08.33-.03h0l.37.03.18.03.17.05.16.08.15.1.29.22h0l.23.32.1.17.08.18.05.19.03.19.03.4h0v.31s-.04.3-.04.3l-.07.29-.1.29h0l-.13.2-.15.18-.18.15-.2.14h0l-.22.1-.23.08-.24.04-.25.02Z" /><path class="cls-6" d="m85.33,82.12h-.31s-.3-.06-.3-.06l-.28-.1-.27-.14h0l-.19-.2-.16-.22-.1-.25-.07-.27.65-.11h0l.04.17.06.16.1.14.12.13h0l.16.09.17.07.18.03h.19s.18,0,.18,0l.17-.03.16-.06.16-.09h0l.09-.09.07-.1.04-.12.02-.13h0l-.02-.11-.03-.1-.06-.08-.08-.07h0l-.33-.13-.35-.09h0l-.51-.13-.5-.18h0l-.24-.15-.19-.22h0l-.11-.25-.04-.27h0l.03-.25.09-.23h0l.14-.2.18-.17h0l.2-.12.22-.08h0l.28-.06.29-.02h0l.41.03.4.1h0l.28.14.12.1.11.11h0l.15.29.08.31-.65.09h0l-.03-.13-.05-.13-.08-.11-.1-.1h0l-.14-.08-.15-.06-.15-.02h-.16s-.17,0-.17,0l-.17.02-.16.05-.15.08h0l-.08.07-.06.08-.03.1-.02.1h0l.02.12.06.11h0l.12.1.14.07h0l.59.16h0l.5.13.49.16h0l.24.14.19.2h0l.07.13.05.14.04.3h0v.17s-.05.16-.05.16l-.06.15-.08.15h0l-.11.14-.13.13-.15.1-.16.09h0l-.2.07-.2.06-.42.04Z" /><path class="cls-6" d="m81.77,81.16h0l.17-.32.07-.16.05-.17.04-.35v-.36s-.03-3.11-.03-3.11h.71s.03,3.1.03,3.1h0v.33s-.03.33-.03.33l-.06.32-.08.32h0l-.12.23-.14.21-.18.18-.21.16h0l-.3.14-.31.1-.32.05-.33.02h-.32s-.32-.05-.32-.05l-.31-.08-.3-.12h0l-.22-.14-.19-.17-.15-.21-.13-.23h0l-.1-.33-.07-.33-.03-.34v-.34s-.04-3.11-.04-3.11h.71s.03,3.1.03,3.1h0l.03.52.05.26.07.25h0l.08.15.1.14.13.11.14.1h0l.19.08.19.06.2.03h.2s.31,0,.31,0l.29-.05.14-.05.13-.07.25-.17Z" /><path class="cls-1" d="m97.78,63.05l.02,2.04h-.66s-.04-3.89-.04-3.89h.6s0,.59,0,.59h0l.18-.3.24-.25h0l.2-.1.22-.04h0l.18.02.17.04.17.07.16.08-.22.62h0l-.23-.1-.25-.04h0l-.21.03-.18.1h0l-.15.16-.09.2h0l-.08.38-.02.39Z" /><path class="cls-1" d="m79.1,63.09l.02,2.19h-.71s-.05-5.38-.05-5.38l2.03-.02h.41s.41.04.41.04h0l.35.09.32.16h0l.13.11.12.12.19.29h0l.13.36.04.38h0l-.03.32-.07.3-.06.14-.08.14-.18.26h0l-.35.24-.18.1-.19.07-.2.04-.21.03-.43.02h-1.38Z" /><path class="cls-6" d="m74.05,98.28h0l.05.28v.29s.01,1.28.01,1.28h-3.54v-1.22h0v-.32s.05-.31.05-.31h0l.1-.28.16-.24h0l.13-.13.14-.12.16-.09.17-.08h0l.41-.11.43-.03h0l.36.02.35.07h0l.27.1.25.14h0l.18.15.15.18h0l.11.2.07.22Z" /><path class="cls-6" d="m72.56,105.05h.97v.41h-.97v.96h-.41v-.96h-.96v-.41h.96v-.96h.41v.96Z" /><path class="cls-6" d="m81.25,102.01h2.78v.45h-3.54v-.48l2.78-1.86h-2.78v-.45h3.54v.48l-2.78,1.86Z" /><path class="cls-6" d="m90.83,101.76h3.13v.47h-3.13v1.17h-.42v-2.81h.42v1.17Z" /><path class="cls-6" d="m40.14,74.19h0l-.25-.13-.26-.09-.28-.03h-.29s-2.45,0-2.45,0v-.56h2.46l.52.03.25.05.25.07h0l.18.1.17.12.14.15.12.17h0l.11.24.08.24.04.25v.26h.01v.25s-.04.25-.04.25l-.07.24-.09.23h0l-.12.17-.13.15-.16.12-.18.1h0l-.26.08-.26.06-.27.02h-.27s-2.46,0-2.46,0v-.56h2.45l.41-.02.4-.09h0l.12-.06.11-.08.09-.1.08-.11h0l.11-.3.03-.32h0v-.24s-.05-.23-.05-.23l-.1-.21-.13-.2Z" /><path class="cls-6" d="m40.76,71.77h0l-.1.18-.11.16-.14.14-.16.13h0l-.18.1-.19.08-.2.04-.2.02-.05-.53h0l.27-.06.25-.12h0l.2-.19.13-.24h0l.1-.32.03-.33h0l-.02-.29-.07-.28h0l-.1-.2-.16-.16h0l-.17-.09-.19-.03h0l-.18.03-.16.09h0l-.15.17-.1.21h0l-.11.38-.09.38h0l-.11.42-.16.4h0l-.17.25-.23.2h0l-.25.11-.28.04h-.16s-.15-.05-.15-.05l-.15-.06-.14-.08h0l-.13-.11-.12-.12-.09-.14-.08-.16h0l-.11-.38-.03-.4h0l.03-.42.12-.41h0l.08-.16.1-.15.12-.13.14-.12h0l.16-.08.16-.07.17-.04.18-.02.04.54h0l-.17.03-.16.05-.14.09-.13.12h0l-.1.17-.07.18-.03.19v.2h0v.2s.03.19.03.19l.06.18.09.17h0l.09.1.1.08.12.04.13.02h.11s.1-.04.1-.04l.09-.05.08-.07h0l.11-.2.09-.21.11-.44h0l.12-.48.16-.46h0l.18-.3.12-.13.13-.12h0l.14-.08.15-.06.16-.03h.16s.17,0,.17,0l.16.03.16.06.15.08h0l.14.12.13.13.1.15.09.16h0l.07.2.06.2.04.42h0v.25s-.04.24-.04.24l-.06.24-.08.24Z" /><path class="cls-6" d="m40.79,66.18h0l.06.34v.35s.01,1.62.01,1.62h-4.25v-1.6h0l.03-.4.1-.38h0l.07-.14.09-.12.11-.11.12-.09h0l.27-.12.29-.04h0l.27.04.25.11h0l.23.2.16.25h0l.06-.17.08-.16.11-.14.13-.13h0l.15-.09.16-.07.17-.03h.17s.29.02.29.02l.27.1h0l.22.13.18.18h0l.13.22.08.24Z" /><path class="cls-6" d="m229.32,98.1h0l-.02-.22-.05-.21-.1-.2-.13-.18h0l-.21-.17-.23-.14-.25-.1-.26-.07.37-1.15h0l.41.14.2.08.19.1.17.12.16.14.31.3h0l.21.36.09.19.07.19.05.2.03.2.03.42h0l-.06.54-.05.26-.08.25-.12.23-.15.22-.34.42h0l-.49.34-.26.14-.27.11-.28.07-.29.05-.6.04h0l-.62-.04-.3-.04-.29-.07-.28-.11-.27-.14-.52-.34h0l-.35-.44-.15-.23-.12-.24-.08-.26-.05-.27-.06-.56h0l.04-.48.04-.23.06-.23.09-.21.12-.2.28-.39h0l.24-.2.26-.17.28-.13.3-.1.28,1.18h0l-.21.07-.19.09-.17.13-.15.15h0l-.12.19-.09.19-.04.21-.02.22h0l.03.3.03.15.05.14.07.13.09.12.2.23h0l.35.2.18.08.19.06.19.04.2.02h.41s.42,0,.42,0l.21-.02.2-.04.2-.06.19-.08.37-.2h0l.2-.22.09-.12.07-.13.05-.14.03-.14.04-.3Z" /><path class="cls-6" d="m226.39,87.1h3.84v1.1h-5.89v-1.16l3.93-2.41h-3.93v-1.1h5.89v1.19l-3.84,2.37Z" /><path class="cls-6" d="m227.78,76.06h2.46v1.19h-5.89v-2.5h0v-.35s.02-.35.02-.35l.05-.34.08-.34h0l.1-.2.12-.19.16-.16.18-.14h0l.22-.11.23-.08.24-.04.24-.02h0l.3.03.29.06.26.13.25.17h0l.21.26.09.13.08.14.1.31.07.32h0l.22-.34.27-.3h0l.46-.36.49-.32,1.15-.72v1.42l-1.28.86h0l-.44.3-.42.33h0l-.14.16-.1.19h0l-.06.3v.3s-.01.24-.01.24Z" /><path class="cls-6" d="m229.24,60.73h.99v4.15h-5.84v-1.19h4.85v-2.96Z" /><path class="cls-6" d="m239.26,63.63h0l-.15.24-.17.22-.21.18-.24.16h0l-.3.12-.31.09-.32.04-.32.02h0l-.28-.02-.28-.05-.27-.09-.26-.12h0l-.24-.15-.22-.18-.18-.22-.16-.24h0l-.12-.27-.09-.28-.05-.29-.02-.3h0l.04-.44.04-.21.06-.2.09-.19.12-.18.27-.35h0l.35-.27.18-.11.19-.09.2-.06.21-.04.44-.04h0l.45.04.22.04.21.06.2.09.19.12.36.27h0l.27.35.12.18.09.19.07.2.04.21.05.44h0l-.02.29-.05.28-.09.27-.11.27Z" /><path class="cls-6" d="m226.39,51.45h3.84v1.1h-5.89v-1.16l3.93-2.41h-3.93v-1.1h5.89v1.19l-3.84,2.37Z" /><path class="cls-6" d="m234.79,80.28h4.64v1.1h-5.89v-1.78l4.02-1.07-4.02-1.06v-1.78h5.89v1.1h-4.64l4.64,1.17v1.15l-4.64,1.17Z" /><path class="cls-6" d="m235.16,73.39h4.27v1.13h-4.27v-1.13Z" /><path class="cls-6" d="m236.68,66.48h0l.36.05.36.03h.72s1.32,0,1.32,0v1.13h-4.27v-1.05h.61l-.31-.21-.13-.13-.12-.14h0l-.1-.23-.03-.25h0l.02-.2.04-.19.07-.18.09-.18.98.35h0l-.13.25-.05.28h0l.03.21.1.19h0l.1.09.11.07.26.09Z" /><path class="cls-6" d="m221.37,12.17h.57v117.64h-.57V12.17Z" /><path class="cls-6" d="m235.06,70.41h0l.02-.33.05-.32.11-.3.15-.29h0l.22-.22.24-.19.27-.14.29-.11.2,1.11h0l-.14.03-.13.05-.12.08-.11.1h0l-.07.12-.06.12-.03.13v.14h-.01l.02.19.05.18.1.16.13.14h0l.23.12.24.09.25.03h.26s.28,0,.28,0l.28-.03.26-.09.25-.13h0l.13-.15.1-.16.05-.18.02-.2h0v-.14s-.04-.14-.04-.14l-.06-.13-.08-.12h0l-.14-.11-.15-.09-.17-.06-.17-.04.19-1.11h0l.33.1.31.13.14.09.13.11.25.24h0l.18.3.07.16.06.16.06.34.02.35h0l-.04.42-.04.2-.06.19-.09.18-.11.17-.26.33h0l-.37.25-.19.11-.2.08-.21.05-.22.03-.45.03h0l-.45-.03-.22-.03-.21-.05-.2-.08-.19-.11-.37-.25h0l-.26-.33-.11-.17-.09-.18-.06-.19-.04-.2-.04-.42Z" /><path class="cls-6" d="m233.54,73.39h1.04v1.13h-1.04v-1.13Z" /><path class="cls-6" d="m230.34,44h0l-.05.58-.05.28-.08.27-.12.25-.15.24-.35.46h0l-.5.35-.26.15-.27.11-.28.08-.29.05-.61.05h-.39s-.38-.06-.38-.06l-.37-.09-.37-.12h0l-.43-.24-.38-.31h0l-.16-.17-.14-.18-.12-.2-.11-.21h0l-.1-.31-.08-.31-.04-.32v-.33h-.01l.05-.58.05-.28.08-.27.12-.25.15-.24.35-.46h0l.5-.35.26-.15.27-.11.29-.08.3-.05.62-.04h0l.61.04.3.05.29.08.27.11.26.15.5.35h0l.35.46.15.24.12.25.08.27.05.28.05.58Z" /><path class="cls-6" d="m224.35,53.7h5.89v1.19h-5.89v-1.19Z" /><path class="cls-6" d="m229.24,55.7h.99v4.15h-5.84v-1.19h4.85v-2.96Z" /><path class="cls-6" d="m230.34,68.68h0l-.05.58-.05.28-.08.27-.12.25-.15.24-.35.46h0l-.5.35-.26.15-.27.11-.28.08-.29.05-.61.05h-.39s-.38-.06-.38-.06l-.37-.09-.37-.12h0l-.43-.24-.38-.31h0l-.16-.17-.14-.18-.12-.2-.11-.21h0l-.1-.31-.08-.31-.04-.32v-.33h-.01l.05-.58.05-.28.08-.27.12-.25.15-.24.35-.46h0l.5-.35.26-.15.27-.11.29-.08.3-.05.62-.04h0l.61.04.3.05.29.08.27.11.26.15.5.35h0l.35.46.15.24.12.25.08.27.05.28.05.58Z" /><path class="cls-6" d="m225.34,79.76h4.89v1.19h-4.89v1.75h-1v-4.68h1v1.74Z" /><path class="cls-6" d="m230.34,91.99h0l-.05.58-.05.28-.08.27-.12.25-.15.24-.35.46h0l-.5.35-.26.15-.27.11-.28.08-.29.05-.61.05h-.39s-.38-.06-.38-.06l-.37-.09-.37-.12h0l-.43-.24-.38-.31h0l-.16-.17-.14-.18-.12-.2-.11-.21h0l-.1-.31-.08-.31-.04-.32v-.33h-.01l.05-.58.05-.28.08-.27.12-.25.15-.24.35-.46h0l.5-.35.26-.15.27-.11.29-.08.3-.05.62-.04h0l.61.04.3.05.29.08.27.11.26.15.5.35h0l.35.46.15.24.12.25.08.27.05.28.05.58Z" /><path class="cls-6" d="m163.12,135.86h0l-.18-.13-.16-.15-.13-.18-.12-.19h0l-.09-.21-.07-.22-.03-.22-.02-.23h0l.03-.38.03-.18.05-.18.07-.17.09-.16.21-.31h0l.27-.22.14-.09.15-.07.16-.05.17-.03.34-.04h0l.23.02.23.04.22.08.21.1h0l.18.13.17.15.13.18.12.19h0l.09.23.07.23.03.24v.25h.01v.25s-.05.25-.05.25l-.07.24-.09.23h0l-.12.19-.14.18-.17.15-.19.13h0l-.21.09-.21.07-.22.04-.22.02h0l-.24-.02-.23-.04-.22-.08-.21-.1Z" /><path class="cls-6" d="m171.26,132.92v3.13h-.47v-3.13h-1.17v-.42h2.81v.42h-1.17Z" /><path class="cls-6" d="m173.38,134.61v1.44h-.47v-3.54h1.61s.27.03.27.03h0l.23.06.21.11h0l.16.15.12.19h0l.08.24.03.25h0l-.02.21-.05.2-.09.18-.12.17h0l-.23.15-.12.06-.13.04-.27.04h-.28s-.91,0-.91,0Z" /><path class="cls-6" d="m69.69,136.1h-.18s-.18-.05-.18-.05l-.16-.08-.15-.1h0l-.12-.14-.1-.15-.06-.17-.04-.18.42-.04h0l.07.23.14.2h0l.18.1.2.03h0l.18-.02.17-.07h0l.14-.11.11-.14h0l.1-.2.07-.21h0l.05-.26.02-.27h0v-.09h0l-.16.19-.2.15h0l-.24.1-.25.03h0l-.21-.02-.2-.05-.18-.1-.16-.13h0l-.13-.19-.1-.2-.05-.22-.02-.23h0l.02-.24.05-.23.11-.21.14-.19h0l.17-.14.19-.11.21-.06.22-.02h.17s.16.05.16.05l.15.06.15.08h0l.14.11.12.12.1.14.08.16h0l.07.24.05.25.03.51h0l-.03.55-.05.27-.07.27h0l-.08.18-.09.16-.12.14-.14.13h0l-.16.09-.17.07-.18.04h-.18Z" /><path class="cls-6" d="m77.35,134.54v.44h-1.34v-.44h1.34Z" /><path class="cls-6" d="m94.51,135.7h0l.18-.02.17-.04.16-.08.15-.1h0l.13-.15.11-.16.07-.18.05-.19.47.12h0l-.08.25-.11.23-.15.21-.18.19h0l-.22.13-.23.1-.24.05-.25.02h-.24s-.24-.05-.24-.05l-.23-.08-.22-.11h0l-.17-.14-.15-.16-.12-.18-.1-.2h0l-.08-.23-.06-.23-.03-.24v-.24h-.01v-.25s.05-.25.05-.25l.07-.24.09-.23h0l.12-.19.14-.17.17-.14.18-.12h0l.21-.09.21-.07.22-.04.22-.02h0l.24.02.23.04.22.09.21.12h0l.17.16.15.18.11.2.08.22-.46.11h0l-.06-.16-.08-.15-.1-.13-.12-.12h0l-.14-.08-.14-.06-.15-.03h-.16s-.18,0-.18,0l-.18.03-.17.07-.16.09h0l-.13.11-.11.12-.08.14-.07.15h0l-.08.34-.03.34h0l.03.4.1.39h0l.07.15.09.14.12.12.13.1h0l.29.13.31.04Z" /><path class="cls-6" d="m87.65,132.5l-1.39,3.54h-.48l-1.37-3.54h.51l.92,2.57h0l.19.58h0l.19-.58.96-2.57h.48Z" /><path class="cls-6" d="m91.29,135.98h0l-.28.05h-.29s-1.28.01-1.28.01v-3.54h1.54s.31.05.31.05h0l.28.1.24.16h0l.13.13.12.14.09.16.08.17h0l.11.41.03.43h0l-.02.36-.07.35h0l-.1.27-.14.25h0l-.15.18-.18.15h0l-.2.11-.22.07Z" /><path class="cls-6" d="m83.09,132.48h0l.19.02.18.04.16.08.16.1h0l.12.14.1.15.06.17.04.18-.43.03h0l-.06-.2-.11-.18h0l-.09-.08-.1-.06-.12-.03h-.12s-.19.01-.19.01l-.17.09h0l-.19.2-.13.24h0l-.1.4-.02.42h0l.17-.2.22-.15h0l.23-.09.25-.03h0l.21.03.2.06.17.1.16.13h0l.13.19.1.2.05.22.02.23h0l-.04.32-.11.3h0l-.17.25-.23.19h0l-.27.12-.3.04h0l-.25-.03-.24-.07-.21-.13-.19-.17h0l-.17-.31-.07-.16-.05-.16-.05-.34v-.35h-.01v-.4s.07-.38.07-.38l.05-.18.07-.18.18-.35h0l.19-.17.21-.13.24-.07.26-.03Z" /><path class="cls-6" d="m80.21,136.11h0l-.21-.02-.2-.05-.19-.09-.17-.12h0l-.14-.16-.11-.17-.07-.19-.04-.2.44-.06h0l.09.29.08.13.09.12h0l.1.07.1.05.24.04h0l.14-.02.14-.04.12-.07.11-.09h0l.09-.12.07-.12.04-.14.02-.15h0v-.14s-.05-.13-.05-.13l-.06-.12-.08-.11h0l-.11-.08-.12-.06-.13-.03h-.14s-.15,0-.15,0l-.15.03.05-.38h.07s.26-.03.26-.03l.24-.11h0l.1-.09.07-.1.04-.12v-.13h.01l-.04-.22-.05-.09-.07-.09h0l-.09-.07-.1-.05-.23-.04h0l-.23.04-.1.05-.09.07h0l-.08.11-.07.11-.07.26-.44-.08h0l.05-.19.07-.18.11-.16.13-.15h0l.16-.1.17-.08.18-.04.19-.02h0l.27.03.26.09h0l.21.14.16.2h0l.1.22.03.24h0l-.03.22-.09.2h0l-.16.18-.2.12h0l.14.05.13.06.11.09.1.11h0l.08.13.06.14.03.15v.15h.01l-.03.22-.06.21-.11.19-.14.17h0l-.19.14-.2.11-.22.05-.24.02Z" /><path class="cls-6" d="m74.44,132.5l-1.39,3.54h-.48l-1.37-3.54h.51l.92,2.57h0l.19.58h0l.19-.58.96-2.57h.48Z" /><path class="cls-6" d="m178.32,135.45h0l.11-.21.08-.22.03-.23v-.24s0-2.04,0-2.04h.47v2.05h0l-.02.43-.1.42h0l-.08.15-.1.14-.12.12-.14.1h0l-.2.09-.2.07-.21.03h-.22s-.21,0-.21,0l-.21-.03-.2-.06-.2-.08h0l-.14-.1-.13-.11-.1-.14-.08-.15h0l-.06-.22-.05-.22-.03-.45v-2.05h.47v2.04h0v.34s.09.34.09.34h0l.12.19.18.14h0l.25.09.26.03h.2s.19-.04.19-.04l.18-.08.17-.11Z" /><path class="cls-6" d="m181.16,132.92v3.13h-.47v-3.13h-1.17v-.42h2.81v.42h-1.17Z" /><path class="cls-6" d="m168.42,135.45h0l.11-.21.08-.22.03-.23v-.24s0-2.04,0-2.04h.47v2.05h0l-.02.43-.1.42h0l-.08.15-.1.14-.12.12-.14.1h0l-.2.09-.2.07-.21.03h-.22s-.21,0-.21,0l-.21-.03-.2-.06-.2-.08h0l-.14-.1-.13-.11-.1-.14-.08-.15h0l-.06-.22-.05-.22-.03-.45v-2.05h.47v2.04h0v.34s.09.34.09.34h0l.12.19.18.14h0l.25.09.26.03h.2s.19-.04.19-.04l.18-.08.17-.11Z" /><path class="cls-6" d="m211.36,41.37h0l.05.28v.29s.01,1.28.01,1.28h-3.54v-1.22h0v-.32s.05-.31.05-.31h0l.1-.28.16-.24h0l.13-.13.14-.12.16-.09.17-.08h0l.41-.11.43-.03h0l.36.02.35.07h0l.27.1.25.14h0l.18.15.15.18h0l.11.2.07.22Z" /><path class="cls-6" d="m207.88,39.1h3.54v.47h-3.54v-.47Z" /><path class="cls-6" d="m200.84,37.68h0l.24.18v-1.74h.42v2.34h-.15s-.15-.05-.15-.05h0l-.25-.12-.22-.16h0l-.28-.27-.26-.3h0l-.35-.41-.4-.37h0l-.25-.14-.14-.04-.14-.02h-.12s-.12.05-.12.05l-.1.06-.1.08h0l-.08.11-.06.12-.03.13v.13h-.01v.14s.04.13.04.13l.06.12.08.11h0l.12.08.12.06.14.03h.14s-.05.46-.05.46h0l-.21-.04-.2-.06-.18-.11-.17-.14h0l-.12-.18-.09-.19-.04-.21-.02-.22h0l.02-.22.05-.21.09-.19.13-.18h0l.15-.13.17-.1.19-.05.2-.02h0l.21.02.2.06h0l.23.13.2.16h0l.32.33.3.35h0l.45.5Z" /><path class="cls-6" d="m191.52,40.69h0l.05.28v.29s.01,1.28.01,1.28h-3.54v-1.22h0v-.32s.05-.31.05-.31h0l.1-.28.16-.24h0l.13-.13.14-.12.16-.09.17-.08h0l.41-.11.43-.03h0l.36.02.35.07h0l.27.1.25.14h0l.18.15.15.18h0l.11.2.07.22Z" /><path class="cls-6" d="m188.03,38.41h3.54v.47h-3.54v-.47Z" /><path class="cls-6" d="m181.72,37.28h0l-.03.23-.06.22-.12.19-.16.17h0l-.34.17-.17.07-.18.05-.37.05h-.38s-.51-.01-.51-.01l-.5-.1h0l-.17-.07-.16-.08-.14-.11-.13-.13h0l-.09-.15-.07-.15-.03-.17v-.17h-.01l.03-.26.09-.24h0l.14-.2.19-.16h0l.25-.13.27-.09h0l.42-.06h.42s.51,0,.51,0l.5.1h0l.17.07.16.08.14.11.13.13h0l.09.15.07.16.03.17v.17Z" /><path class="cls-6" d="m170.66,42.48l1.07.39v.5l-3.54-1.36v-.51l3.54-1.45v.53l-1.07.41v1.48Z" /><path class="cls-6" d="m168.19,39.12h3.54v.47h-3.54v-.47Z" /><path class="cls-6" d="m160.96,36.6h.85v.44h-.85v1.54h-.4l-2.3-1.62v-.36h2.3v-.48h.4v.48Z" /><path class="cls-6" d="m150.82,42.45l1.07.39v.5l-3.54-1.36v-.51l3.54-1.45v.53l-1.07.41v1.48Z" /><path class="cls-6" d="m148.35,39.1h3.54v.47h-3.54v-.47Z" /><path class="cls-6" d="m141.32,37.68h0l.24.18v-1.74h.42v2.34h-.15s-.15-.05-.15-.05h0l-.25-.12-.22-.16h0l-.28-.27-.26-.3h0l-.35-.41-.4-.37h0l-.25-.14-.14-.04-.14-.02h-.12s-.12.05-.12.05l-.1.06-.1.08h0l-.08.11-.06.12-.03.13v.13h-.01v.14s.04.13.04.13l.06.12.08.11h0l.12.08.12.06.14.03h.14s-.05.46-.05.46h0l-.21-.04-.2-.06-.18-.11-.17-.14h0l-.12-.18-.09-.19-.04-.21-.02-.22h0l.02-.22.05-.21.09-.19.13-.18h0l.15-.13.17-.1.19-.05.2-.02h0l.21.02.2.06h0l.23.13.2.16h0l.32.33.3.35h0l.45.5Z" /><path class="cls-6" d="m130.98,41.77l1.07.39v.5l-3.54-1.36v-.51l3.54-1.45v.53l-1.07.41v1.48Z" /><path class="cls-6" d="m128.51,38.41h3.54v.47h-3.54v-.47Z" /><path class="cls-6" d="m122.19,37.28h0l-.03.23-.06.22-.12.19-.16.17h0l-.34.17-.17.07-.18.05-.37.05h-.38s-.51-.01-.51-.01l-.5-.1h0l-.17-.07-.16-.08-.14-.11-.13-.13h0l-.09-.15-.07-.15-.03-.17v-.17h-.01l.03-.26.09-.24h0l.14-.2.19-.16h0l.25-.13.27-.09h0l.42-.06h.42s.51,0,.51,0l.5.1h0l.17.07.16.08.14.11.13.13h0l.09.15.07.16.03.17v.17Z" /><path class="cls-6" d="m118.58,39.09h3.54v.47h-3.54v-.47Z" /><path class="cls-6" d="m121.05,42.44l1.07.39v.5l-3.54-1.36v-.51l3.54-1.45v.53l-1.07.41v1.48Z" /><path class="cls-6" d="m128.49,36.41v-.28h3.56v.44h-2.77l.16.2.14.21h0l.12.22.1.23h-.42l-.18-.33-.23-.3h0l-.22-.22-.25-.17Z" /><path class="cls-6" d="m138.43,39.06h3.54v.47h-3.54v-.47Z" /><path class="cls-6" d="m140.9,42.41l1.07.39v.5l-3.54-1.36v-.51l3.54-1.45v.53l-1.07.41v1.48Z" /><path class="cls-6" d="m151.95,37.32h0l-.02.21-.05.2-.09.19-.12.17h0l-.16.14-.17.11-.19.07-.2.04-.06-.44h0l.29-.09.13-.08.12-.09h0l.07-.1.05-.1.04-.24h0l-.02-.14-.04-.14-.07-.12-.09-.11h0l-.12-.09-.12-.07-.14-.04-.15-.02h-.14s-.13.05-.13.05l-.12.06-.11.08h0l-.08.11-.06.12-.03.13v.14h-.01v.15s.05.15.05.15l-.38-.05h0v-.07h0l-.04-.26-.11-.24h0l-.09-.1-.1-.07-.12-.04h-.13s-.22.02-.22.02l-.09.05-.09.07h0l-.07.09-.05.1-.04.23h0l.04.23.05.1.07.09h0l.11.08.11.07.26.07-.08.44h0l-.19-.05-.18-.07-.16-.11-.15-.13h0l-.1-.16-.08-.17-.04-.18-.02-.19h0l.03-.27.09-.26h0l.14-.21.2-.16h0l.22-.1.24-.03h0l.22.03.2.09h0l.18.16.12.2h0l.05-.14.06-.13.09-.11.11-.1h0l.13-.08.14-.06.15-.03h.15s.22.02.22.02l.21.06.19.11.17.14h0l.14.19.11.2.05.22.02.24Z" /><path class="cls-6" d="m158.27,39.08h3.54v.47h-3.54v-.47Z" /><path class="cls-6" d="m160.74,42.44l1.07.39v.5l-3.54-1.36v-.51l3.54-1.45v.53l-1.07.41v1.48Z" /><path class="cls-6" d="m171.79,37.34h0l-.02.22-.04.21-.09.19-.12.18h0l-.16.14-.17.11-.19.07-.2.04-.04-.46h0l.27-.07.12-.07.11-.09h0l.07-.1.06-.11.03-.12v-.12h.01l-.02-.15-.04-.14-.08-.12-.1-.12h0l-.14-.1-.15-.07-.16-.03h-.17s-.16,0-.16,0l-.15.03-.14.07-.13.09h0l-.09.12-.07.13-.04.14v.15h-.01l.02.2.07.18h0l.11.15.14.12-.05.41-1.82-.34v-1.76h.42v1.41l.95.19h0l-.09-.16-.07-.16-.04-.17-.02-.18h0l.02-.22.05-.21.11-.19.14-.17h0l.18-.14.2-.11.22-.05.23-.02h0l.22.02.22.05.2.09.19.12h0l.19.2.08.1.06.11.04.12.03.13.03.27Z" /><path class="cls-6" d="m178.11,39.09h3.54v.47h-3.54v-.47Z" /><path class="cls-6" d="m181.6,41.36h0l.05.28v.29s.01,1.28.01,1.28h-3.54v-1.22h0v-.32s.05-.31.05-.31h0l.1-.28.16-.24h0l.13-.13.14-.12.16-.09.17-.08h0l.41-.11.43-.03h0l.36.02.35.07h0l.27.1.25.14h0l.18.15.15.18h0l.11.2.07.22Z" /><path class="cls-6" d="m188.02,36.41v-.28h3.56v.44h-2.77l.16.2.14.21h0l.12.22.1.23h-.42l-.18-.33-.23-.3h0l-.22-.22-.25-.17Z" /><path class="cls-6" d="m197.95,39.06h3.54v.47h-3.54v-.47Z" /><path class="cls-6" d="m201.44,41.34h0l.05.28v.29s.01,1.28.01,1.28h-3.54v-1.22h0v-.32s.05-.31.05-.31h0l.1-.28.16-.24h0l.13-.13.14-.12.16-.09.17-.08h0l.41-.11.43-.03h0l.36.02.35.07h0l.27.1.25.14h0l.18.15.15.18h0l.11.2.07.22Z" /><path class="cls-6" d="m211.48,37.32h0l-.02.21-.05.2-.09.19-.12.17h0l-.16.14-.17.11-.19.07-.2.04-.06-.44h0l.29-.09.13-.08.12-.09h0l.07-.1.05-.1.04-.24h0l-.02-.14-.04-.14-.07-.12-.09-.11h0l-.12-.09-.12-.07-.14-.04-.15-.02h-.14s-.13.05-.13.05l-.12.06-.11.08h0l-.08.11-.06.12-.03.13v.14h-.01v.15s.05.15.05.15l-.38-.05h0v-.07h0l-.04-.26-.11-.24h0l-.09-.1-.1-.07-.12-.04h-.13s-.22.02-.22.02l-.09.05-.09.07h0l-.07.09-.05.1-.04.23h0l.04.23.05.1.07.09h0l.11.08.11.07.26.07-.08.44h0l-.19-.05-.18-.07-.16-.11-.15-.13h0l-.1-.16-.08-.17-.04-.18-.02-.19h0l.03-.27.09-.26h0l.14-.21.2-.16h0l.22-.1.24-.03h0l.22.03.2.09h0l.18.16.12.2h0l.05-.14.06-.13.09-.11.11-.1h0l.13-.08.14-.06.15-.03h.15s.22.02.22.02l.21.06.19.11.17.14h0l.14.19.11.2.05.22.02.24Z" /><path class="cls-6" d="m37.11,67.07v.85h1.28v-.92h0v-.27s-.05-.27-.05-.27h0l-.08-.18-.13-.14h0l-.18-.08-.19-.02h0l-.19.02-.18.08h0l-.14.12-.08.17h0l-.05.32v.33Z" /><path class="cls-6" d="m38.9,66.94v.98h1.46v-1.06h0l-.02-.38h0l-.04-.17-.07-.16h0l-.1-.12-.13-.09h0l-.17-.06-.18-.02h0l-.22.03-.2.09h0l-.15.15-.1.19h0l-.06.31v.31Z" /><path class="cls-6" d="m41.68,29.4v1.35h1.41v-1.21h0v-.31s-.08-.3-.08-.3h0l-.1-.19-.16-.14h0l-.18-.08-.2-.03h0l-.14.02-.13.04-.12.07-.11.09h0l-.09.16-.07.17-.03.18v.19Z" /><path class="cls-6" d="m42.74,25.82h0l.02.17.04.16.08.14.1.13h0l.14.11.15.09.17.05.18.03v-1.72h0l-.31.06-.14.06-.13.08h0l-.13.14-.1.15-.05.17-.02.19Z" /><path class="cls-6" d="m42.74,19.55h0l.02.17.04.16.08.14.1.13h0l.14.11.15.09.17.05.18.03v-1.72h0l-.31.06-.14.06-.13.08h0l-.13.14-.1.15-.05.17-.02.19Z" /><path class="cls-6" d="m53.87,29.89v.85h1.28v-.92h0v-.27s-.05-.27-.05-.27h0l-.08-.18-.13-.14h0l-.18-.08-.19-.02h0l-.19.02-.18.08h0l-.14.12-.08.17h0l-.05.32v.33Z" /><path class="cls-6" d="m55.66,29.76v.98h1.46v-1.06h0l-.02-.38h0l-.04-.17-.07-.16h0l-.1-.12-.13-.09h0l-.17-.06-.18-.02h0l-.22.03-.2.09h0l-.15.15-.1.19h0l-.06.31v.31Z" /><path class="cls-6" d="m54.9,26.14h0l.02.19.05.17.1.15.12.14h0l.2.12.21.09.23.04h.24s.24,0,.24,0l.23-.04.21-.09.2-.12h0l.12-.14.1-.15.05-.17.02-.19h0l-.02-.18-.05-.17-.1-.15-.12-.14h0l-.21-.12-.22-.09-.23-.04h-.24s-.23,0-.23,0l-.22.04-.21.09-.2.12h0l-.12.14-.1.15-.05.17-.02.18Z" /><path class="cls-6" d="m54.9,22.83h0l.02.19.05.17.1.15.12.14h0l.2.12.21.09.23.04h.24s.24,0,.24,0l.23-.04.21-.09.2-.12h0l.12-.14.1-.15.05-.17.02-.19h0l-.02-.18-.05-.17-.1-.15-.12-.14h0l-.21-.12-.22-.09-.23-.04h-.24s-.23,0-.23,0l-.22.04-.21.09-.2.12h0l-.12.14-.1.15-.05.17-.02.18Z" /><path class="cls-6" d="m70.98,38.4h2.71v-.76h0v-.28s-.07-.27-.07-.27h0l-.07-.17-.11-.15h0l-.21-.16-.24-.1h0l-.34-.07-.35-.02h-.22s-.22.03-.22.03l-.21.06-.2.09h0l-.13.09-.11.1-.09.12-.07.13h0l-.06.3v.31s-.01.74-.01.74Z" /><path class="cls-6" d="m81.54,44.59l1.04.39v-1.2l-.98.37h0l-.73.25h0l.34.08.33.11Z" /><path class="cls-6" d="m91.46,43.99l1.04.39v-1.2l-.98.37h0l-.73.25h0l.34.08.33.11Z" /><path class="cls-1" d="m79.08,60.53l.02,1.92h1.39s.26-.02.26-.02l.25-.04.24-.09.23-.13h0l.13-.16.1-.17.04-.19.02-.2h0v-.15s-.04-.15-.04-.15l-.06-.14-.08-.13h0l-.09-.11-.1-.09-.12-.07-.13-.05h0l-.33-.04h-.33s-1.38.01-1.38.01Z" /><path class="cls-1" d="m84.07,62.16h0l-.15.26-.11.27-.05.29v.3h-.01l.02.3.05.29.11.27.16.26h0l.18.16.19.12.22.06.24.03h0l.23-.03.22-.07.19-.12.17-.16h0l.15-.26.11-.28.05-.3v-.31h.01l-.02-.3-.05-.28-.11-.26-.16-.25h0l-.18-.15-.19-.12-.22-.06-.23-.03h0l-.23.03-.22.07-.19.12-.18.16Z" /><path class="cls-6" d="m82.35,6.31h0l-.08.34-.11.33-.39,1.04h1.2l-.37-.98h0l-.25-.73Z" /><path class="cls-6" d="m118.93,37.29h0l.02.14.04.13.08.11.11.1h0l.29.12.29.08.31.03h.31s.3,0,.3,0l.3-.02.29-.07.28-.11h0l.12-.1.09-.11.05-.14.03-.15h0l-.03-.15-.05-.14-.09-.11-.12-.1h0l-.28-.11-.29-.07-.3-.02h-.3s-.3,0-.3,0l-.3.02-.29.07-.28.11h0l-.12.1-.09.12-.05.14-.03.15Z" /><path class="cls-6" d="m118.96,41.72h0l.34.08.33.11,1.04.39v-1.2l-.98.37h0l-.73.25Z" /><path class="cls-6" d="m128.88,41.05h0l.34.08.33.11,1.04.39v-1.2l-.98.37h0l-.73.25Z" /><path class="cls-6" d="m138.8,41.7h0l.34.08.33.11,1.04.39v-1.2l-.98.37h0l-.73.25Z" /><path class="cls-6" d="m148.72,41.73h0l.34.08.33.11,1.04.39v-1.2l-.98.37h0l-.73.25Z" /><path class="cls-6" d="m158.64,41.72h0l.34.08.33.11,1.04.39v-1.2l-.98.37h0l-.73.25Z" /><path class="cls-6" d="m158.97,37.04l1.6,1.11v-1.11h-1.6Z" /><path class="cls-6" d="m168.56,41.76h0l.34.08.33.11,1.04.39v-1.2l-.98.37h0l-.73.25Z" /><path class="cls-6" d="m178.46,37.29h0l.02.14.04.13.08.11.11.1h0l.29.12.29.08.31.03h.31s.3,0,.3,0l.3-.02.29-.07.28-.11h0l.12-.1.09-.11.05-.14.03-.15h0l-.03-.15-.05-.14-.09-.11-.12-.1h0l-.28-.11-.29-.07-.3-.02h-.3s-.3,0-.3,0l-.3.02-.29.07-.28.11h0l-.12.1-.09.12-.05.14-.03.15Z" /><path class="cls-6" d="m178.53,42v.74h2.71v-.76h0v-.28s-.07-.27-.07-.27h0l-.07-.17-.11-.15h0l-.21-.16-.24-.1h0l-.34-.07-.35-.02h-.22s-.22.03-.22.03l-.21.06-.2.09h0l-.13.09-.11.1-.09.12-.07.13h0l-.06.3v.31Z" /><path class="cls-6" d="m188.45,41.32v.74h2.71v-.76h0v-.28s-.07-.27-.07-.27h0l-.07-.17-.11-.15h0l-.21-.16-.24-.1h0l-.34-.07-.35-.02h-.22s-.22.03-.22.03l-.21.06-.2.09h0l-.13.09-.11.1-.09.12-.07.13h0l-.06.3v.31Z" /><path class="cls-6" d="m198.37,41.97v.74h2.71v-.76h0v-.28s-.07-.27-.07-.27h0l-.07-.17-.11-.15h0l-.21-.16-.24-.1h0l-.34-.07-.35-.02h-.22s-.22.03-.22.03l-.21.06-.2.09h0l-.13.09-.11.1-.09.12-.07.13h0l-.06.3v.31Z" /><path class="cls-6" d="m208.29,42.01v.74h2.71v-.76h0v-.28s-.07-.27-.07-.27h0l-.07-.17-.11-.15h0l-.21-.16-.24-.1h0l-.34-.07-.35-.02h-.22s-.22.03-.22.03l-.21.06-.2.09h0l-.13.09-.11.1-.09.12-.07.13h0l-.06.3v.31Z" /><path class="cls-6" d="m137.58,8.11h0l-.07.3-.1.29-.34.91h1.06l-.33-.86h0l-.22-.65Z" /><path class="cls-6" d="m143.63,8.11h0l-.07.3-.1.29-.34.91h1.06l-.33-.86h0l-.22-.65Z" /><path class="cls-6" d="m149.26,8.08h0l-.21.02-.2.05-.18.1-.17.13h0l-.15.23-.06.12-.05.12-.05.26v.27h-.01l.02.24.05.23.1.21.14.2h0l.17.14.18.11.2.06.21.02h0l.22-.02.2-.06.18-.11.17-.14h0l.14-.21.1-.22.05-.24.02-.25h0l-.03-.34-.1-.33h0l-.16-.25-.22-.19h0l-.27-.12-.29-.04Z" /><path class="cls-6" d="m164.55,3.28h-.8v1.11h.81l.3-.03.14-.05.13-.07h0l.07-.09.06-.1.03-.11v-.12h.01l-.02-.18-.08-.16h0l-.11-.12-.15-.07h0l-.19-.02h-.19Z" /><path class="cls-6" d="m188.41,8.15h-.66v2.38h.91s.24-.06.24-.06h0l.15-.06.13-.1h0l.14-.18.09-.21h0l.06-.3.02-.3h0v-.2s-.03-.19-.03-.19l-.05-.18-.08-.18h0l-.17-.21-.11-.08-.12-.07h0l-.26-.05h-.27Z" /><path class="cls-6" d="m199.7,8.11h0l-.07.3-.1.29-.34.91h1.06l-.33-.86h0l-.22-.65Z" /><path class="cls-6" d="m225.26,44h0l.04.34.03.16.05.15.07.14.09.14.22.26h0l.35.21.18.09.19.07.19.04.2.02.41.02h0l.41-.02.2-.03.19-.04.19-.07.18-.09.35-.21h0l.22-.25.09-.13.08-.14.05-.15.03-.16.04-.33h0l-.04-.33-.03-.16-.05-.15-.08-.14-.09-.13-.22-.25h0l-.35-.21-.18-.09-.19-.07-.2-.04-.2-.03-.41-.02h0l-.41.02-.2.02-.19.04-.19.06-.18.09-.35.21h0l-.22.26-.09.13-.07.14-.05.15-.03.16-.03.33Z" /><path class="cls-6" d="m250.04,35.38l-.97-.96v1.34h-.5v-1.59h.24l-.63-.62h-.51v-.1l-.44-.04v3.69l1.1-.09,1.7-1.62Z" /><path class="cls-6" d="m250.21,35.55l-1.49,1.42,2.71-.23-1.21-1.19Z" /><path class="cls-6" d="m250.38,35.38l1.35,1.33,1.35-.11v-2.09h-.13s-.14,0-.14,0l-.13-.04-.12-.06-.11-.08-.09-.1-.07-.11-.05-.13-.03-.14-.19-.02-1.63,1.55Z" /><path class="cls-6" d="m250.21,35.22l1.49-1.41-3.15-.28v.03h-.03l1.69,1.67Z" /><path class="cls-6" d="m252.55,33.77h0l.03.16.09.13.13.09.16.03h0l.16-.03.13-.09.09-.13.03-.16h0l-.03-.16-.09-.13-.13-.09-.16-.03h0l-.16.03-.13.09-.09.13-.03.16Z" /><path class="cls-6" d="m247.87,32.91l.35.35h.13s0-.38,0-.38h-.48v.03Z" /><path class="cls-6" d="m246.72,35.71h-.22l.04.36.07.35h.4v-3.03h0l-.12.1-.1.12-.08.13-.06.15h0l-.07.29-.03.31h.19v1.23Z" /><path class="cls-6" d="m246.37,35.52h.15v-.84h-.15v.84Z" /><path class="cls-6" d="m246.74,36.87h0l.11.17.07.06.08.04v-.27h-.25Z" /><path class="cls-6" d="m235.99,62.51h0l.03.21.06.2.11.17.14.16h0l.22.14.23.1.25.05.26.02h0l.26-.02.25-.05.23-.1.22-.14h0l.14-.16.11-.17.06-.2.03-.21h0l-.03-.21-.06-.2-.11-.17-.14-.16h0l-.22-.14-.24-.1-.25-.05h-.26s-.26,0-.26,0l-.25.05-.23.1-.22.14h0l-.14.16-.11.17-.06.2-.03.21Z" /><path class="cls-6" d="m225.26,68.69h0l.04.34.03.16.05.15.07.14.09.14.22.26h0l.35.21.18.09.19.07.19.04.2.02.41.02h0l.41-.02.2-.03.19-.04.19-.07.18-.09.35-.21h0l.22-.25.09-.13.08-.14.05-.15.03-.16.04-.33h0l-.04-.33-.03-.16-.05-.15-.08-.14-.09-.13-.22-.25h0l-.35-.21-.18-.09-.19-.07-.2-.04-.2-.03-.41-.02h0l-.41.02-.2.02-.19.04-.19.06-.18.09-.35.21h0l-.22.26-.09.13-.07.14-.05.15-.03.16-.03.33Z" /><path class="cls-6" d="m225.34,75.13v.93h1.49v-.88h0v-.54s-.07-.53-.07-.53h0l-.1-.19-.15-.15h0l-.21-.09-.23-.03h0l-.26.04-.12.05-.11.07h0l-.09.1-.07.11-.08.24h0l-.02.43v.43Z" /><path class="cls-6" d="m225.26,92h0l.04.34.03.16.05.15.07.14.09.14.22.26h0l.35.21.18.09.19.07.19.04.2.02.41.02h0l.41-.02.2-.03.19-.04.19-.07.18-.09.35-.21h0l.22-.25.09-.13.08-.14.05-.15.03-.16.04-.33h0l-.04-.33-.03-.16-.05-.15-.08-.14-.09-.13-.22-.25h0l-.35-.21-.18-.09-.19-.07-.2-.04-.2-.03-.41-.02h0l-.41.02-.2.02-.19.04-.19.06-.18.09-.35.21h0l-.22.26-.09.13-.07.14-.05.15-.03.16-.03.33Z" /><path class="cls-6" d="m205.52,100.73h0l.03.24.06.22.11.2.14.19h0l.26.17.13.07.14.05.3.05h.31s.28,0,.28,0l.26-.05.24-.12.23-.15h0l.16-.19.12-.2.06-.23.03-.24h0l-.03-.25-.06-.23-.12-.21-.16-.19h0l-.24-.16-.25-.12-.28-.05-.29-.02h0l-.39.03-.37.11h0l-.15.08-.14.1-.12.12-.1.13h0l-.08.15-.06.15-.03.16v.17Z" /><path class="cls-6" d="m205.6,104.64v.74h2.71v-.76h0v-.28s-.07-.27-.07-.27h0l-.07-.17-.11-.15h0l-.21-.16-.24-.1h0l-.34-.07-.35-.02h-.22s-.22.03-.22.03l-.21.06-.2.09h0l-.13.09-.11.1-.09.12-.07.13h0l-.06.3v.31Z" /><path class="cls-6" d="m195.68,104.64v.74h2.71v-.76h0v-.28s-.07-.27-.07-.27h0l-.07-.17-.11-.15h0l-.21-.16-.24-.1h0l-.34-.07-.35-.02h-.22s-.22.03-.22.03l-.21.06-.2.09h0l-.13.09-.11.1-.09.12-.07.13h0l-.06.3v.31Z" /><path class="cls-6" d="m195.6,100.73h0l.03.24.06.22.11.2.14.19h0l.26.17.13.07.14.05.3.05h.31s.28,0,.28,0l.26-.05.24-.12.23-.15h0l.16-.19.12-.2.06-.23.03-.24h0l-.03-.25-.06-.23-.12-.21-.16-.19h0l-.24-.16-.25-.12-.28-.05-.29-.02h0l-.39.03-.37.11h0l-.15.08-.14.1-.12.12-.1.13h0l-.08.15-.06.15-.03.16v.17Z" /><path class="cls-6" d="m196.89,97.42h0l.02.14.04.13.07.12.09.11h0l.12.09.13.07.15.03h.15s.22-.01.22-.01l.21-.07h0l.18-.11.14-.16h0l.08-.17.03-.19h0l-.02-.14-.04-.13-.07-.11-.09-.1h0l-.14-.09-.15-.07-.16-.03h-.16s-.16,0-.16,0l-.15.03-.14.07-.13.09h0l-.09.11-.07.12-.04.13-.02.14Z" /><path class="cls-6" d="m185.68,100.73h0l.03.24.06.22.11.2.14.19h0l.26.17.13.07.14.05.3.05h.31s.28,0,.28,0l.26-.05.24-.12.23-.15h0l.16-.19.12-.2.06-.23.03-.24h0l-.03-.25-.06-.23-.12-.21-.16-.19h0l-.24-.16-.25-.12-.28-.05-.29-.02h0l-.39.03-.37.11h0l-.15.08-.14.1-.12.12-.1.13h0l-.08.15-.06.15-.03.16v.17Z" /><path class="cls-6" d="m185.76,104.64v.74h2.71v-.76h0v-.28s-.07-.27-.07-.27h0l-.07-.17-.11-.15h0l-.21-.16-.24-.1h0l-.34-.07-.35-.02h-.22s-.22.03-.22.03l-.21.06-.2.09h0l-.13.09-.11.1-.09.12-.07.13h0l-.06.3v.31Z" /><path class="cls-6" d="m176.12,97.21l1.6,1.11v-1.11h-1.6Z" /><path class="cls-6" d="m175.76,100.73h0l.03.24.06.22.11.2.14.19h0l.26.17.13.07.14.05.3.05h.31s.28,0,.28,0l.26-.05.24-.12.23-.15h0l.16-.19.12-.2.06-.23.03-.24h0l-.03-.25-.06-.23-.12-.21-.16-.19h0l-.24-.16-.25-.12-.28-.05-.29-.02h0l-.39.03-.37.11h0l-.15.08-.14.1-.12.12-.1.13h0l-.08.15-.06.15-.03.16v.17Z" /><path class="cls-6" d="m175.84,104.64v.74h2.71v-.76h0v-.28s-.07-.27-.07-.27h0l-.07-.17-.11-.15h0l-.21-.16-.24-.1h0l-.34-.07-.35-.02h-.22s-.22.03-.22.03l-.21.06-.2.09h0l-.13.09-.11.1-.09.12-.07.13h0l-.06.3v.31Z" /><path class="cls-6" d="m165.92,104.64v.74h2.71v-.76h0v-.28s-.07-.27-.07-.27h0l-.07-.17-.11-.15h0l-.21-.16-.24-.1h0l-.34-.07-.35-.02h-.22s-.22.03-.22.03l-.21.06-.2.09h0l-.13.09-.11.1-.09.12-.07.13h0l-.06.3v.31Z" /><path class="cls-6" d="m165.84,100.73h0l.03.24.06.22.11.2.14.19h0l.26.17.13.07.14.05.3.05h.31s.28,0,.28,0l.26-.05.24-.12.23-.15h0l.16-.19.12-.2.06-.23.03-.24h0l-.03-.25-.06-.23-.12-.21-.16-.19h0l-.24-.16-.25-.12-.28-.05-.29-.02h0l-.39.03-.37.11h0l-.15.08-.14.1-.12.12-.1.13h0l-.08.15-.06.15-.03.16v.17Z" /><path class="cls-6" d="m155.92,100.73h0l.03.24.06.22.11.2.14.19h0l.26.17.13.07.14.05.3.05h.31s.28,0,.28,0l.26-.05.24-.12.23-.15h0l.16-.19.12-.2.06-.23.03-.24h0l-.03-.25-.06-.23-.12-.21-.16-.19h0l-.24-.16-.25-.12-.28-.05-.29-.02h0l-.39.03-.37.11h0l-.15.08-.14.1-.12.12-.1.13h0l-.08.15-.06.15-.03.16v.17Z" /><path class="cls-6" d="m156,104.64v.74h2.71v-.76h0v-.28s-.07-.27-.07-.27h0l-.07-.17-.11-.15h0l-.21-.16-.24-.1h0l-.34-.07-.35-.02h-.22s-.22.03-.22.03l-.21.06-.2.09h0l-.13.09-.11.1-.09.12-.07.13h0l-.06.3v.31Z" /><path class="cls-6" d="m146.07,104.64v.74h2.71v-.76h0v-.28s-.07-.27-.07-.27h0l-.07-.17-.11-.15h0l-.21-.16-.24-.1h0l-.34-.07-.35-.02h-.22s-.22.03-.22.03l-.21.06-.2.09h0l-.13.09-.11.1-.09.12-.07.13h0l-.06.3v.31Z" /><path class="cls-6" d="m146,100.73h0l.03.24.06.22.11.2.14.19h0l.26.17.13.07.14.05.3.05h.31s.28,0,.28,0l.26-.05.24-.12.23-.15h0l.16-.19.12-.2.06-.23.03-.24h0l-.03-.25-.06-.23-.12-.21-.16-.19h0l-.24-.16-.25-.12-.28-.05-.29-.02h0l-.39.03-.37.11h0l-.15.08-.14.1-.12.12-.1.13h0l-.08.15-.06.15-.03.16v.17Z" /><path class="cls-6" d="m136.08,97.46h0l.02.14.04.13.08.11.11.1h0l.29.12.29.08.31.03h.31s.3,0,.3,0l.3-.02.29-.07.28-.11h0l.12-.1.09-.11.05-.14.03-.15h0l-.03-.15-.05-.14-.09-.11-.12-.1h0l-.28-.11-.29-.07-.3-.02h-.3s-.3,0-.3,0l-.3.02-.29.07-.28.11h0l-.12.1-.09.12-.05.14-.03.15Z" /><path class="cls-6" d="m136.08,100.73h0l.03.24.06.22.11.2.14.19h0l.26.17.13.07.14.05.3.05h.31s.28,0,.28,0l.26-.05.24-.12.23-.15h0l.16-.19.12-.2.06-.23.03-.24h0l-.03-.25-.06-.23-.12-.21-.16-.19h0l-.24-.16-.25-.12-.28-.05-.29-.02h0l-.39.03-.37.11h0l-.15.08-.14.1-.12.12-.1.13h0l-.08.15-.06.15-.03.16v.17Z" /><path class="cls-6" d="m136.15,104.64v.74h2.71v-.76h0v-.28s-.07-.27-.07-.27h0l-.07-.17-.11-.15h0l-.21-.16-.24-.1h0l-.34-.07-.35-.02h-.22s-.22.03-.22.03l-.21.06-.2.09h0l-.13.09-.11.1-.09.12-.07.13h0l-.06.3v.31Z" /><path class="cls-6" d="m164.02,132.84h0l-.24.03-.22.06-.2.11-.19.14h0l-.17.26-.07.13-.05.14-.05.3v.31h-.01l.02.28.05.26.12.24.15.23h0l.19.16.2.12.23.06.24.03h0l.25-.03.23-.06.21-.12.19-.16h0l.16-.24.12-.25.05-.28.02-.29h0l-.03-.39-.11-.37h0l-.08-.15-.1-.14-.12-.12-.13-.1h0l-.15-.08-.15-.06-.16-.03h-.17Z" /><path class="cls-6" d="m174.29,132.92h-.91v1.27h1.09s.17-.03.17-.03l.16-.06.15-.08h0l.08-.1.06-.11.03-.13v-.13h.01l-.03-.2-.09-.18h0l-.13-.13-.17-.08h0l-.22-.03h-.22Z" /><path class="cls-6" d="m70.98,96.08h2.71v-.76h0v-.28s-.07-.27-.07-.27h0l-.07-.17-.11-.15h0l-.21-.16-.24-.1h0l-.34-.07-.35-.02h-.22s-.22.03-.22.03l-.21.06-.2.09h0l-.13.09-.11.1-.09.12-.07.13h0l-.06.3v.31s-.01.74-.01.74Z" /><path class="cls-6" d="m70.98,99.66h2.71v-.76h0v-.28s-.07-.27-.07-.27h0l-.07-.17-.11-.15h0l-.21-.16-.24-.1h0l-.34-.07-.35-.02h-.22s-.22.03-.22.03l-.21.06-.2.09h0l-.13.09-.11.1-.09.12-.07.13h0l-.06.3v.31s-.01.74-.01.74Z" /><path class="cls-6" d="m80.91,98.41h2.71v-.76h0v-.28s-.07-.27-.07-.27h0l-.07-.17-.11-.15h0l-.21-.16-.24-.1h0l-.34-.07-.35-.02h-.22s-.22.03-.22.03l-.21.06-.2.09h0l-.13.09-.11.1-.09.12-.07.13h0l-.06.3v.31s-.01.74-.01.74Z" /><path class="cls-6" d="m90.66,132.92h-.74v2.71h1.03s.27-.07.27-.07h0l.17-.07.15-.11h0l.16-.21.1-.24h0l.07-.34.02-.35h0v-.22s-.03-.22-.03-.22l-.06-.21-.09-.2h0l-.09-.13-.1-.11-.12-.09-.13-.07h0l-.3-.06h-.31Z" /><path class="cls-6" d="m83.02,134.13h0l-.14.02-.13.04-.12.07-.11.09h0l-.09.12-.07.13-.03.15v.15h-.01l.02.22.07.21h0l.11.18.16.14h0l.17.08.19.03h0l.14-.02.13-.04.11-.07.1-.09h0l.09-.14.07-.15.03-.16v-.16h.01v-.16s-.04-.15-.04-.15l-.07-.14-.09-.13h0l-.11-.09-.12-.07-.13-.04-.14-.02Z" /><path class="cls-6" d="m69.79,134.46h0l.14-.02.13-.04.12-.07.11-.09h0l.09-.13.07-.14.03-.15v-.16h.01v-.16s-.04-.16-.04-.16l-.07-.14-.09-.13h0l-.1-.09-.11-.07-.13-.04-.14-.02h0l-.14.02-.13.04-.12.08-.11.1h0l-.09.14-.07.15-.03.16v.17h-.01v.15s.05.14.05.14l.07.13.09.12h0l.11.09.12.07.13.04.14.02Z" /><path class="cls-6" d="m88.5,78.85h0l-.14.18-.11.19-.06.22-.03.23,2.18-.02h0l-.03-.2-.05-.19-.08-.18-.1-.17h0l-.18-.16-.19-.12-.22-.06-.24-.03h0l-.21.02-.2.05-.18.1-.17.13Z" /><path class="cls-1" d="m93.77,61.99h0l-.14.18-.11.19-.06.22-.03.23,2.18-.02h0l-.03-.2-.05-.19-.08-.18-.1-.17h0l-.18-.16-.19-.12-.22-.06-.24-.03h0l-.21.02-.2.05-.18.1-.17.13Z" /><path class="cls-14" d="m66.31,32.72h32.03V12.88h-32.03v19.84Z" /><path class="cls-2" d="m95.23,28.75l.99,2.55h-7.94l.99-2.55h.85v-1.28h-2.27v-13.46h2.35c.29.17.59.31.91.4,1.07.32,2.22.17,3.18-.4h2.35v5.95h.71v5.1h-.71v2.41h-2.27v1.28h.85Z" /><path class="cls-2" d="m68.01,19.97v-5.95h2.35c1.26.76,2.83.76,4.09,0h2.35v13.46h-2.27v1.28h.85l.99,2.55h-7.94l.99-2.55h.85v-1.28h-2.27v-2.41h-.71v-5.1h.71Z" /><path class="cls-2" d="m86.72,14.01v13.46h-2.27v1.28h.85l.99,2.55h-7.94l.99-2.55h.85v-1.28h-2.27v-13.46h2.35c1.26.76,2.83.76,4.09,0h2.35Z" /><path class="cls-14" d="m114.36,32.72h101.48V12.88h-101.48v19.84Z" /><path class="cls-16" d="m174.46,14.01v13.46h-2.27v1.28h.85l.99,2.55h-7.94l.99-2.55h.85v-1.28h-2.27v-13.46h2.35c1.26.76,2.83.76,4.09,0h2.35Z" /><path class="cls-16" d="m164.53,14.01v13.46h-2.27v1.28h.85l.99,2.55h-7.94l.99-2.55h.85v-1.28h-2.27v-13.46h2.35c1.26.76,2.83.76,4.09,0h2.35Z" /><path class="cls-16" d="m154.61,14.01v13.46h-2.27v1.28h.85l.99,2.55h-7.94l.99-2.55h.85v-1.28h-2.27v-13.46h2.35c1.26.76,2.83.76,4.09,0h2.35Z" /><path class="cls-16" d="m144.69,14.01v13.46h-2.27v1.28h.85l.99,2.55h-7.94l.99-2.55h.85v-1.28h-2.27v-13.46h2.35c1.26.76,2.83.76,4.09,0h2.35Z" /><path class="cls-16" d="m212.72,28.75l.99,2.55h-7.94l.99-2.55h.85v-1.28h-2.27v-13.46h2.35c1.26.76,2.83.76,4.09,0h2.35v5.95h.71v5.1h-.71v2.41h-2.27v1.28h.85Z" /><path class="cls-16" d="m116.06,19.97v-5.95h2.35c1.26.76,2.83.76,4.09,0h2.35v13.46h-2.27v1.28h.85l.99,2.55h-7.94l.99-2.55h.85v-1.28h-2.27v-2.41h-.71v-5.1h.71Z" /><path class="cls-16" d="m134.77,14.01v13.46h-2.27v1.28h.85l.99,2.55h-7.94l.99-2.55h.85v-1.28h-2.27v-13.46h2.35c1.26.76,2.83.76,4.09,0h2.35Z" /><path class="cls-16" d="m184.38,14.01v13.46h-2.27v1.28h.85l.99,2.55h-7.94l.99-2.55h.85v-1.28h-2.27v-13.46h2.35c1.26.76,2.83.76,4.09,0h2.35Z" /><path class="cls-16" d="m194.3,14.01v13.46h-2.27v1.28h.85l.99,2.55h-7.94l.99-2.55h.85v-1.28h-2.27v-13.46h2.35c1.26.76,2.83.76,4.09,0h2.35Z" /><path class="cls-16" d="m204.22,14.01v13.46h-2.27v1.28h.85l.99,2.55h-7.94l.99-2.55h.85v-1.28h-2.27v-13.46h2.35c1.26.76,2.83.76,4.09,0h2.35Z" /><path class="cls-14" d="m213.15,109.26h-81.64v19.84h81.64v-19.84Z" /><path class="cls-16" d="m153.05,127.97v-13.46h2.27v-1.28h-.85l-.99-2.55h7.94l-.99,2.55h-.85v1.28h2.27v13.46h-2.35c-1.26-.76-2.83-.76-4.09,0h-2.35Z" /><path class="cls-16" d="m162.98,127.97v-13.46h2.27v-1.28h-.85l-.99-2.55h7.94l-.99,2.55h-.85v1.28h2.27v13.46h-2.35c-1.26-.76-2.83-.76-4.09,0h-2.35Z" /><path class="cls-16" d="m172.9,127.97v-13.46h2.27v-1.28h-.85l-.99-2.55h7.94l-.99,2.55h-.85v1.28h2.27v13.46h-2.35c-1.26-.76-2.83-.76-4.09,0h-2.35Z" /><path class="cls-16" d="m182.82,127.97v-13.46h2.27v-1.28h-.85l-.99-2.55h7.94l-.99,2.55h-.85v1.28h2.27v13.46h-2.35c-1.26-.76-2.83-.76-4.09,0h-2.35Z" /><path class="cls-16" d="m134.63,113.23l-.99-2.55h7.94l-.99,2.55h-.85v1.28h2.27v13.46h-2.35c-1.26-.76-2.83-.76-4.09,0h-2.35v-5.95h-.71v-5.1h.71v-2.41h2.27v-1.28h-.85Z" /><path class="cls-16" d="m211.45,122.01v5.95h-2.35c-1.26-.76-2.83-.76-4.09,0h-2.35v-13.46h2.27v-1.28h-.85l-.99-2.55h7.94l-.99,2.55h-.85v1.28h2.27v2.41h.71v5.1h-.71Z" /><path class="cls-16" d="m192.74,127.97v-13.46h2.27v-1.28h-.85l-.99-2.55h7.94l-.99,2.55h-.85v1.28h2.27v13.46h-2.35c-1.26-.76-2.83-.76-4.09,0h-2.35Z" /><path class="cls-16" d="m143.13,127.97v-13.46h2.27v-1.28h-.85l-.99-2.55h7.94l-.99,2.55h-.85v1.28h2.27v13.46h-2.35c-1.26-.76-2.83-.76-4.09,0h-2.35Z" /><path class="cls-14" d="m98.34,109.26h-32.03v19.84h32.03v-19.84Z" /><path class="cls-16" d="m69.43,113.22l-.99-2.55h7.94l-.99,2.55h-.85v1.28h2.27v13.46h-2.35c-.29-.17-.59-.31-.91-.4-1.07-.32-2.22-.17-3.18.4h-2.35v-5.95h-.71v-5.1h.71v-2.41h2.27v-1.28h-.85Z" /><path class="cls-16" d="m96.64,122.01v5.95h-2.35c-1.26-.76-2.83-.76-4.09,0h-2.35v-13.46h2.27v-1.28h-.85l-.99-2.55h7.94l-.99,2.55h-.85v1.28h2.27v2.41h.71v5.1h-.71Z" /><path class="cls-16" d="m77.93,127.96v-13.46h2.27v-1.28h-.85l-.99-2.55h7.94l-.99,2.55h-.85v1.28h2.27v13.46h-2.35c-1.26-.76-2.83-.76-4.09,0h-2.35Z" /><path class="cls-12" d="m71.91,21.88l-.64.64h2.27l-.64-.64h-.99Z" /><path class="cls-12" d="m73.54,20.25l-.64.64v.99l.64.64v-2.27Z" /><path class="cls-12" d="m71.27,20.25l.64.64h.99l.64-.64h-2.27Z" /><path class="cls-12" d="m71.91,20.89l-.64-.64v2.27l.64-.64v-.99Z" /><path class="cls-12" d="m81.83,20.89l-.64-.64v2.27l.64-.64v-.99Z" /><path class="cls-12" d="m81.2,20.25l.64.64h.99l.64-.64h-2.27Z" /><path class="cls-12" d="m83.46,20.25l-.64.64v.99l.64.64v-2.27Z" /><path class="cls-12" d="m81.83,21.88l-.64.64h2.27l-.64-.64h-.99Z" /><path class="cls-12" d="m91.75,20.89l-.64-.64v2.27l.64-.64v-.99Z" /><path class="cls-12" d="m91.12,20.25l.64.64h.99l.64-.64h-2.27Z" /><path class="cls-12" d="m93.38,20.25l-.64.64v.99l.64.64v-2.27Z" /><path class="cls-12" d="m91.75,21.88l-.64.64h2.27l-.64-.64h-.99Z" /><path class="cls-6" d="m7.78,70.99c0,3.6,2.92,6.52,6.52,6.52s6.52-2.92,6.52-6.52-2.92-6.52-6.52-6.52-6.52,2.92-6.52,6.52Z" /><path class="cls-11" d="m6.08,70.99c0,4.54,3.68,8.22,8.22,8.22,4.54,0,8.22-3.68,8.22-8.22h0c0-4.55-3.68-8.23-8.22-8.23-4.54,0-8.22,3.68-8.22,8.22h0Z" /><path class="cls-13" d="m8.35,70.99c0,3.29,2.67,5.95,5.95,5.95s5.95-2.67,5.95-5.95-2.67-5.95-5.95-5.95-5.95,2.67-5.95,5.95Z" /><path class="cls-6" d="m7.78,70.99c0,3.6,2.92,6.52,6.52,6.52s6.52-2.92,6.52-6.52-2.92-6.52-6.52-6.52-6.52,2.92-6.52,6.52Z" /><path class="cls-6" d="m262.9,70.99c0,3.6,2.92,6.52,6.52,6.52s6.52-2.92,6.52-6.52-2.92-6.52-6.52-6.52-6.52,2.92-6.52,6.52Z" /><path class="cls-5" d="m261.2,70.99c0,4.54,3.68,8.22,8.22,8.22,4.54,0,8.22-3.68,8.22-8.22h0c0-4.55-3.68-8.23-8.22-8.23-4.54,0-8.22,3.68-8.22,8.22h0Z" /><path class="cls-13" d="m263.46,70.99c0,3.29,2.67,5.95,5.95,5.95s5.95-2.67,5.95-5.95-2.67-5.95-5.95-5.95-5.95,2.67-5.95,5.95Z" /><path class="cls-6" d="m262.9,70.99c0,3.6,2.92,6.52,6.52,6.52s6.52-2.92,6.52-6.52-2.92-6.52-6.52-6.52-6.52,2.92-6.52,6.52Z" /><path class="cls-11" d="m212.72.12v.85c38.67,0,70.01,31.35,70.01,70.02,0,38.66-31.35,70.01-70.01,70.01v.85c39.14,0,70.87-31.73,70.87-70.87S251.86.12,212.72.12Z" /><path class="cls-11" d="m212.72,141.86v-.85H70.99v.85h141.73Z" /><path class="cls-11" d="m70.99,141.86v-.85c-38.67,0-70.01-31.35-70.01-70.02C.98,32.32,32.33.98,70.99.98V.12C31.85.12.12,31.85.12,70.99s31.73,70.87,70.87,70.87Z" /><path class="cls-11" d="m70.99.12v.85h141.73V.12H70.99Z" /><path class="cls-12" d="m209.25,21.88l-.64.64h2.27l-.64-.64h-.99Z" /><path class="cls-12" d="m210.88,20.25l-.64.64v.99l.64.64v-2.27Z" /><path class="cls-12" d="m208.61,20.25l.64.64h.99l.64-.64h-2.27Z" /><path class="cls-12" d="m209.25,20.89l-.64-.64v2.27l.64-.64v-.99Z" /><path class="cls-12" d="m199.33,21.88l-.64.64h2.27l-.64-.64h-.99Z" /><path class="cls-12" d="m200.96,20.25l-.64.64v.99l.64.64v-2.27Z" /><path class="cls-12" d="m198.69,20.25l.64.64h.99l.64-.64h-2.27Z" /><path class="cls-12" d="m199.33,20.89l-.64-.64v2.27l.64-.64v-.99Z" /><path class="cls-12" d="m189.41,21.88l-.64.64h2.27l-.64-.64h-.99Z" /><path class="cls-12" d="m191.04,20.25l-.64.64v.99l.64.64v-2.27Z" /><path class="cls-12" d="m188.77,20.25l.64.64h.99l.64-.64h-2.27Z" /><path class="cls-12" d="m189.41,20.89l-.64-.64v2.27l.64-.64v-.99Z" /><path class="cls-12" d="m179.49,21.88l-.64.64h2.27l-.64-.64h-.99Z" /><path class="cls-12" d="m181.12,20.25l-.64.64v.99l.64.64v-2.27Z" /><path class="cls-12" d="m178.85,20.25l.64.64h.99l.64-.64h-2.27Z" /><path class="cls-12" d="m179.49,20.89l-.64-.64v2.27l.64-.64v-.99Z" /><path class="cls-12" d="m171.2,20.25l-.64.64v.99l.64.64v-2.27Z" /><path class="cls-12" d="m168.93,20.25l.64.64h.99l.64-.64h-2.27Z" /><path class="cls-12" d="m169.57,21.88l-.64.64h2.27l-.64-.64h-.99Z" /><path class="cls-12" d="m169.57,20.89l-.64-.64v2.27l.64-.64v-.99Z" /><path class="cls-12" d="m161.27,20.25l-.64.64v.99l.64.64v-2.27Z" /><path class="cls-12" d="m159.01,20.25l.64.64h.99l.64-.64h-2.27Z" /><path class="cls-12" d="m159.64,21.88l-.64.64h2.27l-.64-.64h-.99Z" /><path class="cls-12" d="m159.64,20.89l-.64-.64v2.27l.64-.64v-.99Z" /><path class="cls-12" d="m149.72,21.88l-.64.64h2.27l-.64-.64h-.99Z" /><path class="cls-12" d="m149.72,20.89l-.64-.64v2.27l.64-.64v-.99Z" /><path class="cls-12" d="m149.09,20.25l.64.64h.99l.64-.64h-2.27Z" /><path class="cls-12" d="m151.35,20.25l-.64.64v.99l.64.64v-2.27Z" /><path class="cls-12" d="m141.43,20.25l-.64.64v.99l.64.64v-2.27Z" /><path class="cls-12" d="m139.16,20.25l.64.64h.99l.64-.64h-2.27Z" /><path class="cls-12" d="m139.8,21.88l-.64.64h2.27l-.64-.64h-.99Z" /><path class="cls-12" d="m139.8,20.89l-.64-.64v2.27l.64-.64v-.99Z" /><path class="cls-12" d="m129.88,21.88l-.64.64h2.27l-.64-.64h-.99Z" /><path class="cls-12" d="m131.51,20.25l-.64.64v.99l.64.64v-2.27Z" /><path class="cls-12" d="m129.24,20.25l.64.64h.99l.64-.64h-2.27Z" /><path class="cls-12" d="m129.88,20.89l-.64-.64v2.27l.64-.64v-.99Z" /><path class="cls-12" d="m119.96,21.88l-.64.64h2.27l-.64-.64h-.99Z" /><path class="cls-12" d="m121.59,20.25l-.64.64v.99l.64.64v-2.27Z" /><path class="cls-12" d="m119.32,20.25l.64.64h.99l.64-.64h-2.27Z" /><path class="cls-12" d="m119.96,20.89l-.64-.64v2.27l.64-.64v-.99Z" /><path class="cls-12" d="m207.55,121.09l.64.64v-2.27l-.64.64v.99Z" /><path class="cls-12" d="m207.55,120.1l.64-.64h-2.27l.64.64h.99Z" /><path class="cls-12" d="m208.19,121.73l-.64-.64h-.99l-.64.64h2.27Z" /><path class="cls-12" d="m205.92,121.73l.64-.64v-.99l-.64-.64v2.27Z" /><path class="cls-12" d="m197.63,121.09l.64.64v-2.27l-.64.64v.99Z" /><path class="cls-12" d="m197.63,120.1l.64-.64h-2.27l.64.64h.99Z" /><path class="cls-12" d="m196,121.73l.64-.64v-.99l-.64-.64v2.27Z" /><path class="cls-12" d="m198.27,121.73l-.64-.64h-.99l-.64.64h2.27Z" /><path class="cls-12" d="m188.35,121.73l-.64-.64h-.99l-.64.64h2.27Z" /><path class="cls-12" d="m187.71,121.09l.64.64v-2.27l-.64.64v.99Z" /><path class="cls-12" d="m187.71,120.1l.64-.64h-2.27l.64.64h.99Z" /><path class="cls-12" d="m186.08,121.73l.64-.64v-.99l-.64-.64v2.27Z" /><path class="cls-12" d="m177.79,121.09l.64.64v-2.27l-.64.64v.99Z" /><path class="cls-12" d="m177.79,120.1l.64-.64h-2.27l.64.64h.99Z" /><path class="cls-12" d="m176.16,121.73l.64-.64v-.99l-.64-.64v2.27Z" /><path class="cls-12" d="m178.42,121.73l-.64-.64h-.99l-.64.64h2.27Z" /><path class="cls-12" d="m168.5,121.73l-.64-.64h-.99l-.64.64h2.27Z" /><path class="cls-12" d="m167.87,121.09l.64.64v-2.27l-.64.64v.99Z" /><path class="cls-12" d="m167.87,120.1l.64-.64h-2.27l.64.64h.99Z" /><path class="cls-12" d="m166.24,121.73l.64-.64v-.99l-.64-.64v2.27Z" /><path class="cls-12" d="m157.94,120.1l.64-.64h-2.27l.64.64h.99Z" /><path class="cls-12" d="m157.94,121.09l.64.64v-2.27l-.64.64v.99Z" /><path class="cls-12" d="m158.58,121.73l-.64-.64h-.99l-.64.64h2.27Z" /><path class="cls-12" d="m156.31,121.73l.64-.64v-.99l-.64-.64v2.27Z" /><path class="cls-12" d="m148.02,121.09l.64.64v-2.27l-.64.64v.99Z" /><path class="cls-12" d="m148.02,120.1l.64-.64h-2.27l.64.64h.99Z" /><path class="cls-12" d="m146.39,121.73l.64-.64v-.99l-.64-.64v2.27Z" /><path class="cls-12" d="m148.66,121.73l-.64-.64h-.99l-.64.64h2.27Z" /><path class="cls-12" d="m138.74,121.73l-.64-.64h-.99l-.64.64h2.27Z" /><path class="cls-12" d="m136.47,121.73l.64-.64v-.99l-.64-.64v2.27Z" /><path class="cls-12" d="m138.1,120.1l.64-.64h-2.27l.64.64h.99Z" /><path class="cls-12" d="m138.1,121.09l.64.64v-2.27l-.64.64v.99Z" /><path class="cls-12" d="m92.74,121.09l.64.64v-2.27l-.64.64v.99Z" /><path class="cls-12" d="m92.74,120.1l.64-.64h-2.27l.64.64h.99Z" /><path class="cls-12" d="m93.38,121.73l-.64-.64h-.99l-.64.64h2.27Z" /><path class="cls-12" d="m91.11,121.73l.64-.64v-.99l-.64-.64v2.27Z" /><path class="cls-12" d="m82.82,121.09l.64.64v-2.27l-.64.64v.99Z" /><path class="cls-12" d="m82.82,120.1l.64-.64h-2.27l.64.64h.99Z" /><path class="cls-12" d="m81.19,121.73l.64-.64v-.99l-.64-.64v2.27Z" /><path class="cls-12" d="m83.46,121.73l-.64-.64h-.99l-.64.64h2.27Z" /><path class="cls-12" d="m72.9,121.09l.64.64v-2.27l-.64.64v.99Z" /><path class="cls-12" d="m72.9,120.1l.64-.64h-2.27l.64.64h.99Z" /><path class="cls-12" d="m71.27,121.73l.64-.64v-.99l-.64-.64v2.27Z" /><path class="cls-12" d="m73.54,121.73l-.64-.64h-.99l-.64.64h2.27Z" /><path class="cls-12" d="m175.62,92.93h40.2v-43.88h-40.2v43.88Z" /><path class="cls-10" d="m214.14,77.72h-2.69v3.53h-5.98v7.46h-6.94v1.33h-7.37v-1.33h-6.94v-35.43h6.94v-1.33h7.37v1.33h6.94v7.46h5.98v3.53h2.69v13.46Z" /><path class="cls-12" d="m216.53,49.05h-.72v43.88h.72l.13.04.09.04.06.04.02.04v-44.22h0l-.02.04-.06.04-.09.04-.13.04Z" /><path class="cls-12" d="m215.81,49.05v-1.02h-40.2v1.02h40.2Z" /><path class="cls-12" d="m216.83,49.05c0-.56-.46-1.02-1.02-1.02h0c.27,0,.53.11.72.3h0l.13.15.09.18.06.19.02.2Z" /><path class="cls-12" d="m216.53,93.65c-.19.19-.45.3-.72.3.56,0,1.02-.46,1.02-1.02h0s-.02.2-.02.2l-.06.19-.09.18-.13.15Z" /><path class="cls-12" d="m175.62,93.95h40.2v-1.02h-40.2v1.02Z" /><path class="cls-12" d="m174.6,92.93c0,.56.46,1.02,1.02,1.02h0c-.27,0-.53-.11-.72-.3h0l-.13-.15-.09-.18-.06-.19-.02-.2Z" /><path class="cls-12" d="m174.9,92.93h.72v-43.88h-.72l-.13-.04-.09-.04-.06-.04-.02-.04v44.22h0l.02-.04.06-.04.09-.04.13-.04Z" /><path class="cls-12" d="m174.9,48.33c.19-.19.45-.3.72-.3-.56,0-1.02.46-1.02,1.02h0s.02-.2.02-.2l.06-.19.09-.18.13-.15Z" /><path class="cls-11" d="m52.31,60.2c-.63-1.24-1.9-2.03-3.29-2.03h-1.42c-1.39,0-2.66.78-3.29,2.03-.32.63-.48,1.32-.48,2.02v17.54c0,.7.16,1.39.48,2.02.63,1.24,1.9,2.03,3.29,2.03h1.42c1.39,0,2.66-.78,3.29-2.03.32-.63.48-1.32.48-2.02v-5.95h-.85v5.95c0,.57-.13,1.13-.39,1.63-.48.96-1.46,1.56-2.53,1.56h-1.42c-1.07,0-2.05-.6-2.53-1.56-.26-.51-.39-1.07-.39-1.63v-17.54c0-.57.13-1.13.39-1.63.48-.96,1.46-1.56,2.53-1.56h1.42c1.07,0,2.05.6,2.53,1.56.26.51.39,1.07.39,1.63v11.56h.85v-11.56c0-.7-.16-1.39-.48-2.02Z" /><path class="cls-5" d="m49.31,62.5s0-.04,0-.07h-1.98s0,.04,0,.07v16.98s0,.04,0,.07h1.98s0-.04,0-.07v-16.98Z" /><path class="cls-5" d="m48.38,61.51v.74h-.14v-.74c-.49.04-.89.43-.92.92h1.98c-.03-.49-.42-.89-.92-.92Z" /><path class="cls-5" d="m47.32,79.55c.03.49.42.89.92.92v-.74h.14v.74c.49-.04.89-.43.92-.92h-1.98Z" /></g></svg>