<svg version="1.1" id="Ebene_1" xmlns:shaper="http://www.shapertools.com/namespaces/shaper" shaper:fusionaddin="version:1.6.10" xmlns="http://www.w3.org/2000/svg" x="0" y="0" viewBox="0 0 283.5 141.7" xml:space="preserve"><style>.st1{stroke-linecap:round;stroke-linejoin:round;stroke-miterlimit:113.3858;fill:none}.st1,.st6,.st7{stroke-width:.25;stroke:#1d1d1b}.st6{fill:#91ef97;stroke-linecap:round;stroke-linejoin:round;stroke-miterlimit:113.3858}.st7{fill:none;stroke-miterlimit:10}.st10,.st11,.st12,.st13,.st14,.st8{stroke-width:.25;stroke-linecap:round;stroke-linejoin:round;stroke-miterlimit:113.3858}.st10,.st8{stroke:#000}.st8{fill:#91ef97}.st10{fill:#237d23}.st11{fill:none;stroke:#646464}.st12{fill:#bcb9bb}.st12,.st13,.st14{stroke:#1d1d1b}.st13{fill:#f1f0f1}.st14{fill:#a5a0a3}</style><path d="M212.6 141.8H71.3c-39 0-70.9-31.9-70.9-70.9v0C.4 31.9 32.3 0 71.3 0h141.3c39 0 70.9 31.9 70.9 70.9v0c0 39-31.9 70.9-70.9 70.9z" fill="#dedcdd" stroke="#1d1d1b" stroke-width=".25" stroke-linecap="round" stroke-linejoin="round" stroke-miterlimit="113.386"/><path class="st1" d="M162.2 71.1v2.7h-.8v-5.7h.8v2.3h2.9v-2.3h.8v5.7h-.8v-2.7h-2.9zm-3.4-2.4v5h-.8v-5h-1.9V68h4.5v.7h-1.8zm-3.2 4.4v.7h-4.2v-5.7h4.1v.7h-3.3v1.7h3.1v.7h-3.1v1.9h3.4zm50.8 24.2l-.5-.3-.4-.3v1.7h-.4v-2.3h.3l.5.4.5.3.6.3.6.2.5.1.5.1v.5l-.5-.1-.5-.1-.6-.2-.6-.3zm-7.8 6.6v1.9h-3.5V104l.1-.3.2-.2.1-.1.1-.1.2-.1.2-.1.4-.1h.8l.4.1.3.1.2.1.2.1.1.2.1.2.1.1zm-.1-2.4l-.1.2-.2.2-.2.1-.2.1-.2.1-.2.1h-1.2l-.2-.1-.2-.1-.3-.2-.2-.3-.1-.1-.1-.1-.1-.2v-.9l.1-.2.1-.2.1-.2.1-.2.2-.1.2-.1.2-.1.2-.1h.9l.2.1.2.1.2.1.2.1.1.2.1.2.1.2.1.2v.8l-.1.2.3.2zm-9.7-4.2v.4l-.1.2-.1.2-.2.1-.2.1-.2.1h-.2v-.5l.3-.1.1-.1.1-.1.1-.1.1-.1v-.5l-.1-.1-.1-.1-.1-.1-.2-.1h-.8l-.1.1-.1.1-.1.1-.1.1v.5l.1.2.1.1.1.1-.1.4-1.8-.3v-1.8h.4v1.4l1 .2-.1-.2-.1-.2v-.6l.1-.2.1-.2.1-.2.2-.1.2-.1.2-.1h.6l.2.1.2.1.2.2.1.1.1.1v.2l.1.7zm-10 6.6v1.9h-3.5V104l.1-.3.2-.2.1-.1.1-.1.2-.1.2-.1.4-.1h.8l.4.1.3.1.2.1.2.1.1.2.1.2.1.1zm-.1-2.4l-.1.2-.2.2-.2.1-.2.1-.2.1-.2.1h-1.2l-.2-.1-.2-.2-.3-.2-.2-.3-.1-.1-.1-.1-.1-.2v-.9l.1-.2.1-.2.1-.2.1-.2.2-.1.2-.1.2-.1.2-.1h.9l.2.1.2.1.2.1.2.1.1.2.1.2.1.2.1.2v.8l-.1.2.3.3zm-9.7-4.1v.4l-.1.2-.1.2-.2.1-.2.1-.2.1h-.2l-.1-.4.3-.1.1-.1.1-.1.1-.1.1-.1v-.4l-.1-.1-.1-.1-.1-.1-.1-.1h-.4l-.1.1-.1.1-.1.1-.1.1v.6h-.4v-.4l-.1-.2-.1-.1-.1-.1h-.4l-.1.1-.1.1-.1.1-.1.1v.4l.1.1.1.1.1.1.1.1.3.1-.1.4-.2-.1-.2-.1-.2-.1-.1-.1-.1-.2-.1-.2v-.7l.1-.3.1-.2.2-.2.2-.1h.4l.2.1.2.2.1.2v-.1l.1-.1.1-.1.1-.1.1-.1.1-.1h.5l.2.1.2.1.2.1.1.2.1.2.1.2v.2zm-10.1 6.5v1.9h-3.5V104l.1-.3.2-.2.1-.1.1-.1.2-.1.2-.1.4-.1h.8l.4.1.3.1.2.1.2.1.1.2.1.2.1.1zm-.1-2.4l-.1.2-.2.2-.2.1-.2.1-.2.1-.2.1h-1.2l-.2-.1-.2-.1-.3-.2-.2-.3-.1-.1-.1-.1-.1-.2v-.9l.1-.2.1-.2.1-.2.1-.2.2-.1.2-.1.2-.1.2-.1h.9l.6-.1.2.1.2.1.2.1.1.2.1.2.1.2.1.2v.8l-.1.2-.1.4zm-13.3-4.4v-.3h3.6v.4h-2.8l.2.2.1.2.1.2.1.2h-.4l-.2-.3-.2-.3-.2-.2-.3-.1zm-6.4 6.8v1.9h-3.5V104l.1-.3.2-.2.1-.1.1-.1.2-.1.2-.1.4-.1h.8l.4.1.3.1.2.1.2.1.1.2.1.2.1.1zm-.1-2.4l-.1.2-.2.2-.2.1-.2.1-.2.1-.2.1h-1.2l-.2-.1-.2-.1-.3-.2-.2-.3-.1-.1-.1-.1-.1-.2v-.9l.1-.2.1-.2.1-.2.1-.2.2-.1.2-.1.2-.1.2-.1h.9l.2.1.2.1.2.1.2.1.1.2.1.2.1.2.1.2v.8l-.1.2.3.2zm.2-4.2v.2l-.1.2-.1.3-.2.2-.3.2-.2.1-.2.1h-1.3l-.5-.1-.2-.1-.2-.1-.1-.1-.1-.1-.1-.1-.1-.2v-.7l.1-.2.1-.2.2-.2.3-.1.3-.1.4-.1h.9l.5.1.2.1.2.1.1.1.1.1.1.1.1.2v.2l.1.1zm9.7 4.2l-.1.2-.2.2-.2.1-.2.1-.2.1-.2.1h-1.2l-.2-.1-.2-.1-.3-.2-.2-.3-.1-.1-.1-.1-.1-.2v-.9l.1-.2.1-.2.1-.2.1-.2.2-.1.2-.1.2-.1.2-.1h.9l.5-.1.2.1.2.1.2.1.1.2.1.2.1.2.1.2v.8l-.1.2v.4zm.1 2.4v1.9h-3.5V104l.1-.3.2-.2.1-.1.1-.1.2-.1.2-.1.4-.1h.8l.4.1.3.1.2.1.2.1.1.2.1.2.1.1zm9.3-6.1l.2.2v-1.7h.4v2.3h-.3l-.2-.1-.2-.2-.3-.3-.3-.3-.4-.4-.4-.4-.2-.1h-.4l-.1.1-.1.1-.1.1-.1.1v.4l.1.1.1.1.1.1.1.1h.2v.4h-.2l-.2-.1-.2-.1-.2-.1-.1-.2-.1-.2v-.8l.1-.2.1-.2.2-.1.2-.1.2-.1h.4l.2.1.2.1.2.2.3.3.3.3.5.6zm10.4 3.7l-.1.2-.2.2-.2.1-.2.1-.2.1-.2.1h-1.2l-.2-.1-.2-.1-.3-.2-.2-.3-.1-.1-.1-.1-.1-.2v-.9l.1-.2.1-.2.1-.2.1-.2.2-.1.2-.1.2-.1.2-.1h.9l.2.1.2.1.2.1.2.1.1.2.1.2.1.2.1.2v.8l-.1.2.3.2zm.2 2.4v1.9h-3.5V104l.1-.3.2-.2.1-.1.1-.1.2-.1.2-.1.4-.1h.8l.4.1.3.1.2.1.2.1.1.2.1.2.1.1zm9.1-7.2h.8v.4h-.8v1.5h-.4l-2.3-1.6v-.4h2.3v-.5h.4v.6zm10.6 4.8l-.1.2-.2.2-.2.1-.2.1-.2.1-.2.1h-1.2l-.2-.1-.1-.2-.3-.2-.2-.3-.1-.1-.1-.1-.1-.2v-.9l.1-.2.1-.2.1-.2.1-.2.2-.1.2-.1.2-.1.2-.1h.9l.2.1.2.1.2.1.2.1.1.2.1.2.1.2.1.2v.8l-.1.2.2.3zm.1 2.4v1.9h-3.5V104l.1-.3.2-.2.1-.1.1-.1.2-.1.2-.1.4-.1h.8l.4.1.3.1.2.1.2.1.1.2.1.2.1.1zm6.4-6.7v-.4l.1-.2.1-.2.1-.1.2-.1.2-.1h.2v.4l-.2.1-.2.1-.1.1-.1.1v.4l.1.2.2.2.2.1.4.1h.4l-.2-.2-.2-.2-.1-.2v-.4l.1-.2.1-.2.1-.2.2-.1.2-.1.2-.1h.5l.3.1.2.2.2.2.1.3v.6l-.1.2-.1.2-.2.2-.3.2-.2.1h-1.3l-.4-.1-.2-.1-.2-.1-.3-.2-.2-.2-.1-.2-.1-.2h.4zm13.3 4.3l-.1.2-.2.2-.1.1-.2.1-.2.1-.2.1h-1.2l-.2-.1-.2-.1-.3-.2-.2-.3-.1-.1-.1-.1-.1-.2v-.9l.1-.2.1-.2.1-.2.1-.2.2-.1.2-.1.2-.1.2-.1h.9l.2.1.2.1.2.1.2.1.1.2.1.2.1.2.1.2v.8l-.1.2.2.2zm.1 2.4v1.9H205V104l.1-.3.2-.2.1-.1.1-.1.2-.1.2-.1.4-.1h.8l.4.1.3.1.2.1.2.1.1.2.1.2.1.1zM159.3 2.8v3.1h-.4V2.8h.4zm4.3 1.8v1.3h-.4V2.8h1.6l.2.1.2.1.1.1.1.2.1.2v.6l-.1.2-.1.2-.2.1-.2.1h-1.3zm6.9-1.4V6h-.4V3.2h-1v-.4h2.5v.4h-1.1zm-30.8 5.1v2.5h-.4V7.7h.4l1.6 2.4V7.7h.4v3.1h-.4l-1.6-2.5zm7.6 2.1v.4h-1.9V7.7h.4v2.8h1.5zm1 .2l-.2-.1-.1-.1-.1-.2-.1-.2-.1-.2-.1-.2v-.7l.1-.3.1-.1.1-.1.2-.3.2-.2.1-.1.1-.1h.9l.2.1.2.1.2.1.1.1.1.2.1.2.1.2.1.2v.8l-.1.2-.1.2-.1.2-.1.2-.1.1-.2.1-.2.1-.2.1h-.8l-.2-.1-.1-.2zm40.5.1h-1.6v-3h1.7l.2.1.2.1.2.2.1.3.1.4v.7l-.1.3-.1.2-.1.2-.1.2-.2.1-.2.1-.1.1zm5.1-.6v-.6h-.9v-.3h1.3v1.2l-.3.2-.3.2-.3.1h-.7l-.2-.1-.2-.1-.2-.1-.2-.1-.1-.2-.1-.2-.1-.2-.1-.2v-.8l.1-.2.1-.2.1-.2.1-.2.2-.1.2-.1.2-.1.2-.1h.7l.3.1.2.1.2.2.1.2.1.3-.4.1-.1-.2-.1-.2-.1-.1-.1-.2h-1l-.2.1-.2.1-.1.1v.3l-.1.3v.9l.1.2.1.1.1.1.1.1.1.1.3.1h.6l.3-.1.2-.1.1-.2zm3.5-2.1v2.8h-.4V8h-1v-.3h2.5V8h-1.1zM78.9 9h.4l.2-.1.2-.1.1-.1.1-.2.1-.2v-.2l.5.1-.1.3-.1.2-.2.2-.2.2-.2.1-.2.1-.2.1h-.7l-.2-.1-.4-.1-.1-.2-.2-.2-.1-.2-.1-.2-.1-.2V7.1l.1-.2.1-.2.1-.2.1-.2.2-.1.1-.2.2-.1.2-.1h.8l.2.1.4.1.1.2.1.2.1.2.1.2-.5.1-.1-.2-.1-.2-.1-.1-.1-.1-.1-.1-.1-.1h-.8l-.2.1-.2.1-.1.1-.1.1.2.2-.1.2-.1.3v.7l.1.4.1.2.1.1.1.1.1.1.3.2h.3zm5.9-2.4v2.8h-.4V5.8h.5l1.9 2.8V5.8h.4v3.5h-.5l-1.9-2.7zm-3.3 1.7l-.4 1.1h-.5L82 5.8h.5L84 9.3h-.5l-.5-1h-1.5zm117.4 1.5l-.3.9h-.4l1.2-3.1h.4l1.3 3.1h-.5l-.4-.9h-1.3zm-3.5-2.1v3.1h-.4V7.7h.4zm-4.6 0v3.1h-.4V7.7h.4zm-37.3 2.4v-.6h-.9v-.3h1.3v1.2l-.3.2-.3.2-.3.1h-.7l-.2-.1-.2-.1-.2-.1-.2-.1-.1-.2-.1-.2-.1-.2-.1-.2v-.8l.1-.2.1-.2.1-.2.1-.2.2-.1.2-.1.2-.1.2-.1h.7l.3.1.2.1.2.2.1.2.1.3-.4.1-.1-.2-.1-.2-.1-.1-.2-.2h-.9l-.2.1-.2.1-.1.1-.1.2-.1.3v.9l.1.2.1.1.1.1.1.1.1.1.3.1h.6l.3-.1.2-.1.2-.1zm49.8.3v.4h-1.9V7.7h.4v2.8h1.5zm-60.4-.6l-.3.9h-.4l1.2-3.1h.4l1.3 3.1h-.5l-.4-.9h-1.3zm-6.1 0l-.3.9h-.5l1.2-3.1h.4l1.3 3.1h-.5l-.4-.9h-1.2zM168 5.4l.1-.2.1-.2V2.8h.4V5l-.1.4-.1.1-.1.1-.1.1-.1.1-.2.1-.2.1h-.8l-.2-.1-.2-.1-.1-.1-.1-.1-.1-.1-.1-.1V2.8h.4v2.1l.1.3.1.2.2.1.2.1h.6l.2-.1.1-.1zm-7.5-1.9V6h-.4V2.8h.4l1.6 2.4V2.8h.4v3.1h-.4l-1.6-2.4zm95.6 96.2h1.9v1.8l-.1.2-.1.2-.1.2-.1.2-.1.2-.1.2-.1.2-.1.2-.1.2-.1.2-.1.2-.1.2-.1.2-.1.2-.1.2-.2.2-.2.2-.2.2-.2.1-.2.1-.2.1-.2.1-.2.1-.2.1-.2.1-.2.1-.2.1-.2.1-.2.1-.2.1-.2.1-.2.1h-2.8l-.2-.1-.2-.1-.2-.1-.2-.1-.2-.1-.2-.1-.2-.1-.2-.1-.2-.1-.2-.1-.2-.1-.2-.1-.2-.1-.2-.1-.2-.2-.2-.2-.2-.2-.1-.2-.1-.2-.1-.2-.1-.2-.1-.2-.1-.2-.1-.2-.1-.2-.1-.2-.1-.2-.1-.2-.1-.2-.1-.2-.1-.2-.1-.2v-1.8h1.9v1.6l.1.2.1.2.1.2.1.2.1.2.1.2.1.2.1.2.1.2.1.2.1.2.1.1.2.1.2.1.2.1.2.1.2.1.2.1.2.1.2.1.2.1.2.1.2.1.2.1h.1V101h1.9v3.7h.1l.2-.1.2-.1.2-.1.2-.1.2-.1.2-.1.2-.1.2-.1.2-.1.2-.1.2-.1.2-.1.1-.1.1-.2.1-.2.1-.2.1-.2.1-.2.1-.2.1-.2.1-.2.1-.2.1-.2.1-.2v-1.4l-.5-.1zm.2-68.3h1.8V39h-1.8v-7.6zm-.2 79.2h1.9v1.8l-.1.2-.1.2-.1.2-.1.2-.1.2-.1.2-.1.2-.1.2-.1.2-.1.2-.1.2-.1.2-.1.2-.1.2-.1.2-.2.2-.2.2-.2.2-.2.1-.2.1-.2.1-.2.1-.2.1-.2.1-.2.1-.2.1-.2.1-.2.1-.2.1-.2.1-.2.1-.2.1h-2.8l-.2-.1-.2-.1-.2-.1-.2-.1-.2-.1-.2-.1-.2-.1-.2-.1-.2-.1-.2-.1-.2-.1-.2-.1-.2-.1-.2-.1-.2-.2-.2-.2-.2-.2-.1-.2-.1-.2-.1-.2-.1-.2-.1-.2-.1-.2-.1-.2-.1-.2-.1-.2-.1-.2-.1-.2-.1-.2-.1-.2-.1-.2-.1-.2v-1.8h1.9v2.6l.1.1.1.1.1.1.1.1.1.1.1.1.1.1.1.1.1.1.1.1.1.1.1.1.1.1.1.1.1.1.1.1.1.1.1.1.1.1.1.1.1.1.1.1.1.1.1.1.2.1.2.1h3.6l.2-.1.2-.1.1-.1.1-.1.1-.1.1-.1.1-.1.1-.1.1-.1.1-.1.1-.1.1-.1.1-.1.1-.1.1-.1.1-.1.1-.1.1-.1.1-.1.1-.1.1-.1.1-.1.1-.1.1-.1.1-.1.1-.1v-2.4l-.4-.2zm-10.9-80h.3l2 2h.9v.6l3.4.3 2.5-2.3.2.2-1.7 1.6h.4l.1.1.1.1.1.1.1.1v.5l-.1.2-.1.2-.2.1v1.8h.4v.5h-.4v.1h-.1l-1.3.1 2.6 2.6-.2.2-2.8-2.7-3.2.3-2.7 2.6h-.3l2.7-2.5-.8.1v.4h-.2v-.3l-.2-.1-.1-.1-.1-.2-.1-.2h-.2v-.4l-.1-.4v-.4h-.1v-1.2h.1v-.3l.1-.3.1-.1.1-.1.1-.1.1-.1-.1-.1v-.4l.1-.1.1-.1h.2l.1.1.1.1v.3h.4v-.2l-2.3-2.6zM57.6 26v.3l-.1.3-.1.1-.1.1-.2.2-.3.2-.1.1-.1.1-.3.1h-1.1l-.2-.1v-.2l-.3-.2-.1-.2-.1-.2-.1-.3v-.6l.1-.3.1-.1.1-.1.2-.2.3-.2.1-.1.1-.1.3-.1h.7l.2.1.2.1.2.1.1.1.1.1.1.2.1.2.1.2v.2l.1.2zm0-3.3v.3l-.1.3-.1.1-.1.1-.2.2-.3.2-.1.1-.1.1-.3.1h-1.1l-.1-.2-.1-.1-.3-.2-.1-.2-.1-.2-.1-.3v-.6l.1-.3.1-.1.1-.1.2-.2.3-.2.1-.1.1-.1.3-.1h.7l.2.1.2.1.2.1.1.1.1.1.1.2.1.2.1.2v.2l.1.2zm-12.6 3v-.3l-.1-.2-.1-.1-.2-.1-.3-.1.1-.5.2.1.2.1.2.1.2.2.1.2.1.2v.7l-.1.3-.1.1-.1.1-.1.2-.3.2-.1.1-.1.1-.3.1h-.6l-.3-.1-.3-.1-.1-.1-.3-.2-.2-.2-.1-.1-.1-.1v-.9l.1-.3.1-.1.1-.1.2-.2.3-.2.1-.1.1-.1.3-.1h.4v2.3h.4l.2-.1.2-.1.1-.1.1-.2v-.2l.1-.1zm.4-3.1v.4l-.1.2-.1.2-.2.2-.2.1-.2.1-.2.1-.1-.5h.2l.1-.1.1-.1.1-.1.1-.1v-.6l-.1-.4-.2-.1h-.4v.1l-.1.3-.1.2-.1.4-.1.4-.1.2-.2.1-.2.1h-.4l-.2-.1-.2-.1-.1-.1-.1-.2-.1-.2v-.7l.1-.3.1-.2.2-.2.2-.1.2-.1.1.5-.2.1-.2.1-.1.1v.7l.1.1.1.1h.4l.1-.1.1-.1.1-.5.1-.4.1-.4.1-.2.2-.2.2-.1h.5l.2.1.2.2.1.2.1.3.1.7zm-.4-3.2v-.3l-.1-.2-.1-.1-.1-.1-.3-.1.1-.5.2.1.2.1.2.1.2.2.1.2.1.2v.7l-.2.3-.1.1-.1.1-.1.3-.3.2-.1.1-.1.1-.3.1h-.6l-.3-.1-.3-.2-.1-.1-.3-.2-.2-.2-.1-.1V20l-.1-.3v-.6l.1-.3.1-.1.1-.1.2-.2.3-.2.1-.1.1-.1.3-.1h.4v2.3h.4l.2-.1.2-.1.1-.1.1-.2v-.2l.1-.1zm-.1-2.7v-.4l.5-.1v.6l-.1.2-.1.1-.1.1-.3.1h-2.1v.4h-.4v-.4h-.8l-.3-.5h1.1v-.5h.4v.5h2l.2-.1zm-1.5 13.9h1.9v.6H41v-2.3l.1-.4.1-.1.1-.1.1-.1.1-.1.2-.1.2-.1h.8l.2.1.2.1.2.2.1.2.1.2v.2l.1-.2.1-.2.3-.3.3-.2 1.2-.7v.7l-.9.6-.6.4-.2.1-.1.2-.1.1v1.2zM57 19.9v-.4l.5-.1v.6l-.1.2-.1.1-.1.1-.3.1h-2.1v.4h-.4v-.4h-.8l-.3-.5h1.1v-.5h.4v.5h2l.2-.1zm.4 9l.1.3v1.9h-4.3v-2l.1-.4.1-.1.1-.1.1-.1.1-.1.3-.1h.6l.2.1.2.2.2.3.1-.2.1-.2.1-.1.1-.1.1-.1.2-.1h.7l.3.1.2.1.2.2.1.2v.3z"/><path d="M53.1 35.4c0 1.2 1 2.1 2.1 2.1 1.2 0 2.1-1 2.1-2.1 0-1.2-1-2.1-2.1-2.1s-2.1 1-2.1 2.1zm-12 0c0 1.2 1 2.1 2.1 2.1 1.2 0 2.1-1 2.1-2.1 0-1.2-1-2.1-2.1-2.1s-2.1 1-2.1 2.1z" stroke-width=".25" fill="#1d1d1b" stroke="#1d1d1b" stroke-linecap="round" stroke-linejoin="round" stroke-miterlimit="113.386"/><path class="st1" d="M5.7 70.9c0 4.7 3.8 8.5 8.5 8.5s8.5-3.8 8.5-8.5-3.8-8.5-8.5-8.5-8.5 3.8-8.5 8.5zm255.1 0c0 4.7 3.8 8.5 8.5 8.5s8.5-3.8 8.5-8.5-3.8-8.5-8.5-8.5-8.5 3.8-8.5 8.5z"/><path d="M174.9 12.2V7.1h.6v5.1h39.4c.8 0 1.4.6 1.4 1.4v18.1c0 .8-.6 1.4-1.4 1.4h-99.8c-.8 0-1.4-.6-1.4-1.4V13.6c0-.8.6-1.4 1.4-1.4h59.8zM67 33.2c-.8 0-1.4-.6-1.4-1.4V13.6c0-.8.6-1.4 1.4-1.4h30.3c.8 0 1.4.6 1.4 1.4v18.1c0 .8-.6 1.4-1.4 1.4H67zm0 96.3c-.8 0-1.4-.6-1.4-1.4V110c0-.8.6-1.4 1.4-1.4h30.3c.8 0 1.4.6 1.4 1.4v18.1c0 .8-.6 1.4-1.4 1.4H67zm145.2-20.9c.8 0 1.4.6 1.4 1.4v18.1c0 .8-.6 1.4-1.4 1.4h-79.9c-.8 0-1.4-.6-1.4-1.4V110c0-.8.6-1.4 1.4-1.4h79.9z" fill="none" stroke="#000" stroke-linecap="round" stroke-linejoin="round" stroke-miterlimit="113.386" stroke-width=".25"/><path d="M174.2 49c0-.8.6-1.4 1.4-1.4 0 0 0 0 0 0h40c.8 0 1.4.6 1.4 1.4v43.7c0 .8-.6 1.4-1.4 1.4h-40c-.8 0-1.4-.6-1.4-1.4h0V49z" fill="#c2c3c0" stroke="#969696" stroke-width=".25" stroke-linecap="round" stroke-linejoin="round" stroke-miterlimit="113.386"/><path d="M156.6 64.5h4.3c1.2 0 2.1-1 2.1-2.1s-1-2.1-2.1-2.1h0-4.3c-1.2 0-2.1 1-2.1 2.1s.9 2.1 2.1 2.1z" fill="#d6d900" stroke="#1d1d1b" stroke-width=".25" stroke-linecap="round" stroke-linejoin="round" stroke-miterlimit="113.386"/><path class="st6" d="M156.6 81.5h4.3c1.2 0 2.1-1 2.1-2.1s-1-2.1-2.1-2.1h-4.3c-1.2 0-2.1 1-2.1 2.1s.9 2.1 2.1 2.1z"/><path class="st1" d="M70.9.9C32.2.9.9 32.3.9 70.9c0 38.7 31.3 70 70 70h141.7c38.7 0 70-31.4 70-70 0-38.7-31.3-70-70-70H70.9z"/><path class="st1" d="M52.6 59.9c.3.7.5 1.4.5 2.2v17.5c0 .8-.2 1.5-.5 2.2-.7 1.4-2.1 2.3-3.7 2.3h-1.4c-1.6 0-3-.9-3.7-2.3-.3-.7-.5-1.4-.5-2.2V62.1c0-.8.2-1.5.5-2.2.7-1.4 2.1-2.3 3.7-2.3h1.4c1.5 0 3 .9 3.7 2.3z"/><path class="st6" d="M68.7 81.5H73c1.2 0 2.1-1 2.1-2.1s-1-2.1-2.1-2.1h-4.3c-1.2 0-2.1 1-2.1 2.1s1 2.1 2.1 2.1zm0-17H73c1.2 0 2.1-1 2.1-2.1s-1-2.1-2.1-2.1h-4.3c-1.2 0-2.1 1-2.1 2.1s1 2.1 2.1 2.1z"/><path class="st1" d="M93.4 103.7h.4v2.6h-3.5v-2.6h.4v2.1h1.1v-2h.4v2h1.2v-2.1zm-10.2-.2h-.7v1h-.4V103h1.3l.2.3.2.4.1.4v.8l-.1.2-.1.2-.1.2-.1.2-.2.1-.2.1-.2.1-.2.1h-.8l-.2-.1-.2-.1-.5.1-.2-.1-.2-.2-.1-.2-.1-.2-.1-.2v-.8l.1-.3.1-.3.2-.2.3-.2.3-.1.1.4-.2.1-.2.1-.1.2-.1.2-.1.2v.5l.1.3.1.2.1.2.2.1.2.1.3.1h.8l.2-.1.2-.1.1-.1.1-.1.1-.1.1-.1.1-.3v-.6l-.1-.3-.1-.2v-.4zm.6-6.6v1.9h-3.5V97l.1-.3.2-.2.1-.1.1-.1.2-.1.2-.1.4-.1h.8l.4.1.3.1.2.1.2.1.1.2.1.2.1.1zm-9.9-2.3v1.9h-3.5v-1.8l.1-.3.2-.2.1-.1.1-.1.2-.1.2-.1.4-.1h.8l.4.1.3.1.2.1.2.1.1.2.1.2.1.1zm-3.5 5.8l3.5 1.4v.5l-3.5 1.4v-.5l2.6-.9.6-.2-.6-.2-2.6-1v-.5z"/><path class="st7" d="M89.6 62l-.8 3h-.7l-1.2-3.9h.7l.6 2.2.2.8.2-.8.6-2.3h.7l.6 2.3.2.7.2-.8.6-2.3h.6l-1 4.1h-.7l-.6-2.3-.2-.7z"/><path class="st1" d="M89.2 81.4h.4l.1-.1.1-.1.1-.1.1-.1.1-.2.1-.2.7.1-.1.3-.1.3-.2.2-.2.2-.3.1-.3.1-.3.1h-.9l-.2-.1-.2-.1-.2-.1-.3-.2-.2-.3-.1-.2-.1-.2-.1-.2v-1.4l.1-.2.1-.2.2-.3.3-.2.1-.1.2-.1.2-.1h1.2l.2.1.2.1.1.1.3.2.2.3.1.2.1.2v1h-2.9v.3l.1.3.1.2.2.2.2.1.2.1.2.1.4-.1zm3.2-1.6v2h-.7v-3.9h.6v.6l.2-.3.2-.3.2-.1h.6l.2.1.2.1-.2.6-.2-.1H93l-.2.1-.2.2-.1.2-.1.4v.4z"/><path class="st7" d="M94.5 64.5h.4l.1-.1.1-.1.1-.1.1-.1.1-.2.1-.2.7.1-.1.3-.1.2-.2.2-.2.2-.3.1-.2.2-.3.1h-.9l-.2-.1-.2-.1-.2-.1-.3-.2-.2-.3-.1-.2-.1-.2-.1-.2v-1.4l.1-.2.1-.2.2-.3.3-.2.1-.1.2-.1.2-.1h1.2l.2.1.2.1.1.1.3.2.2.3.1.1.1.2v1h-2.9v.3l.1.3.1.2.2.2.2.1.2.1.2.1h.3z"/><path class="st1" d="M93.5 47v-.4l-.1-.2-.1-.2-.1-.1H93l-.2-.1-.2-.1.1-.5.3.1.2.1.2.2.2.2.1.2.1.2.1.2v.7l-.1.2-.1.2-.2.3-.2.2-.2.1-.1.1-.2.1-.2.1h-.9l-.2-.1-.2-.1-.2-.1-.2-.1-.3-.2-.1-.2-.1-.2-.1-.2v-.8l.1-.2.1-.2.2-.2.2-.1.2-.1.2-.1.1.5-.2-.2-.2.1-.1.1-.1.1-.1.1-.1.1v.8l.1.2.1.2.1.1.1.1.1.1.2.1.3.1h.7l.4-.1.1-.1.1-.1.1-.1.1-.1.1-.3.3-.4zM91 41.1h2.8v.4h-3.5V41l2.8-1.9h-2.8v-.4h3.5v.5L91 41.1zm-7.4 6.5v-.4l-.1-.2-.1-.2-.1-.1H83l-.2-.1-.2-.1.1-.5.3.1.2.1.2.2.2.2.1.2.1.2.1.2v.7l-.1.2-.1.2-.1.2-.2.2-.2.1-.1.2-.2.1-.2.1h-.9l-.2-.1-.5-.1-.1-.1-.2-.1-.1-.2-.1-.2-.1-.2-.1-.2v-.8l.1-.2.1-.2.2-.2.2-.1.2-.1.2-.1.1.5-.2.1-.2.1-.1-.2-.1.1-.1.1-.1.1v.8l.1.2.1.2.1.1.1.1.1.1.2.1.3.1h.7l.4-.1.1-.1.1-.1.1-.1.1-.1.1-.3.3-.4zm-2.5-5.9h2.8v.4h-3.5v-.5l2.8-1.9h-2.8v-.4h3.5v.5l-2.8 1.9zm-7.8 1.8h-.7v1h-.4V43h1.3l.2.3.2.4.1.4v.8l-.1.2-.1.2-.1.2-.1.2-.2.1-.2.1-.2.1-.2.1H72l-.2-.1-.2-.1-.5.1-.2-.1-.2-.2-.1-.2-.1-.2-.1-.3v-.8l.1-.3.1-.3.2-.2.3-.2.3-.1.1.4-.2.1-.2.1-.1.1-.1.2-.1.2v.5l.1.3.1.2.1.2.2.1.2.1.3.1h.8l.2-.1.2-.1.1-.1.1-.1.1-.1.1-.1.1-.3v-.6l-.1-.3-.1-.2v-.2zm.6-6.6v1.9h-3.5V37l.1-.3.2-.2.1-.1.1-.1.2-.1.2-.1.4-.1h.8l.4.1.3.1.2.1.2.1.1.2.1.2.1.1zm-2.7 5H74v.4h-3.5v-.5l2.8-1.9h-2.8v-.4H74v.5l-2.8 1.9zM82.8 45l1.1.4v.5l-3.5-1.4V44l3.5-1.5v.5l-1.1.4V45zm-.6-6.9h1.7v.5h-3.5v-.5h1.5v-1.8h-1.5v-.5h3.5v.5h-1.7v1.8zm10.6 6.3l1.1.4v.5l-3.5-1.4v-.5l3.5-1.5v.5l-1.1.4v1.6zm.6-8.6h.4V38h-3.5v-.5h3.1v-1.7z"/><path class="st7" d="M84.8 65.2h-.6l-.2-.1-.1-.1-.2-.1-.3-.2-.2-.3-.1-.2V64l-.1-.2v-1.2l.1-.2.1-.2.1-.2.3-.4.3-.2.1-.1.1-.1.3-.1h.9l.2.1.2.1.2.1.3.2.2.3.1.2.1.2.1.2v1.2l-.2.3-.1.3-.1.2-.1.2-.2.2-.2.1h-.3l-.2.1h-.2l-.3.1z"/><path class="st1" d="M85.2 82h-.6l-.3-.1-.3-.2-.2-.2-.2-.2V81l-.1-.3.7-.1v.2l.1.2.1.1.1.1.2.1.2.1h.8l.2-.1.2-.1.1-.1.1-.1v-.4l-.3-.1-.1-.1-.3-.1-.3-.1-.5-.1-.5-.2-.3-.1-.2-.2-.1-.3v-.5l.1-.2.1-.2.2-.2.2-.1.2-.1.3-.1h.7l.4.1.3.1.1.1.1.1.2.3.1.3-.7.2V79l-.1-.1-.1-.1-.1-.1-.1-.1-.1-.1h-.8l-.2.1-.2.1-.1.1-.1.1v.3l.1.1.1.1.1.1.6.2.5.1.5.2.2.1.2.2.1.1.1.1v.7l-.1.2-.1.1-.1.1-.1.1-.1.1H86l-.2.1-.2.1h-.4zm-3.6-1l.2-.3.1-.2v-4.1h.7v3.7l-.1.3-.1.3-.1.2-.1.2-.2.2-.2.2-.3.1-.3.4H80l-.3-.1-.3-.1-.2-.1-.2-.2-.2-.2-.1-.3-.1-.3-.1-.3v-3.7h.7v3.9l.1.3.1.2.1.1.1.1.1.1.2.1.2.1h.7l.3-.1.1-.1.1-.1.3-.3z"/><path class="st7" d="M97.7 62.9v2l-.7.1v-3.9h.6v.6l.2-.3.2-.3.2-.1h.6l.2.1.2.1-.2.6-.2-.1h-.5l-.3.1-.2.2-.1.2-.1.4.1.3zM79 63v2.2h-.7l-.1-5.4H81l.3.1.3.2.1.1.1.1.2.3.1.4v.7l-.1.3-.1.1-.1.1-.2.3-.4.2-.2.1-.2.1H80l-1 .1z"/><path class="st1" d="M73.9 98.2v1.9h-3.5v-1.8l.1-.3.2-.2.1-.1.1-.1.2-.1.2-.1.4-.1h.8l.4.1.3.1.2.1.2.1.1.2.1.2.1.1zm-1.5 6.7h1v.4h-1v1H72v-1h-1v-.4h1v-1h.4v1zm8.7-3h2.8v.4h-3.5v-.5l2.8-1.9h-2.8v-.4h3.5v.5l-2.8 1.9zm9.6-.3h3.1v.5h-3.1v1.2h-.4v-2.8h.4v1.1zM40 74.1l-.3-.1-.3-.1h-3.1v-.6h3.3l.2.1.2.1.2.1.1.1.1.2.1.2.1.2v1.1l-.1.2-.1.2.1.2-.1.2-.2.1-.2.1-.3.1-.3.1h-3.1V76h2.9l.4-.1.1-.1.1-.1.1-.1.1-.1.1-.3v-.7l-.1-.2v-.2zm.6-2.5l-.1.2-.1.2-.1.1-.2.1-.1.2-.2.1h-.4V72l.3-.1.3-.1.2-.2.1-.2.1-.3v-.6l-.1-.3-.1-.2-.2-.2-.2-.1h-.4l-.2.1-.2.2v.1l-.1.4-.1.4-.1.4-.2.4-.2.3-.2.2-.3.1h-.7l-.1-.1v-.1l-.2-.1-.1-.1-.1-.1-.1-.2-.1-.4v-.8l.1-.4.1-.2.1-.1.1-.1.1-.1.2-.1.2-.1h.4v.5h-.2l-.2.1-.1.1-.1.1-.1.1-.1.2v.8l.1.2.1.2.1.1.1.1h.4l.1-.1.1-.1.1-.2.1-.2.1-.4.1-.5.2-.5.2-.3.1-.1.1-.1.1-.1.1-.1h.8l.2.1.2.1.1.1.1.1.1.2.1.2.1.2.1.2v.8l-.1.2-.2.3zm.1-5.5l.1.3v1.9h-4.3v-2l.1-.4.1-.1.1-.1.1-.1.1-.1.3-.1h.6l.2.1.2.2.2.3.1-.2.1-.2.1-.1.1-.1.1-.1.2-.1h.7l.3.1.2.1.2.2.1.2v.3zM229.2 98v-.2l-.1-.2-.1-.2-.1-.2-.2-.2-.2-.1-.2-.1-.3-.1.4-1.2.4.1.2.1.2.1.2.1.2.1.3.3.2.4.1.2.1.2v.8l-.1.5-.1.3-.1.3-.1.2-.1.2-.3.4-.5.3-.3.1-.3.1-.3.1h-1.8l-.3-.1-.3-.1-.3-.1-.5-.3-.4-.4-.2-.2-.1-.2-.1-.3-.1-.3-.1-.6v-.7l.1-.2.1-.2.1-.2.3-.4.2-.2.3-.2.3-.1.3-.1.3 1.2-.2.1-.2.1-.2.1-.2.2-.1.2-.1.2v.9l.1.1.1.1.2.2.4.2.2.1.2.1h1.6l.2-.1.2-.1.4-.2.2-.2.1-.1.1-.1v-.2l.3-.3zm-2.9-11h3.8v1.1h-5.9v-1.2l3.9-2.4h-3.9v-1.1h5.9v1.2l-3.8 2.4zm1.4-11.1h2.5v1.2h-5.9V74l.1-.3.1-.3.1-.2.1-.2.2-.2.2-.1.2-.1.2-.1h.7l.3.1.3.1.2.2.2.3.1.1.1.1.1.3.1.3.2-.3.3-.3.5-.4.5-.3 1.1-.7v1.4l-1.3.9-.4.3-.4.3-.1.2-.1.2-.1.3v.3zm1.4-15.3h1v4.1h-5.8v-1.2h4.8v-2.9zm10 2.9l-.2.2-.2.2-.2.2-.2.2-.3.1-.3.1h-1.2l-.3-.1-.3-.1-.2-.2-.2-.2-.2-.2-.2-.2-.1-.3v-1.4l.1-.2.1-.2.1-.2.3-.4.4-.3.2-.1.2-.1.2-.1h1.2l.2.1.2.1.2.1.4.3.3.3.1.2.1.2.1.2v1.2l-.1.3-.2.3zm-12.8-12.2h3.8v1.1h-5.9v-1.2l3.9-2.4h-3.9v-1.1h5.9V49l-3.8 2.3zm8.4 28.9h4.6v1.1h-5.9v-1.8l4-1.1-4-1.1v-1.8h5.9v1.1h-4.6l4.6 1.2V79l-4.6 1.2zm.3-6.9h4.3v1.1H235v-1.1zm1.6-6.9l.4.1h2.4v1.1H235v-1h.6l-.3-.2-.1-.1-.1-.1-.1-.2v-.7l.1-.2.1-.2 1 .3-.1.3-.1.3v.2l.1.2.1.1.1.1h.3zM221.2 12h.6v117.6h-.6V12zm13.7 58.3V70l.1-.3.1-.3.2-.3.2-.2.2-.2.3-.1.3-.1.2 1.1h-.2l-.1.1-.1.1-.1.1-.1.1v.6l.1.2.1.1.2.1.2.1h1.2l.3-.1.3-.1.1-.1.1-.2.1-.2V70l-.1-.1-.1-.1-.1-.1-.2-.1-.2-.1h-.2l.2-1.1.3.1.3.1.1.1.1.1.3.2.2.3.1.2.1.2.1.3v1l-.1.2-.1.2-.1.2-.3.3-.4.3-.2.1-.2.1-.2.1h-1.2l-.2-.1-.2-.1-.2-.1-.4-.3-.3-.3-.1-.2-.1-.2-.1-.2v-.2l-.2-.5zm-1.5 3h1v1.1h-1v-1.1zm-3.2-29.4l-.1.6-.1.3v.2l-.1.3-.1.2-.4.5-.5.3-.3.1-.3.1-.3.1h-1.7l-.4-.1-.4-.1-.4-.2-.4-.3-.2-.2-.1-.2-.1-.2-.1-.2-.1-.3-.1-.3v-.6l.1-.6.1-.3.1-.3.1-.3.2-.2.4-.5.5-.4.3-.1.3-.1.3-.1h1.8l.3.1.3.1.3.1.5.3.4.5.1.2.1.3.1.3.1.3-.2.7zm-6 9.7h5.9v1.2h-5.9v-1.2zm4.9 2h1v4.1h-5.8v-1.2h4.8v-2.9zm1.1 13l-.1.6-.1.3-.1.3-.1.3-.1.2-.4.5-.5.3-.3.1-.3.1-.3.1h-1.7l-.4-.1-.4-.1-.4-.2-.4-.3-.2-.2-.1-.2-.1-.2-.1-.2-.1-.3-.1-.3v-.6l.1-.6.1-.3.1-.3.1-.3.2-.2.4-.5.5-.4.3-.1.3-.1.3-.1h1.8l.3.1.3.1.3.1.5.3.4.5.1.2.1.3.1.3.1.3-.1.6zm-5 11h4.9v1.2h-4.9v1.7h-1v-4.7h1v1.8zm5 12.3l-.1.6-.1.3v.2l-.1.3-.1.2-.4.5-.5.3-.3.1-.3.1-.3.1h-1.7l-.4-.1-.4-.1-.4-.2-.4-.3-.2-.2-.1-.2-.1-.2-.1-.2-.1-.3-.1-.3v-.6l.1-.6.1-.3.1-.3.1-.3.2-.2.4-.5.5-.4.3-.1.3-.1.3-.1h1.8l.3.1.3.1.3.1.5.3.4.5.1.2.1.3.1.3.1.3-.2.7zM163 135.7l-.2-.1-.2-.2-.1-.2-.1-.2-.1-.2-.1-.2v-1.2l.1-.2.1-.2.2-.3.3-.2.1-.1.1-.1.2-.1h.9l.2.1.2.1.2.1.2.1.1.2.1.2.1.2.1.2v.9l-.1.2-.1.2-.1.2-.1.2-.2.1-.2.1-.2.1-.2.1h-.8l-.2-.1-.2.3zm8.1-2.9v3.1h-.5v-3.1h-1.2v-.4h2.8v.4h-1.1zm2.2 1.7v1.4h-.5v-3.5h1.9l.2.1.2.1.2.2.1.2.1.2v.6l-.1.2-.1.2-.2.2-.1.1h-1.7zM69.6 136h-.4l-.2-.1-.2-.1-.1-.1-.1-.2-.1-.2v-.2h.4l.1.2.1.2.2.1h.4l.2-.1.1-.1.1-.1.1-.2.1-.2v-.7l-.2.2-.2.1-.2.1h-.5l-.2-.1-.2-.1-.2-.1-.1-.2-.1-.2v-.6l.1-.2.1-.2.1-.2.2-.1.2-.1.2-.1h.6l.2.1.1.1.1.1.1.1.1.1.1.2.1.2.1.2v1l-.1.3-.1.3-.1.2-.1.2-.1.1-.1.1-.2.1-.2.1h-.2v.1zm7.6-1.6v.4h-1.3v-.4h1.3zm17.2 1.2h.4l.2-.1.2-.1.1-.1.1-.2.1-.2.1-.2.5.1-.1.3-.1.2-.2.2-.2.2-.2.1-.2.1-.2.1h-.7l-.2-.1-.2-.1-.2-.1-.2-.2-.1-.2-.1-.2-.1-.2-.1-.2v-.9l.1-.2.1-.2.1-.2.1-.2.2-.1.2-.1.2-.1.2-.1h.8l.2.1.2.1.2.2.1.2.1.2.1.2-.5.1-.1-.2-.1-.2-.1-.1-.1-.1-.1-.1-.1-.1H94l-.2.1-.2.1-.1.1-.1.1-.1.1-.1.2-.1.3v.7l.1.4.1.1.1.1.1.1.1.1.3.1.5.1zm-6.9-3.2l-1.4 3.5h-.5l-1.4-3.5h.5l.9 2.6.2.6.2-.6 1-2.6h.5zm3.7 3.5h-1.9v-3.5h1.8l.3.1.2.2.1.1.1.1.1.2.1.2.1.4v.8l-.1.4-.1.3-.1.2-.1.2-.2.1-.2.1-.1.1zm-8.2-3.5h.4l.2.1.2.1.1.1.1.2.1.2v.2h-.4l-.1-.2-.1-.2-.1-.1-.1-.1h-.4l-.2.1-.2.2-.1.2-.1.4v.4l.2-.2.2-.2.2-.1h.4l.2.1.2.1.2.1.1.2.1.2.1.2v.5l-.1.3-.2.2-.2.2-.3.1h-.6l-.2-.1-.2-.1-.2-.2-.2-.3-.1-.2v-1.3l.1-.4.1-.2.1-.2.2-.3.2-.2.2-.1.2-.1v.4zm-2.9 3.6h-.4l-.2-.1-.2-.1-.1-.2-.1-.2-.1-.2v-.2l.4-.1.1.3.1.1.1.1.1.1.1.1h.4l.1-.1.1-.1.1-.1.1-.1v-.4l-.1-.1-.1-.1-.1-.1-.1-.1h-.6v-.4h.4l.2-.1.1-.1.1-.1v-.4l-.1-.1-.1-.1-.1-.1-.1-.1h-.4l-.1.1-.1.1-.1.1-.1.1-.1.3-.4-.1.1-.2.1-.2.1-.2.1-.1.2-.1.2-.1h.7l.3.1.2.1.2.2.1.2v.4l-.1.2-.2.2-.2.1h.1l.1.1.1.1.1.1.1.1.1.1v.5l-.1.2-.1.2-.1.2-.2.1-.2.1-.2.1h-.2zm-5.8-3.6l-1.4 3.5h-.5l-1.4-3.5h.5l.9 2.6.2.6.2-.6 1-2.6h.5zm103.9 2.9l.1-.2.1-.2v-2.4h.5v2.4l-.1.4-.1.2-.1.1-.1.1-.1.1-.2.1-.2.1h-.8l-.2-.1-.2-.1-.1-.1-.1-.1-.1-.1-.1-.2-.1-.2v-2.7h.5v2.3l.1.3.1.2.2.1.2.1h.7l.2-.1h-.1zm2.8-2.5v3.1h-.5v-3.1h-1.2v-.4h2.8v.4H181zm-12.7 2.5l.1-.2.1-.2v-2.4h.5v2.4l-.1.4-.1.2-.1.1-.1.1-.1.1-.2.1-.2.1h-.8l-.2-.1-.2-.1-.1-.1-.1-.1-.1-.1-.1-.2-.1-.2v-2.7h.5v2.3l.1.3.1.2.2.1.2.1h.7l.2-.1h-.1zm42.9-94.1v1.9h-3.5v-1.8l.1-.3.2-.2.1-.1.1-.1.2-.1.2-.1.4-.1h.8l.4.1.3.1.2.1.2.1.1.2.1.2.1.1zm-3.4-2.2h3.5v.5h-3.5V39zm-7.1-1.4l.2.2V36h.4v2.3h-.3l-.2-.1-.2-.2-.3-.3-.3-.3-.4-.4-.4-.4-.2-.1h-.4l-.1.1-.1.1-.1.1-.1.1v.4l.1.1.1.1.1.1.1.1h.2v.4h-.2l-.2-.1-.2-.1-.2-.1-.1-.2-.1-.2v-.8l.1-.2.1-.2.2-.1.2-.1.2-.1h.4l.2.1.2.1.2.2.3.3.3.3.5.7zm-9.3 3v1.9h-3.5v-1.8l.1-.3.2-.2.1-.1.1-.1.2-.1.2-.1.4-.1h.8l.4.1.3.1.2.1.2.1.1.2.1.2.1.1zm-3.5-2.3h3.5v.5h-3.5v-.5zm-6.3-1.1v.2l-.1.2-.1.2-.2.2-.3.2-.2.1-.2.1h-1.3l-.5-.1-.2-.1-.2-.1-.1-.1-.1-.1-.1-.1-.1-.2v-.7l.1-.2.1-.2.2-.2.3-.1.3-.1.4-.1h.9l.5.1.2.1.2.1.1.1.1.1.1.1.1.2v.2l.1.2zm-11.1 5.2l1.1.4v.5l-3.5-1.4v-.5l3.5-1.5v.5l-1.1.4v1.6zm-2.4-3.4h3.5v.5h-3.5V39zm-7.3-2.5h.8v.4h-.8v1.5h-.4l-2.3-1.6v-.4h2.3V36h.4v.5zm-10.1 5.8l1.1.4v.5l-3.5-1.4v-.5l3.5-1.5v.5l-1.1.4v1.6zm-2.5-3.3h3.5v.5h-3.5V39zm-7-1.4l.2.2V36h.4v2.3h-.3l-.2-.1-.2-.2-.3-.3-.3-.3-.4-.4-.4-.4-.2-.1h-.4l-.1.1-.1.1-.1.1-.1.1v.4l.1.1.1.1.1.1.1.1h.2v.4h-.2l-.2-.1-.2-.1-.2-.1-.1-.2-.1-.2v-.8l.1-.2.1-.2.2-.1.2-.1.2-.1h.4l.2.1.2.1.2.2.3.3.3.3.5.7zm-10.3 4l1.1.4v.5l-3.5-1.4v-.5l3.5-1.5v.5l-1.1.4v1.6zm-2.5-3.3h3.5v.5h-3.5v-.5zm-6.3-1.1v.2l-.1.2-.1.2-.2.2-.3.2-.2.1-.2.1h-1.3l-.5-.1-.2-.1-.2-.1-.1-.1-.1-.1-.1-.1-.1-.2v-.7l.1-.2.1-.2.2-.2.3-.1.3-.1.4-.1h.9l.5.1.2.1.2.1.1.1.1.1.1.1.1.2v.2l.1.2zm-3.6 1.8h3.5v.5h-3.5V39zm2.4 3.3l1.1.4v.5l-3.5-1.4v-.5l3.5-1.5v.5l-1.1.4v1.6zm7.5-6V36h3.6v.4h-2.8l.2.2.1.2.1.2.1.2h-.4l-.2-.3-.2-.3-.2-.2-.3-.1zm9.9 2.6h3.5v.5h-3.5v-.5zm2.5 3.4l1.1.4v.5l-3.5-1.4v-.5l3.5-1.5v.5l-1.1.4v1.6zm11-5.1v.4l-.1.2-.1.2-.2.1-.2.1-.2.1h-.2l-.1-.4.3-.1.1-.1.1-.1.1-.1.1-.1V37l-.1-.1-.1-.1-.1-.1-.1-.1h-.4l-.1.1-.1.1-.1.1-.1.1v.6h-.4v-.4l-.1-.2-.1-.1-.1-.1h-.4l-.1.1-.1.1-.1.1-.1.1v.4l.1.1.1.1.1.1.1.1.3.1-.1.4-.2-.1-.2-.1-.2-.1-.1-.1-.1-.2-.1-.2V37l.1-.3.1-.2.2-.2.2-.1h.4l.2.1.2.2.1.2v-.1l.1-.1.1-.1.1-.1.1-.1.1-.1h.5l.2.1.2.1.2.1.1.2.1.2.1.2v.2zm6.3 1.8h3.5v.5h-3.5V39zm2.5 3.3l1.1.4v.5l-3.5-1.4v-.5l3.5-1.5v.5l-1.1.4v1.6zm11.1-5.1v.4l-.1.2-.1.2-.2.1-.2.1-.2.1h-.2v-.5l.3-.1.1-.1.1-.1.1-.1.1-.1v-.5l-.1-.1-.1-.1-.1-.1-.2-.1h-.8l-.1.1-.1.1-.1.1-.1.1v.5l.1.2.1.1.1.1-.1.4-1.8-.3V36h.4v1.4l1 .2-.1-.2-.1-.2v-.6l.1-.2.1-.2.1-.2.2-.1.2-.1.2-.1h.6l.2.1.2.1.2.2.1.1.1.1v.2l.1.7zM178 39h3.5v.5H178V39zm3.5 2.2v1.9H178v-1.8l.1-.3.2-.2.1-.1.1-.1.2-.1.2-.1.4-.1h.8l.4.1.3.1.2.1.2.1.1.2.1.2.1.1zm6.4-4.9V36h3.6v.4h-2.8l.2.2.1.2.1.2.1.2h-.4l-.2-.3-.2-.3-.2-.2-.3-.1zm9.9 2.6h3.5v.5h-3.5v-.5zm3.5 2.3v1.9h-3.5v-1.8l.1-.3.2-.2.1-.1.1-.1.2-.1.2-.1.4-.1h.8l.4.1.3.1.2.1.2.1.1.2.1.2.1.1zm10.1-4v.4l-.1.2-.1.2-.2.1-.2.1-.2.1h-.2l-.1-.4.3-.1.1-.1.1-.1.1-.1.1-.1V37l-.1-.1-.1-.1-.1-.1-.1-.1h-.4l-.1.1-.1.1-.1.1-.1.1v.6h-.4v-.4l-.1-.2-.1-.1-.1-.1h-.4l-.1.1-.1.1-.1.1-.1.1v.4l.1.1.1.1.1.1.1.1.3.1-.1.4-.2-.1-.2-.1-.2-.1-.1-.1-.1-.2-.1-.2V37l.1-.3.1-.2.2-.2.2-.1h.4l.2.1.2.2.1.2v-.1l.1-.1.1-.1.1-.1.1-.1.1-.1h.5l.2.1.2.1.2.1.1.2.1.2.1.2v.2z"/><path class="st1" d="M37 66.9v.8h1.3v-1.5l-.1-.2H38l-.2-.1h-.4l-.1.1-.1.1-.2.2v.6zm1.8-.1v1h1.5v-1.7l-.2-.1-.1-.1-.1-.1-.2-.1h-.4l-.2.1-.2.2-.1.2-.1.3.1.3zm2.8-37.5v1.3H43v-1.5l-.1-.3-.1-.2-.2-.1-.2-.1H42l-.1.1-.1.1-.1.2-.1.2v.3zm1-3.6v.4l.1.1.1.1.1.1.2.1h.4v-1.7l-.3.1-.1.1h-.2l-.1.1-.1.2-.1.2v.2zm0-6.3v.4l.1.1.1.1.1.1.2.1h.4v-1.7l-.3.1-.1.1-.1.1-.1.1-.1.2-.1.2-.1.1zm11.1 10.4v.8H55v-1.5l-.1-.1-.1-.1-.2-.1H54l-.1.2-.1.2-.1.3v.3zm1.8-.2v1H57v-1.7l-.1-.2-.1-.1-.1-.1-.2-.1h-.4l-.2.1-.2.1-.1.4-.1.3v.3zm-.7-3.6v.2l.1.2.1.2.1.1.2.1.2.1h.8l.2-.1.2-.1.1-.1.1-.2.1-.2v-.4l-.1-.2.1-.1-.1-.1-.2-.1-.2-.1h-.8l-.2.1-.2.1-.1.1-.1.2-.1.2-.2.1zm0-3.3v.2l.1.2.1.2.1.1.2.1.2.1h.8l.2-.1.2-.1.1-.1.1-.2.1-.2v-.4l-.1-.2.1-.1-.1-.1-.2-.1-.2-.1h-.8l-.2.1-.2.1-.1.1-.1.2-.1.2-.2.1zm16.1 15.6h2.7v-1.1l-.1-.2-.1-.2-.1-.1-.2-.2-.2-.1-.3-.1h-.7l-.2.1-.2.1-.1.1-.1.1-.3.1-.1.1-.1.3v1.1zm10.5 6.2l1 .4v-1.2l-1 .4-.7.3.3.1h.4zm9.9-.6l1 .4v-1.2l-1 .4-.7.3.3.1h.4z"/><path class="st7" d="M79 60.4v1.9h2l.2-.1.2-.1.1-.2.1-.2V61l-.1-.1-.1-.1-.1-.1-.1-.1-.1-.1-.1-.1h-2zm4.9 1.6l-.2.3-.1.3v.9l.1.3.1.3.2.3.2.2.2.1.2.1h.4l.2-.1.2-.1.2-.2.2-.3.1-.3v-.9l-.1-.3-.1-.3-.1-.3-.2-.2-.2-.1h-.6l-.2.1-.2.1-.3.1z"/><path class="st1" d="M82.2 6.2l-.1.3-.1.4-.4 1h1.2l-.4-1-.2-.7zm36.6 31v.2l.1.1.1.1.3.1.3.1h1.2l.3-.1.3-.1.1-.1.1-.1.1-.1v-.4l-.1-.1-.1-.1-.1-.1-.3-.1-.3-.1h-1.2l-.3.1-.3.1-.1.1-.1.1-.1.1.1.3zm0 4.4l.3.1.3.1 1 .4V41l-1 .4-.6.2zm10-.7l.3.1.3.1 1 .4v-1.2l-1 .4-.6.2zm9.9.7l.3.1.3.1 1 .4V41l-1 .4-.6.2zm9.9 0l.3.1.3.1 1 .4V41l-1 .4-.6.2zm9.9 0l.3.1.3.1 1 .4V41l-1 .4-.6.2zm.3-4.7l1.6 1.1v-1.1h-1.6zm9.6 4.7l.3.1.3.1 1 .4V41l-1 .4-.6.2zm9.9-4.4v.2l.1.1.1.1.3.1.3.1h1.2l.3-.1.3-.1.1-.1.1-.1.1-.1v-.4l-.1-.1-.1-.1-.1-.1-.3-.1-.3-.1h-1.2l-.3.1-.3.1-.1.1-.1.1-.1.1.1.3zm.1 4.7v.7h2.7v-1.1l-.1-.3-.1-.2-.1-.1-.2-.2-.2-.1-.3-.1h-.7l-.2.1-.2.1-.1.1-.1.1-.1.1-.1.1-.1.3-.1.5zm9.9-.7v.7h2.7v-1.1l-.1-.3-.1-.2-.1-.1-.2-.2-.2-.1-.3.1h-.7l-.2.1-.2.1-.1.1-.1.1-.1.1-.1.1-.1.3-.1.3zm9.9.6v.7h2.7v-1.1l-.1-.3-.1-.2-.1-.1-.2-.2-.2-.1-.3-.1h-.7l-.2.1-.2.1-.1.1-.1.1-.1.1-.1.1-.1.3-.1.5zm10 .1v.7h2.7v-1.1l-.1-.3-.1-.2-.1-.1-.2-.2-.2-.1-.3-.1h-.7l-.2.1-.2.1-.1.1-.1.1-.1.1-.1.1-.1.3-.1.5zM137.5 8l-.1.3-.1.3-.3.9h1.1l-.3-.9-.3-.6zm6 0l-.1.3-.1.3-.3.9h1.1l-.3-.9-.3-.6zm5.6 0h-.4l-.2.1-.2.1-.2.2-.1.1v1.1l.1.2.1.2.2.1.2.1.2.1h.4l.2-.1.2-.1.2-.1.1-.2.1-.2v-.8l-.1-.3-.2-.2-.2-.2-.1-.1h-.3zm15.3-4.8h-.8v1.1h1.1l.1-.1.1-.1.1-.1.1-.1v-.4l-.1-.2-.1-.1h-.5zM188.3 8h-.7v2.4h1.1l.1-.1.1-.1.1-.2.1-.2.1-.3v-.7l-.1-.2-.1-.2v-.2l-.1-.1-.1-.1h-.5zm11.3 0l-.1.3-.1.3-.3.9h1.1l-.3-.9-.3-.6zm25.5 35.9v.5l.1.2.1.1.1.1.2.3.3.2.2.1.2.1h1.6l.2-.1.2-.1.3-.2.2-.3.1-.1.1-.1.1-.2v-1l-.1-.2-.1-.1-.1-.1-.2-.3-.4-.2-.2-.1-.2-.1h-1.6l-.2.1-.2.1-.3.2-.2.3-.1.1-.1.1-.1.2v.2l.1.3zm24.8-8.6l-1-1v1.3h-.5V34h.2l-.6-.6h-.5v-.1h-.4V37l1.1-.1 1.7-1.6zm.2.1l-1.5 1.4 2.7-.2-1.2-1.2zm.2-.1l1.4 1.3 1.4-.1v-2.1h-.3l-.1-.1-.1-.1-.1-.1-.1-.1-.1-.1v-.1h-.2l-1.8 1.5zm-.2-.2l1.5-1.4-3.1-.3 1.6 1.7zm2.3-1.5v.2l.1.1.1.1h.4l.1-.1.1-.1v-.4l-.1-.1-.1-.1h-.4l-.1.1-.1.1v.2zm-4.7-.8l.4.3h.1v-.4l-.5.1zm-1.1 2.8h-.2v.4l.1.4h.4v-3l-.1.1-.1.1-.1.1-.1.1-.1.3v.3h.2v1.2zm-.4-.2h.2v-.8h-.2v.8zm.4 1.3l.1.2.1.1h.1v-.3h-.3zm-10.7 25.7v.2l.1.2.1.2.1.2.2.1.2.1h1.2l.2-.1.2-.1.1-.2.1-.2.1-.2v-.4l-.1-.2-.1-.2-.1-.2-.2-.1-.2-.1h-1.2l-.2.1-.2.1-.1.2-.1.2-.1.2v.2zm-10.8 6.2v.5l.1.2.1.1.1.1.2.3.4.2.2.1.2.1h1.6l.2-.1.2-.1.3-.2.2-.3.1-.1.1-.1.1-.2v-1l-.1-.2-.1-.1-.1-.1-.2-.3-.4-.2-.2-.1-.1-.1h-1.6l-.2.1-.2.1-.3.2-.2.3-.1.1-.1.1-.1.2v.2l-.1.3zm.1 6.4v.9h1.5v-1.4l-.1-.5-.1-.2-.2-.1-.2-.1h-.5l-.1.1-.1.1-.1.1-.1.1-.1.2v.4l.1.4zm-.1 16.9v.5l.1.2.1.1.1.1.2.3.3.2.2.1.2.1h1.6l.2-.1.2-.1.3-.2.2-.3.1-.1.1-.1.1-.2v-1l-.1-.2-.1-.1-.1-.1-.2-.3-.4-.2-.2-.1-.2-.1h-1.6l-.2.1-.2.1-.3.2-.2.3-.1.1-.1.1-.1.2v.2l.1.3zm-19.7 8.7v.2l.1.2.1.2.1.2.3.2.1.1.1.1.3.1h.6l.3-.1.2-.1.2-.2.2-.2.1-.2.1-.2v-.4l-.1-.2-.1-.2-.2-.2-.2-.2-.3-.1-.3-.1h-.7l-.4.1-.1.1-.1.1-.1.1-.1.1-.1.1-.1.2v.2l.1.1zm.1 3.9v.7h2.7v-1.1l-.1-.3-.1-.2-.1-.1-.2-.2-.2-.1-.3-.1h-.7l-.2.1-.2.1-.1.1-.1.1-.1.1-.1.1-.1.3-.1.5zm-9.9 0v.7h2.7v-1.1l-.1-.3-.1-.2-.1-.1-.2-.2-.2-.1-.3-.1h-.7l-.2.1-.2.1-.1.1-.1.1-.1.1-.1.1-.1.3-.1.5zm-.1-3.9v.2l.1.2.1.2.1.2.3.2.1.1.1.1.3.1h.6l.3-.1.2-.1.2-.2.2-.2.1-.2.1-.2v-.4l-.1-.2-.1-.2-.2-.2-.2-.2-.3-.1-.3-.1h-.7l-.4.1-.1.1-.1.1-.1.1-.1.1-.1.1-.1.2v.2l.1.1zm1.3-3.3v.2l.1.1.1.1.1.1.1.1h.5l.2-.1.2-.1.1-.2.1-.2v-.4l-.1-.1-.1-.1-.1-.1-.1-.1h-.8l-.1.1-.1.1-.1.1-.1.1v.1l.1.3zm-11.2 3.3v.2l.1.2.1.2.1.2.3.2.1.1.1.1.3.1h.6l.3-.1.2-.1.2-.2.2-.2.1-.2.1-.2v-.4l-.1-.2-.1-.2-.2-.2-.2-.2-.3-.1-.3-.1h-.7l-.4.1-.1.1-.1.1-.1.1-.1.1-.1.1-.1.2v.2l.1.1zm0 3.9v.7h2.7v-1.1l-.1-.3-.1-.2-.1-.1-.2-.2-.2-.1-.3-.1h-.7l-.2.1-.2.1-.1.1-.1.1-.1.1-.1.1-.1.3-.1.5zm-9.6-7.4l1.6 1.1v-1.1H176zm-.4 3.5v.2l.1.2.1.2.1.2.3.2.1.1.1.1.3.1h.6l.3-.1.2-.1.2-.2.2-.2.1-.2.1-.2v-.4l-.1-.2-.1-.2-.2-.2-.2-.2-.3-.1-.3-.1h-.7l-.4.1-.1.1-.1.1-.1.1-.1.1-.1.1-.1.2v.2l.1.1zm.1 3.9v.7h2.7v-1.1l-.1-.3-.1-.2-.1-.1-.2-.2-.2-.1-.3-.1h-.7l-.2.1-.2.1-.1.1-.1.1-.1.1-.1.1-.1.3-.1.5zm-9.9 0v.7h2.7v-1.1l-.1-.3-.1-.2-.1-.1-.2-.2-.2-.1-.3-.1h-.7l-.2.1-.2.1-.1.1-.1.1-.1.1-.1.1-.1.3-.1.5zm-.1-3.9v.2l.1.2.1.2.1.2.3.2.1.1.1.1.3.1h.6l.3-.1.2-.1.2-.2.2-.2.1-.2.1-.2v-.4l-.1-.2-.1-.2-.2-.2-.2-.2-.3-.1-.3-.1h-.7l-.4.1-.1.1-.1.1-.1.1-.1.1-.1.1-.1.2v.2l.1.1zm-9.9 0v.2l.1.2.1.2.1.2.3.2.1.1.1.1.3.1h.6l.3-.1.2-.1.2-.2.2-.2.1-.2.1-.2v-.4l-.1-.2-.1-.2-.2-.2-.2-.2-.3-.1-.3-.1h-.7l-.4.1-.1.1-.1.1-.1.1v.1l-.1.1-.1.2v.3zm.1 3.9v.7h2.7v-1.1l-.1-.3-.1-.2-.1-.1-.2-.2-.2-.1-.3-.1h-.7l-.2.1-.2.1-.1.1-.1.1-.1.1-.1.1-.1.3-.1.5zm-10 0v.7h2.7v-1.1l-.1-.3-.1-.2-.1-.1-.2-.2-.2-.1-.3-.1h-.7l-.2.1-.2.1-.1.1-.1.1-.1.1-.1.1-.1.3-.1.5zm0-3.9v.2l.1.2.1.2.1.2.3.2.1.1.1.1.3.1h.6l.3-.1.2-.1.2-.2.2-.2.1-.2.1-.2v-.4l-.1-.2-.1-.2-.2-.2-.2-.2-.3-.1-.3-.1h-.7l-.4.1-.1.1-.1.1-.1.1-.1.1-.1.1-.1.2v.2l.1.1zm-9.9-3.3v.2l.1.1.1.1.3.1.3.1h1.2l.3-.1.3-.1.1-.1.1-.1.1-.1V97l-.1-.1-.1-.1-.1-.1-.3-.1-.3-.1h-1.2l-.3.1-.3.1-.1.1-.1.2-.1.1.1.2zm0 3.3v.2l.1.2.1.2.1.2.3.2.1.1.1.1.3.1h.6l.3-.1.2-.1.2-.2.2-.2.1-.2.1-.2v-.4l-.1-.2-.1-.2-.2-.2-.2-.2-.3-.1-.3-.1h-.7l-.4.1-.1.1-.1.1-.1.1-.1.1-.1.1-.1.2v.2l.1.1zm0 3.9v.7h2.7v-1.1l-.1-.3-.1-.2-.1-.1-.2-.2-.2-.1-.3-.1h-.7l-.2.1-.2.1-.1.1-.1.1-.1.1-.1.1-.1.3-.1.5zm27.9 28.2h-.2l-.2.1-.2.1-.2.1-.2.3-.1.1-.1.1-.1.3v.6l.1.3.1.2.2.2.2.2.2.1.2.1h.4l.2-.1.2-.1.2-.2.2-.2.1-.3.1-.3v-.7l-.1-.4-.1-.1-.1-.1-.1-.1-.1-.1-.1-.1-.2-.1h-.2l-.1.1zm10.3.1h-.9v1.3h1.3l.2-.1.1-.1.1-.1.1-.1v-.4l-.1-.2-.1-.1-.2-.1h-.2l-.3-.1zM70.9 96h2.7v-1.1l-.1-.3-.1-.2-.1-.1-.2-.2-.2-.1h-1.1l-.2.1-.2.1-.1.1-.1.1-.2.1-.1.1-.1.3V96zm0 3.5h2.7v-1.1l-.1-.3-.1-.2-.1-.1-.2-.2-.2-.1-.3-.1h-.7l-.2.1-.2.1-.1.1-.1.1-.3.2-.1.1-.1.3v1.1zm9.9-1.2h2.7v-1.1l-.1-.2-.1-.2-.1-.1-.2-.2-.2-.1-.3-.1h-.7l-.2.1-.2.1-.1.1-.3.1-.1.1-.1.1-.1.3v1.1zm9.7 34.5h-.7v2.7h1.1l.3-.1.2-.1.1-.1.2-.2.1-.2.1-.3v-.7l-.1-.2-.1-.2-.1-.1-.1-.1-.1-.1-.1-.1-.3-.1-.5-.1zm-7.6 1.2h-.2l-.1.1-.1.1-.1.1-.1.1v.5l.1.2.1.2.2.1.2.1h.4l.1-.1.1-.1.1-.1.1-.1v-.8l-.1-.1-.1-.1-.1-.1-.1-.1h-.1l-.3.1zm-13.2.3h.2l.1-.1.1-.1.1-.1.1-.1v-.8l-.1-.1-.1-.1-.1-.1-.1-.1h-.4l-.1.1-.1.1-.1.1-.1.1v.7l.1.1.1.1.1.1.1.1h.1l.1.1zm18.7-55.6l-.1.2-.1.2-.1.2v.2h2.2v-.4l-.2-.1-.1-.2-.2-.2-.2-.1-.2-.1H89l-.2.1-.2.1-.2.1z"/><path class="st7" d="M93.6 61.9l-.1.1-.1.2-.1.2v.2h2.2v-.4l-.1-.2-.1-.2-.2-.2-.2-.1-.2-.1h-.4l-.3.2-.2.1-.2.2z"/><path class="st8" d="M66.2 32.6h32V12.8h-32v19.8z"/><path d="M95.1 28.6l1 2.6h-7.9l1-2.6h.8v-1.3h-2.3V13.9H90c.3.2.6.3.9.4 1.1.3 2.2.2 3.2-.4h2.3v6h.7V25h-.7v2.4h-2.3v1.3h1zm-27.2-8.8v-6h2.3c1.3.8 2.8.8 4.1 0h2.3v13.5h-2.3v1.3h.9l1 2.6h-7.9l1-2.6h.9v-1.3h-2.3v-2.4h-.7v-5.1h.7zm18.7-5.9v13.5h-2.3v1.3h.9l1 2.6h-7.9l1-2.6h.9v-1.3h-2.3V13.9h2.3c1.3.8 2.8.8 4.1 0h2.3z" fill="#237d23" stroke="#1d1d1b" stroke-width=".25" stroke-linecap="round" stroke-linejoin="round" stroke-miterlimit="113.386"/><path class="st8" d="M114.2 32.6h101.5V12.8H114.2v19.8z"/><path class="st10" d="M174.3 13.9v13.5H172v1.3h.9l1 2.6H166l1-2.6h.9v-1.3h-2.3V13.9h2.3c1.3.8 2.8.8 4.1 0h2.3zm-9.9 0v13.5h-2.3v1.3h.9l1 2.6h-8l1-2.6h.9v-1.3h-2.3V13.9h2.3c1.3.8 2.8.8 4.1 0h2.4zm-9.9 0v13.5h-2.3v1.3h.9l1 2.6h-7.9l1-2.6h.9v-1.3h-2.3V13.9h2.3c1.3.8 2.8.8 4.1 0h2.3zm-9.9 0v13.5h-2.3v1.3h.9l1 2.6h-7.9l1-2.6h.9v-1.3h-2.3V13.9h2.3c1.3.8 2.8.8 4.1 0h2.3zm68 14.7l1 2.6h-7.9l1-2.6h.9v-1.3h-2.3V13.9h2.3c1.3.8 2.8.8 4.1 0h2.3v6h.7V25h-.7v2.4h-2.3v1.3h.9zm-96.7-8.8v-6h2.3c1.3.8 2.8.8 4.1 0h2.3v13.5h-2.3v1.3h.9l1 2.6h-7.9l1-2.6h.9v-1.3h-2.3v-2.4h-.7v-5.1h.7zm18.7-5.9v13.5h-2.3v1.3h.9l1 2.6h-7.9l1-2.6h.9v-1.3h-2.3V13.9h2.3c1.3.8 2.8.8 4.1 0h2.3zm49.7 0v13.5H182v1.3h.9l1 2.6H176l1-2.6h.9v-1.3h-2.3V13.9h2.3c1.3.8 2.8.8 4.1 0h2.3zm9.9 0v13.5h-2.3v1.3h.9l1 2.6h-7.9l1-2.6h.9v-1.3h-2.3V13.9h2.3c1.3.8 2.8.8 4.1 0h2.3zm9.9 0v13.5h-2.3v1.3h.9l1 2.6h-7.9l1-2.6h.9v-1.3h-2.3V13.9h2.3c1.3.8 2.8.8 4.1 0h2.3z"/><path class="st8" d="M213 109.1h-81.6V129H213v-19.9z"/><path class="st10" d="M152.9 127.8v-13.5h2.3V113h-.9l-1-2.6h7.9l-1 2.6h-.9v1.3h2.3v13.5h-2.3c-1.3-.8-2.8-.8-4.1 0h-2.3zm10 0v-13.5h2.3V113h-.9l-1-2.6h7.9l-1 2.6h-.9v1.3h2.3v13.5h-2.3c-1.3-.8-2.8-.8-4.1 0h-2.3zm9.9 0v-13.5h2.3V113h-.9l-1-2.6h7.9l-1 2.6h-.9v1.3h2.3v13.5h-2.3c-1.3-.8-2.8-.8-4.1 0h-2.3zm9.9 0v-13.5h2.3V113h-.9l-1-2.6h7.9l-1 2.6h-.9v1.3h2.3v13.5h-2.3c-1.3-.8-2.8-.8-4.1 0h-2.3zm-48.2-14.7l-1-2.6h7.9l-1 2.6h-.9v1.3h2.3v13.5h-2.3c-1.3-.8-2.8-.8-4.1 0h-2.3v-6h-.7v-5.1h.7v-2.4h2.3v-1.3h-.9zm76.8 8.8v6H209c-1.3-.8-2.8-.8-4.1 0h-2.3v-13.5h2.3v-1.3h-.9l-1-2.6h7.9l-1 2.6h-.9v1.3h2.3v2.4h.7v5.1h-.7zm-18.7 5.9v-13.5h2.3V113h-.9l-1-2.6h7.9l-1 2.6h-.9v1.3h2.3v13.5H199c-1.3-.8-2.8-.8-4.1 0h-2.3zm-49.6 0v-13.5h2.3V113h-.9l-1-2.6h7.9l-1 2.6h-.9v1.3h2.3v13.5h-2.3c-1.3-.8-2.8-.8-4.1 0H143z"/><path class="st8" d="M98.2 109.1h-32V129h32v-19.9z"/><path class="st10" d="M69.3 113.1l-1-2.6h7.9l-1 2.6h-.9v1.3h2.3v13.5h-2.3c-.3-.2-.6-.3-.9-.4-1.1-.3-2.2-.2-3.2.4h-2.3v-6h-.7v-5.1h.7v-2.4h2.3v-1.3h-.9zm27.2 8.8v6h-2.3c-1.3-.8-2.8-.8-4.1 0h-2.3v-13.5H90v-1.3h-.9l-1-2.6H96l-1 2.6h-.9v1.3h2.3v2.4h.7v5.1h-.6zm-18.7 5.9v-13.5h2.3V113h-.9l-1-2.6h7.9l-1 2.6h-.9v1.3h2.3v13.5h-2.3c-1.3-.8-2.8-.8-4.1 0h-2.3z"/><path class="st11" d="M71.8 21.8l-.6.6h2.3l-.6-.6h-1.1zm1.6-1.7l-.6.6v1l.6.6v-2.2zm-2.3 0l.6.6h1l.6-.6h-2.2z"/><path class="st11" d="M71.8 20.8l-.6-.6v2.3l.6-.6v-1.1zm9.9 0l-.6-.6v2.3l.6-.6v-1.1zm-.6-.7l.6.6h1l.6-.6h-2.2zm2.2 0l-.6.6v1l.6.6v-2.2z"/><path class="st11" d="M81.7 21.8l-.6.6h2.3l-.6-.6h-1.1zm9.9-1l-.6-.7v2.3l.6-.6v-1zm-.6-.7l.6.6h1l.6-.6H91zm2.3 0l-.6.6v1l.6.6v-2.2z"/><path class="st11" d="M91.6 21.8l-.6.6h2.3l-.6-.6h-1.1z"/><path class="st1" d="M7.7 70.9c0 3.6 2.9 6.5 6.5 6.5s6.5-2.9 6.5-6.5-2.9-6.5-6.5-6.5-6.5 2.9-6.5 6.5z"/><path class="st12" d="M6 70.9c0 4.5 3.7 8.2 8.2 8.2s8.2-3.7 8.2-8.2c0-4.5-3.7-8.2-8.2-8.2-4.6-.1-8.2 3.6-8.2 8.2z"/><path class="st13" d="M8.2 70.9c0 3.3 2.7 6 6 6s6-2.7 6-6-2.7-6-6-6-6 2.7-6 6z"/><path class="st1" d="M7.7 70.9c0 3.6 2.9 6.5 6.5 6.5s6.5-2.9 6.5-6.5-2.9-6.5-6.5-6.5-6.5 2.9-6.5 6.5zm255.1 0c0 3.6 2.9 6.5 6.5 6.5s6.5-2.9 6.5-6.5-2.9-6.5-6.5-6.5c-3.6-.1-6.5 2.9-6.5 6.5z"/><path class="st14" d="M261.1 70.9c0 4.5 3.7 8.2 8.2 8.2s8.2-3.7 8.2-8.2c0-4.5-3.7-8.2-8.2-8.2-4.5-.1-8.2 3.6-8.2 8.2z"/><path class="st13" d="M263.3 70.9c0 3.3 2.7 6 6 6s6-2.7 6-6-2.7-6-6-6-6 2.7-6 6z"/><path class="st1" d="M262.8 70.9c0 3.6 2.9 6.5 6.5 6.5s6.5-2.9 6.5-6.5-2.9-6.5-6.5-6.5c-3.6-.1-6.5 2.9-6.5 6.5z"/><path class="st12" d="M212.6 0v.9c38.7 0 70 31.4 70 70 0 38.7-31.3 70-70 70v.9c39.1 0 70.9-31.7 70.9-70.9S251.7 0 212.6 0zm0 141.7v-.9H70.9v.9h141.7zm-141.7 0v-.9c-38.7 0-70-31.4-70-70 0-38.7 31.3-70 70-70V0C31.7 0 0 31.7 0 70.9s31.7 70.8 70.9 70.8zM70.9 0v.9h141.7V0H70.9z"/><path class="st11" d="M209.1 21.8l-.6.6h2.3l-.6-.6h-1.1zm1.7-1.7l-.6.6v1l.6.6v-2.2zm-2.3 0l.6.6h1l.6-.6h-2.2z"/><path class="st11" d="M209.1 20.8l-.6-.6v2.3l.6-.6v-1.1zm-9.9 1l-.6.6h2.3l-.6-.6h-1.1zm1.6-1.7l-.6.6v1l.6.6v-2.2zm-2.2 0l.6.6h1l.6-.6h-2.2z"/><path class="st11" d="M199.2 20.8l-.6-.6v2.3l.6-.6v-1.1zm-9.9 1l-.6.6h2.3l-.6-.6h-1.1zm1.6-1.7l-.6.6v1l.6.6v-2.2zm-2.3 0l.6.6h1l.6-.6h-2.2z"/><path class="st11" d="M189.3 20.8l-.6-.6v2.3l.6-.6v-1.1zm-9.9 1l-.6.6h2.3l-.6-.6h-1.1z"/><path class="st11" d="M181 20.1l-.6.6v1l.6.6v-2.2zm-2.3 0l.6.6h1l.6-.6h-2.2z"/><path class="st11" d="M179.4 20.8l-.6-.6v2.3l.6-.6v-1.1zm-8.3-.7l-.6.6v1l.6.6v-2.2zm-2.3 0l.6.6h1l.6-.6h-2.2zm.6 1.7l-.6.6h2.3l-.6-.6h-1.1z"/><path class="st11" d="M169.4 20.8l-.6-.6v2.3l.6-.6v-1.1zm-8.3-.7l-.6.6v1l.6.6v-2.2z"/><path class="st11" d="M158.9 20.1l.6.6h1l.6-.6h-2.2zm.6 1.7l-.6.6h2.3l-.6-.6h-1.1z"/><path class="st11" d="M159.5 20.8l-.6-.6v2.3l.6-.6v-1.1zm-9.9 1l-.6.6h2.3l-.6-.6h-1.1z"/><path class="st11" d="M149.6 20.8l-.6-.6v2.3l.6-.6v-1.1zm-.6-.7l.6.6h1l.6-.6H149z"/><path class="st11" d="M151.2 20.1l-.6.6v1l.6.6v-2.2zm-9.9 0l-.6.6v1l.6.6v-2.2zm-2.3 0l.6.6h1l.6-.6H139zm.7 1.7l-.6.6h2.3l-.6-.6h-1.1z"/><path class="st11" d="M139.7 20.8l-.6-.6v2.3l.6-.6v-1.1zm-9.9 1l-.6.6h2.3l-.6-.6h-1.1zm1.6-1.7l-.6.6v1l.6.6v-2.2zm-2.3 0l.6.6h1l.6-.6h-2.2z"/><path class="st11" d="M129.8 20.8l-.6-.6v2.3l.6-.6v-1.1zm-10 1l-.6.6h2.3l-.6-.6h-1.1zm1.7-1.7l-.6.6v1l.6.6v-2.2zm-2.3 0l.6.6h1l.6-.6h-2.2z"/><path class="st11" d="M119.8 20.8l-.6-.6v2.3l.6-.6v-1.1zM207.4 121l.6.6v-2.3l-.6.6v1.1z"/><path class="st11" d="M207.4 120l.6-.6h-2.3l.6.6h1.1zm.7 1.6l-.6-.6h-1l-.6.6h2.2z"/><path class="st11" d="M205.8 121.6l.6-.6v-1l-.6-.6v2.2zm-8.3-.6l.6.6v-2.3l-.6.6v1.1z"/><path class="st11" d="M197.5 120l.6-.6h-2.3l.6.6h1.1z"/><path class="st11" d="M195.9 121.6l.6-.6v-1l-.6-.6v2.2z"/><path class="st11" d="M198.1 121.6l-.6-.6h-1l-.6.6h2.2zm-9.9 0l-.6-.6h-1l-.6.6h2.2z"/><path class="st11" d="M187.6 121l.6.6v-2.3l-.6.6v1.1z"/><path class="st11" d="M187.6 120l.6-.6H186l.6.6h1z"/><path class="st11" d="M186 121.6l.6-.6v-1l-.6-.6v2.2zm-8.3-.6l.6.6v-2.3l-.6.6v1.1z"/><path class="st11" d="M177.7 120l.6-.6H176l.6.6h1.1z"/><path class="st11" d="M176 121.6l.6-.6v-1l-.6-.6v2.2zm2.3 0l-.6-.6h-1l-.6.6h2.2zm-9.9 0l-.6-.6h-1l-.6.6h2.2z"/><path class="st11" d="M167.7 121l.6.6v-2.3l-.6.6v1.1z"/><path class="st11" d="M167.7 120l.6-.6H166l.6.6h1.1z"/><path class="st11" d="M166.1 121.6l.6-.6v-1l-.6-.6v2.2zm-8.3-1.6l.6-.6h-2.3l.6.6h1.1z"/><path class="st11" d="M157.8 121l.6.6v-2.3l-.6.6v1.1z"/><path class="st11" d="M158.5 121.6l-.6-.6h-1l-.6.6h2.2zm-2.3 0l.6-.6v-1l-.6-.6v2.2zm-8.3-.6l.6.6v-2.3l-.6.6v1.1z"/><path class="st11" d="M147.9 120l.6-.6h-2.3l.6.6h1.1z"/><path class="st11" d="M146.3 121.6l.6-.6v-1l-.6-.6v2.2z"/><path class="st11" d="M148.5 121.6l-.6-.6h-1l-.6.6h2.2zm-9.9 0l-.6-.6h-1l-.6.6h2.2zm-2.3 0l.6-.6v-1l-.6-.6v2.2z"/><path class="st11" d="M138 120l.6-.6h-2.3l.6.6h1.1z"/><path class="st11" d="M138 121l.6.6v-2.3l-.6.7v1zm-45.4 0l.6.6v-2.3l-.6.6v1.1z"/><path class="st11" d="M92.6 120l.6-.6H91l.6.6h1zm.7 1.6l-.6-.6h-1l-.6.6h2.2z"/><path class="st11" d="M91 121.6l.6-.6v-1l-.6-.6v2.2zm-8.3-.6l.6.6v-2.3l-.6.6v1.1z"/><path class="st11" d="M82.7 120l.6-.6H81l.6.6h1.1z"/><path class="st11" d="M81.1 121.6l.6-.6v-1l-.6-.6v2.2zm2.2 0l-.6-.6h-1l-.6.6h2.2zm-10.5-.6l.6.6v-2.3l-.6.6v1.1z"/><path class="st11" d="M72.8 120l.6-.6h-2.3l.6.6h1.1z"/><path class="st11" d="M71.1 121.6l.6-.6v-1l-.6-.6v2.2zm2.3 0l-.6-.6h-1l-.6.6h2.2zm102.1-28.8h40.2V48.9h-40.2v43.9z"/><path d="M214 77.6h-2.7v3.5h-6v7.5h-6.9v1.3H191v-1.3h-6.9V53.1h6.9v-1.3h7.4v1.3h6.9v7.5h6v3.5h2.7v13.5z" fill="#0d0812" stroke="#646464" stroke-width=".25" stroke-linecap="round" stroke-linejoin="round" stroke-miterlimit="113.386"/><path class="st11" d="M216.4 48.9h-.7v43.9h1v-44h-.2l-.1.1zm-.7 0v-1h-40.2v1h40.2z"/><path class="st11" d="M216.7 48.9c0-.6-.5-1-1-1 .3 0 .5.1.7.3l.1.2.1.2.1.2v.1zm-.3 44.6c-.2.2-.5.3-.7.3.6 0 1-.5 1-1v.2l-.1.2-.1.2-.1.1zm-40.9.3h40.2v-1h-40.2v1zm-1-1c0 .6.5 1 1 1-.3 0-.5-.1-.7-.3l-.1-.2-.1-.2-.1-.2v-.1z"/><path class="st11" d="M174.8 92.8h.7V48.9h-1V93h.2l.1-.2z"/><path class="st11" d="M174.8 48.2c.2-.2.5-.3.7-.3-.6 0-1 .5-1 1v-.2l.1-.2.1-.2.1-.1z"/><path class="st12" d="M52.2 60.1c-.6-1.2-1.9-2-3.3-2h-1.4c-1.4 0-2.7.8-3.3 2-.3.6-.5 1.3-.5 2v17.5c0 .7.2 1.4.5 2 .6 1.2 1.9 2 3.3 2h1.4c1.4 0 2.7-.8 3.3-2 .3-.6.5-1.3.5-2v-5.9h-.9v5.9c0 .6-.1 1.1-.4 1.6-.5 1-1.5 1.6-2.5 1.6h-1.4c-1.1 0-2-.6-2.5-1.6-.3-.5-.4-1.1-.4-1.6V62.1c0-.6.1-1.1.4-1.6.5-1 1.5-1.6 2.5-1.6h1.4c1.1 0 2 .6 2.5 1.6.3.5.4 1.1.4 1.6v11.6h.9V62.1c0-.7-.2-1.4-.5-2z"/><path class="st14" d="M49.2 62.4s0-.1 0 0l-2-.1v17.2h2V62.4zm-.9-1v.7h-.1v-.7c-.5 0-.9.4-.9.9h2c-.2-.5-.5-.9-1-.9z"/><path class="st14" d="M47.2 79.4c0 .5.4.9.9.9v-.7h.1v.7c.5 0 .9-.4.9-.9h-1.9z"/></svg>